<?xml version="1.0" encoding="UTF-8"?>
<!--Generator: Apple Native CoreSVG 123-->
<!DOCTYPE svg
PUBLIC "-//W3C//DTD SVG 1.1//EN"
       "http://www.w3.org/Graphics/SVG/1.1/DTD/svg11.dtd">
<svg version="1.1" xmlns="http://www.w3.org/2000/svg" xmlns:xlink="http://www.w3.org/1999/xlink" width="3300" height="2200">
 <!--glyph: "uni10025B.medium", point size: 100.000000, font version: "Version 15.0d7e11", template writer version: "5"-->
 <g id="Notes">
  <rect height="2200" id="artboard" style="fill:white;opacity:1" width="3300" x="0" y="0"/>
  <line id="" style="fill:none;stroke:black;opacity:1;stroke-width:0.5;" x1="263" x2="3036" y1="292" y2="292"/>
  <text style="stroke:none;fill:black;font-family:-apple-system,&quot;SF Pro Display&quot;,&quot;SF Pro Text&quot;,Helvetica,sans-serif;font-weight:bold;" transform="matrix(1 0 0 1 263 322)">Weight/Scale Variations</text>
  <text style="stroke:none;fill:black;font-family:-apple-system,&quot;SF Pro Display&quot;,&quot;SF Pro Text&quot;,Helvetica,sans-serif;text-anchor:middle;" transform="matrix(1 0 0 1 559.711 322)">Ultralight</text>
  <text style="stroke:none;fill:black;font-family:-apple-system,&quot;SF Pro Display&quot;,&quot;SF Pro Text&quot;,Helvetica,sans-serif;text-anchor:middle;" transform="matrix(1 0 0 1 856.422 322)">Thin</text>
  <text style="stroke:none;fill:black;font-family:-apple-system,&quot;SF Pro Display&quot;,&quot;SF Pro Text&quot;,Helvetica,sans-serif;text-anchor:middle;" transform="matrix(1 0 0 1 1153.13 322)">Light</text>
  <text style="stroke:none;fill:black;font-family:-apple-system,&quot;SF Pro Display&quot;,&quot;SF Pro Text&quot;,Helvetica,sans-serif;text-anchor:middle;" transform="matrix(1 0 0 1 1449.84 322)">Regular</text>
  <text style="stroke:none;fill:black;font-family:-apple-system,&quot;SF Pro Display&quot;,&quot;SF Pro Text&quot;,Helvetica,sans-serif;text-anchor:middle;" transform="matrix(1 0 0 1 1746.56 322)">Medium</text>
  <text style="stroke:none;fill:black;font-family:-apple-system,&quot;SF Pro Display&quot;,&quot;SF Pro Text&quot;,Helvetica,sans-serif;text-anchor:middle;" transform="matrix(1 0 0 1 2043.27 322)">Semibold</text>
  <text style="stroke:none;fill:black;font-family:-apple-system,&quot;SF Pro Display&quot;,&quot;SF Pro Text&quot;,Helvetica,sans-serif;text-anchor:middle;" transform="matrix(1 0 0 1 2339.98 322)">Bold</text>
  <text style="stroke:none;fill:black;font-family:-apple-system,&quot;SF Pro Display&quot;,&quot;SF Pro Text&quot;,Helvetica,sans-serif;text-anchor:middle;" transform="matrix(1 0 0 1 2636.69 322)">Heavy</text>
  <text style="stroke:none;fill:black;font-family:-apple-system,&quot;SF Pro Display&quot;,&quot;SF Pro Text&quot;,Helvetica,sans-serif;text-anchor:middle;" transform="matrix(1 0 0 1 2933.4 322)">Black</text>
  <line id="" style="fill:none;stroke:black;opacity:1;stroke-width:0.5;" x1="263" x2="3036" y1="1903" y2="1903"/>
  <g id="" transform="matrix(1 0 0 1 263 1933)">
   <path d="M 9.24805 0.830078 C 13.5547 0.830078 17.1387 -2.74414 17.1387 -7.05078 C 17.1387 -11.3574 13.5449 -14.9316 9.23828 -14.9316 C 4.94141 -14.9316 1.36719 -11.3574 1.36719 -7.05078 C 1.36719 -2.74414 4.95117 0.830078 9.24805 0.830078 Z M 9.24805 -0.654297 C 5.70312 -0.654297 2.87109 -3.49609 2.87109 -7.05078 C 2.87109 -10.6055 5.69336 -13.4473 9.23828 -13.4473 C 12.793 -13.4473 15.6348 -10.6055 15.6445 -7.05078 C 15.6543 -3.49609 12.8027 -0.654297 9.24805 -0.654297 Z M 9.22852 -3.42773 C 9.69727 -3.42773 9.9707 -3.74023 9.9707 -4.25781 L 9.9707 -6.31836 L 12.1973 -6.31836 C 12.6953 -6.31836 13.0371 -6.57227 13.0371 -7.04102 C 13.0371 -7.51953 12.7148 -7.7832 12.1973 -7.7832 L 9.9707 -7.7832 L 9.9707 -10.0098 C 9.9707 -10.5273 9.69727 -10.8496 9.22852 -10.8496 C 8.75977 -10.8496 8.50586 -10.5078 8.50586 -10.0098 L 8.50586 -7.7832 L 6.29883 -7.7832 C 5.78125 -7.7832 5.44922 -7.51953 5.44922 -7.04102 C 5.44922 -6.57227 5.80078 -6.31836 6.29883 -6.31836 L 8.50586 -6.31836 L 8.50586 -4.25781 C 8.50586 -3.75977 8.75977 -3.42773 9.22852 -3.42773 Z"/>
  </g>
  <g id="" transform="matrix(1 0 0 1 281.506 1933)">
   <path d="M 11.709 2.91016 C 17.1582 2.91016 21.6699 -1.60156 21.6699 -7.05078 C 21.6699 -12.4902 17.1484 -17.0117 11.6992 -17.0117 C 6.25977 -17.0117 1.74805 -12.4902 1.74805 -7.05078 C 1.74805 -1.60156 6.26953 2.91016 11.709 2.91016 Z M 11.709 1.25 C 7.09961 1.25 3.41797 -2.44141 3.41797 -7.05078 C 3.41797 -11.6504 7.08984 -15.3516 11.6992 -15.3516 C 16.3086 -15.3516 20 -11.6504 20.0098 -7.05078 C 20.0195 -2.44141 16.3184 1.25 11.709 1.25 Z M 11.6895 -2.41211 C 12.207 -2.41211 12.5195 -2.77344 12.5195 -3.33984 L 12.5195 -6.23047 L 15.5762 -6.23047 C 16.123 -6.23047 16.5039 -6.51367 16.5039 -7.03125 C 16.5039 -7.55859 16.1426 -7.86133 15.5762 -7.86133 L 12.5195 -7.86133 L 12.5195 -10.9277 C 12.5195 -11.5039 12.207 -11.8555 11.6895 -11.8555 C 11.1719 -11.8555 10.8789 -11.4844 10.8789 -10.9277 L 10.8789 -7.86133 L 7.83203 -7.86133 C 7.26562 -7.86133 6.89453 -7.55859 6.89453 -7.03125 C 6.89453 -6.51367 7.28516 -6.23047 7.83203 -6.23047 L 10.8789 -6.23047 L 10.8789 -3.33984 C 10.8789 -2.79297 11.1719 -2.41211 11.6895 -2.41211 Z"/>
  </g>
  <g id="" transform="matrix(1 0 0 1 304.924 1933)">
   <path d="M 14.9707 5.67383 C 21.9336 5.67383 27.6953 -0.078125 27.6953 -7.04102 C 27.6953 -14.0039 21.9238 -19.7559 14.9609 -19.7559 C 8.00781 -19.7559 2.25586 -14.0039 2.25586 -7.04102 C 2.25586 -0.078125 8.01758 5.67383 14.9707 5.67383 Z M 14.9707 3.85742 C 8.93555 3.85742 4.08203 -1.00586 4.08203 -7.04102 C 4.08203 -13.0762 8.92578 -17.9395 14.9609 -17.9395 C 21.0059 -17.9395 25.8594 -13.0762 25.8691 -7.04102 C 25.8789 -1.00586 21.0156 3.85742 14.9707 3.85742 Z M 14.9512 -1.06445 C 15.5176 -1.06445 15.8691 -1.45508 15.8691 -2.06055 L 15.8691 -6.13281 L 20.1074 -6.13281 C 20.6934 -6.13281 21.1133 -6.46484 21.1133 -7.02148 C 21.1133 -7.59766 20.7227 -7.93945 20.1074 -7.93945 L 15.8691 -7.93945 L 15.8691 -12.1875 C 15.8691 -12.8027 15.5176 -13.1934 14.9512 -13.1934 C 14.3848 -13.1934 14.0625 -12.7832 14.0625 -12.1875 L 14.0625 -7.93945 L 9.83398 -7.93945 C 9.21875 -7.93945 8.80859 -7.59766 8.80859 -7.02148 C 8.80859 -6.46484 9.23828 -6.13281 9.83398 -6.13281 L 14.0625 -6.13281 L 14.0625 -2.06055 C 14.0625 -1.47461 14.3848 -1.06445 14.9512 -1.06445 Z"/>
  </g>
  <text style="stroke:none;fill:black;font-family:-apple-system,&quot;SF Pro Display&quot;,&quot;SF Pro Text&quot;,Helvetica,sans-serif;font-weight:bold;" transform="matrix(1 0 0 1 263 1953)">Design Variations</text>
  <text style="stroke:none;fill:black;font-family:-apple-system,&quot;SF Pro Display&quot;,&quot;SF Pro Text&quot;,Helvetica,sans-serif;" transform="matrix(1 0 0 1 263 1971)">Symbols are supported in up to nine weights and three scales.</text>
  <text style="stroke:none;fill:black;font-family:-apple-system,&quot;SF Pro Display&quot;,&quot;SF Pro Text&quot;,Helvetica,sans-serif;" transform="matrix(1 0 0 1 263 1989)">For optimal layout with text and other symbols, vertically align</text>
  <text style="stroke:none;fill:black;font-family:-apple-system,&quot;SF Pro Display&quot;,&quot;SF Pro Text&quot;,Helvetica,sans-serif;" transform="matrix(1 0 0 1 263 2007)">symbols with the adjacent text.</text>
  <rect height="14" id="" style="fill:#00AEEF;stroke:none;opacity:0.4;" width="3" x="776" y="1919"/>
  <g id="" transform="matrix(1 0 0 1 779 1933)">
   <path d="M 10.5273 0 L 12.373 0 L 7.17773 -14.0918 L 5.43945 -14.0918 L 0.244141 0 L 2.08984 0 L 3.50586 -4.0332 L 9.11133 -4.0332 Z M 6.2793 -11.9531 L 6.33789 -11.9531 L 8.59375 -5.52734 L 4.02344 -5.52734 Z"/>
  </g>
  <rect height="14" id="" style="fill:#00AEEF;stroke:none;opacity:0.4;" width="3" x="791.617" y="1919"/>
  <text style="stroke:none;fill:black;font-family:-apple-system,&quot;SF Pro Display&quot;,&quot;SF Pro Text&quot;,Helvetica,sans-serif;font-weight:bold;" transform="matrix(1 0 0 1 776 1953)">Margins</text>
  <text style="stroke:none;fill:black;font-family:-apple-system,&quot;SF Pro Display&quot;,&quot;SF Pro Text&quot;,Helvetica,sans-serif;" transform="matrix(1 0 0 1 776 1971)">Leading and trailing margins on the left and right side of each symbol</text>
  <text style="stroke:none;fill:black;font-family:-apple-system,&quot;SF Pro Display&quot;,&quot;SF Pro Text&quot;,Helvetica,sans-serif;" transform="matrix(1 0 0 1 776 1989)">can be adjusted by modifying the width of the blue rectangles.</text>
  <text style="stroke:none;fill:black;font-family:-apple-system,&quot;SF Pro Display&quot;,&quot;SF Pro Text&quot;,Helvetica,sans-serif;" transform="matrix(1 0 0 1 776 2007)">Modifications are automatically applied proportionally to all</text>
  <text style="stroke:none;fill:black;font-family:-apple-system,&quot;SF Pro Display&quot;,&quot;SF Pro Text&quot;,Helvetica,sans-serif;" transform="matrix(1 0 0 1 776 2025)">scales and weights.</text>
  <g id="" transform="matrix(1 0 0 1 1289 1933)">
   <path d="M 2.83203 3.11523 L 4.375 4.6582 C 5.22461 5.48828 6.19141 5.41992 7.06055 4.46289 L 17.2754 -6.66016 C 17.7051 -6.36719 18.0957 -6.37695 18.5645 -6.47461 L 19.6094 -6.68945 L 20.3027 -5.99609 L 20.2539 -5.47852 C 20.1855 -4.95117 20.3516 -4.53125 20.8496 -4.0332 L 21.6602 -3.22266 C 22.168 -2.71484 22.8223 -2.68555 23.3008 -3.16406 L 26.5527 -6.41602 C 27.0312 -6.89453 27.0117 -7.54883 26.5039 -8.05664 L 25.6836 -8.87695 C 25.1855 -9.375 24.7754 -9.55078 24.2383 -9.47266 L 23.7109 -9.41406 L 23.0566 -10.0781 L 23.3398 -11.2207 C 23.4863 -11.7871 23.3398 -12.2559 22.7148 -12.8613 L 20.3027 -15.2539 C 16.7578 -18.7793 12.2266 -18.6719 9.11133 -15.5371 C 8.69141 -15.1074 8.64258 -14.5215 8.91602 -14.0918 C 9.15039 -13.7207 9.62891 -13.4961 10.2734 -13.6621 C 11.7871 -14.043 13.3008 -13.9258 14.7852 -12.9199 L 14.1602 -11.3379 C 13.9258 -10.752 13.9453 -10.2734 14.1797 -9.83398 L 3.01758 0.439453 C 2.08008 1.30859 1.97266 2.25586 2.83203 3.11523 Z M 10.6738 -15.1465 C 13.3398 -17.1387 16.6504 -16.8262 19.0527 -14.4141 L 21.6797 -11.8066 C 21.9141 -11.5723 21.9434 -11.3867 21.8848 -11.0938 L 21.5039 -9.53125 L 23.0762 -7.95898 L 24.043 -8.04688 C 24.3262 -8.07617 24.4141 -8.05664 24.6387 -7.83203 L 25.2637 -7.20703 L 22.5098 -4.46289 L 21.8848 -5.07812 C 21.6602 -5.30273 21.6406 -5.40039 21.6699 -5.68359 L 21.7578 -6.64062 L 20.1953 -8.20312 L 18.5742 -7.89062 C 18.291 -7.83203 18.1445 -7.83203 17.9102 -8.07617 L 15.7324 -10.2539 C 15.5078 -10.4883 15.4785 -10.625 15.6055 -10.9473 L 16.5527 -13.2227 C 14.9512 -14.7559 12.8418 -15.6055 10.8008 -14.9512 C 10.7129 -14.9219 10.6445 -14.9414 10.6152 -14.9805 C 10.5859 -15.0293 10.5859 -15.0781 10.6738 -15.1465 Z M 4.10156 2.41211 C 3.61328 1.91406 3.78906 1.61133 4.12109 1.30859 L 15.0781 -8.80859 L 16.3086 -7.57812 L 6.15234 3.34961 C 5.84961 3.68164 5.46875 3.7793 5.06836 3.37891 Z"/>
  </g>
  <text style="stroke:none;fill:black;font-family:-apple-system,&quot;SF Pro Display&quot;,&quot;SF Pro Text&quot;,Helvetica,sans-serif;font-weight:bold;" transform="matrix(1 0 0 1 1289 1953)">Exporting</text>
  <text style="stroke:none;fill:black;font-family:-apple-system,&quot;SF Pro Display&quot;,&quot;SF Pro Text&quot;,Helvetica,sans-serif;" transform="matrix(1 0 0 1 1289 1971)">Symbols should be outlined when exporting to ensure the</text>
  <text style="stroke:none;fill:black;font-family:-apple-system,&quot;SF Pro Display&quot;,&quot;SF Pro Text&quot;,Helvetica,sans-serif;" transform="matrix(1 0 0 1 1289 1989)">design is preserved when submitting to Xcode.</text>
  <text id="template-version" style="stroke:none;fill:black;font-family:-apple-system,&quot;SF Pro Display&quot;,&quot;SF Pro Text&quot;,Helvetica,sans-serif;text-anchor:end;" transform="matrix(1 0 0 1 3036 1933)">Template v.1.0</text>
  <text style="stroke:none;fill:black;font-family:-apple-system,&quot;SF Pro Display&quot;,&quot;SF Pro Text&quot;,Helvetica,sans-serif;text-anchor:end;" transform="matrix(1 0 0 1 3036 1951)">Generated from book.fill</text>
  <text style="stroke:none;fill:black;font-family:-apple-system,&quot;SF Pro Display&quot;,&quot;SF Pro Text&quot;,Helvetica,sans-serif;text-anchor:end;" transform="matrix(1 0 0 1 3036 1969)">Typeset at 100 points</text>
  <text style="stroke:none;fill:black;font-family:-apple-system,&quot;SF Pro Display&quot;,&quot;SF Pro Text&quot;,Helvetica,sans-serif;" transform="matrix(1 0 0 1 263 726)">Small</text>
  <text style="stroke:none;fill:black;font-family:-apple-system,&quot;SF Pro Display&quot;,&quot;SF Pro Text&quot;,Helvetica,sans-serif;" transform="matrix(1 0 0 1 263 1156)">Medium</text>
  <text style="stroke:none;fill:black;font-family:-apple-system,&quot;SF Pro Display&quot;,&quot;SF Pro Text&quot;,Helvetica,sans-serif;" transform="matrix(1 0 0 1 263 1586)">Large</text>
 </g>
 <g id="Guides">
  <g id="H-reference" style="fill:#27AAE1;stroke:none;" transform="matrix(1 0 0 1 339 696)">
   <path d="M 54.9316 0 L 57.666 0 L 30.5664 -70.459 L 28.0762 -70.459 L 0.976562 0 L 3.66211 0 L 12.9395 -24.4629 L 45.7031 -24.4629 Z M 29.1992 -67.0898 L 29.4434 -67.0898 L 44.8242 -26.709 L 13.8184 -26.709 Z"/>
  </g>
  <line id="Baseline-S" style="fill:none;stroke:#27AAE1;opacity:1;stroke-width:0.577;" x1="263" x2="3036" y1="696" y2="696"/>
  <line id="Capline-S" style="fill:none;stroke:#27AAE1;opacity:1;stroke-width:0.577;" x1="263" x2="3036" y1="625.541" y2="625.541"/>
  <g id="H-reference" style="fill:#27AAE1;stroke:none;" transform="matrix(1 0 0 1 339 1126)">
   <path d="M 54.9316 0 L 57.666 0 L 30.5664 -70.459 L 28.0762 -70.459 L 0.976562 0 L 3.66211 0 L 12.9395 -24.4629 L 45.7031 -24.4629 Z M 29.1992 -67.0898 L 29.4434 -67.0898 L 44.8242 -26.709 L 13.8184 -26.709 Z"/>
  </g>
  <line id="Baseline-M" style="fill:none;stroke:#27AAE1;opacity:1;stroke-width:0.577;" x1="263" x2="3036" y1="1126" y2="1126"/>
  <line id="Capline-M" style="fill:none;stroke:#27AAE1;opacity:1;stroke-width:0.577;" x1="263" x2="3036" y1="1055.54" y2="1055.54"/>
  <g id="H-reference" style="fill:#27AAE1;stroke:none;" transform="matrix(1 0 0 1 339 1556)">
   <path d="M 54.9316 0 L 57.666 0 L 30.5664 -70.459 L 28.0762 -70.459 L 0.976562 0 L 3.66211 0 L 12.9395 -24.4629 L 45.7031 -24.4629 Z M 29.1992 -67.0898 L 29.4434 -67.0898 L 44.8242 -26.709 L 13.8184 -26.709 Z"/>
  </g>
  <line id="Baseline-L" style="fill:none;stroke:#27AAE1;opacity:1;stroke-width:0.577;" x1="263" x2="3036" y1="1556" y2="1556"/>
  <line id="Capline-L" style="fill:none;stroke:#27AAE1;opacity:1;stroke-width:0.577;" x1="263" x2="3036" y1="1485.54" y2="1485.54"/>
  <rect height="119.336" id="left-margin" style="fill:#00AEEF;stroke:none;opacity:0.4;" width="12.4512" x="1387.47" y="1030.79"/>
  <rect height="119.336" id="right-margin" style="fill:#00AEEF;stroke:none;opacity:0.4;" width="12.4512" x="1499.77" y="1030.79"/>
 </g>
 <g id="Symbols">
  <g id="Black-L" transform="matrix(1 0 0 1 2847.58 1556)">
   <path d="M 56.1523 15.1855 C 65.2344 15.1855 72.4609 17.8223 75.8301 19.7754 C 77.0996 20.5078 79.3945 21.9727 80.2246 22.6074 L 80.2246 -80.7129 C 74.9512 -88.3301 63.0859 -93.8965 51.6113 -93.8965 C 33.8867 -93.8965 21.2402 -84.3262 16.0645 -75.1953 L 16.0645 11.6211 C 16.1621 20.2148 20.8984 23.8281 26.5625 23.8281 C 30.2734 23.8281 32.5195 22.6074 35.2539 20.8008 C 38.8672 18.3105 47.1191 15.1855 56.1523 15.1855 Z M 115.479 15.1855 C 124.561 15.1855 132.812 18.3105 136.426 20.8008 C 139.062 22.6562 141.357 23.8281 145.02 23.8281 C 150.732 23.8281 155.566 20.2637 155.566 11.6699 L 155.566 -75.1953 C 150.391 -84.3262 137.744 -93.8965 120.02 -93.8965 C 108.545 -93.8965 96.6797 -88.3301 91.4062 -80.7129 L 91.4062 22.6562 C 92.2852 22.0215 94.5801 20.5078 95.8496 19.7754 C 99.1699 17.8223 106.445 15.1855 115.479 15.1855 Z"/>
  </g>
  <g id="Heavy-L" transform="matrix(1 0 0 1 2552.34 1556)">
   <path d="M 54.7852 13.916 C 64.4043 13.916 71.7773 17.041 75 19.0918 C 76.1719 19.7754 78.5156 21.2891 79.2969 21.7773 L 79.2969 -79.7363 C 74.3164 -87.1582 62.5 -92.7734 50.7324 -92.7734 C 33.4473 -92.7734 20.5566 -83.3984 16.0645 -75.0488 L 16.0645 12.3535 C 16.1621 19.7754 20.2148 22.8516 25.1953 22.8516 C 28.4668 22.8516 30.5664 21.7773 32.9102 20.166 C 36.4746 17.4316 44.9219 13.916 54.7852 13.916 Z M 113.965 13.916 C 123.828 13.916 132.275 17.4316 135.791 20.166 C 138.086 21.7773 140.186 22.8516 143.506 22.8516 C 148.438 22.8516 152.637 19.8242 152.637 12.4023 L 152.637 -75.0488 C 148.096 -83.3984 135.254 -92.7734 117.969 -92.7734 C 106.25 -92.7734 94.3848 -87.1582 89.4043 -79.7363 L 89.4043 21.8262 C 90.1855 21.3379 92.5781 19.8242 93.75 19.0918 C 96.9727 17.041 104.297 13.916 113.965 13.916 Z"/>
  </g>
  <g id="Bold-L" transform="matrix(1 0 0 1 2257.29 1556)">
   <path d="M 53.2227 12.5488 C 63.4766 12.5488 70.9961 16.1621 74.0723 18.3594 C 75.0977 18.9453 77.5391 20.459 78.2715 20.8496 L 78.2715 -78.6621 C 73.6328 -85.8398 61.7676 -91.5527 49.7559 -91.5527 C 33.0078 -91.5527 19.8242 -82.373 16.0645 -74.9023 L 16.0645 13.2324 C 16.1133 19.2871 19.4824 21.7773 23.6328 21.7773 C 26.5137 21.7773 28.3203 20.8496 30.3223 19.3848 C 33.7891 16.5039 42.4316 12.5488 53.2227 12.5488 Z M 112.256 12.5488 C 122.998 12.5488 131.641 16.5039 135.107 19.3848 C 137.012 20.8008 138.916 21.7773 141.748 21.7773 C 145.898 21.7773 149.316 19.2871 149.316 13.2812 L 149.316 -74.9023 C 145.605 -82.373 132.471 -91.5527 115.723 -91.5527 C 103.662 -91.5527 91.7969 -85.8398 87.1582 -78.6621 L 87.1582 20.8984 C 87.8906 20.5566 90.332 18.9941 91.4062 18.3594 C 94.4824 16.1621 101.953 12.5488 112.256 12.5488 Z"/>
  </g>
  <g id="Semibold-L" transform="matrix(1 0 0 1 1961.7 1556)">
   <path d="M 52.0996 11.5723 C 62.8418 11.5723 70.4102 15.5273 73.3887 17.8223 C 74.4141 18.4082 76.9043 19.9219 77.5391 20.166 L 77.5391 -77.8809 C 73.1445 -84.9609 61.3281 -90.7227 49.0723 -90.7227 C 32.666 -90.7227 19.2871 -81.6406 16.0645 -74.8047 L 16.0645 13.8184 C 16.1133 18.9453 18.9941 21.0449 22.5586 21.0449 C 25.1465 21.0449 26.8066 20.166 28.5156 18.8965 C 31.9336 15.8203 40.7227 11.5723 52.0996 11.5723 Z M 111.035 11.5723 C 122.461 11.5723 131.25 15.8203 134.668 18.8965 C 136.279 20.166 137.988 21.0449 140.576 21.0449 C 144.141 21.0449 147.07 18.9453 147.07 13.8672 L 147.07 -74.8047 C 143.848 -81.6406 130.518 -90.7227 114.111 -90.7227 C 101.855 -90.7227 90.0391 -84.9609 85.6445 -77.8809 L 85.6445 20.2637 C 86.2793 20.0195 88.7695 18.457 89.7949 17.8223 C 92.7734 15.5273 100.342 11.5723 111.035 11.5723 Z"/>
  </g>
  <g id="Medium-L" transform="matrix(1 0 0 1 1665.84 1556)">
   <path d="M 51.3184 10.8398 C 62.4023 10.8398 70.0195 15.0879 72.9004 17.4316 C 73.8281 17.9688 76.3672 19.5312 77.002 19.6777 L 77.002 -77.3438 C 72.7539 -84.2773 60.9375 -90.0879 48.5352 -90.0879 C 32.4219 -90.0879 18.8965 -81.1035 16.0645 -74.707 L 16.0645 14.3066 C 16.0645 18.7012 18.6035 20.5078 21.7773 20.5078 C 24.1211 20.5078 25.6836 19.6777 27.1484 18.457 C 30.5176 15.332 39.4531 10.8398 51.3184 10.8398 Z M 110.156 10.8398 C 122.021 10.8398 130.908 15.332 134.277 18.457 C 135.742 19.6289 137.305 20.5078 139.648 20.5078 C 142.822 20.5078 145.361 18.7012 145.361 14.3066 L 145.361 -74.707 C 142.529 -81.1035 129.053 -90.0879 112.939 -90.0879 C 100.537 -90.0879 88.7207 -84.2773 84.4727 -77.3438 L 84.4727 19.7754 C 85.1074 19.6289 87.5977 18.0176 88.623 17.4316 C 91.4551 15.0879 99.0723 10.8398 110.156 10.8398 Z"/>
  </g>
  <g id="Regular-L" transform="matrix(1 0 0 1 1370.25 1556)">
   <path d="M 50.2441 9.91211 C 61.7676 9.91211 69.4824 14.4531 72.2656 16.9434 C 73.1445 17.4316 75.7324 18.9941 76.3184 19.043 L 76.3184 -76.6113 C 72.2656 -83.3496 60.498 -89.2578 47.8516 -89.2578 C 32.0801 -89.2578 18.4082 -80.3711 16.0645 -74.6094 L 16.0645 14.8926 C 16.0645 18.3594 18.1152 19.7754 20.7031 19.7754 C 22.7539 19.7754 24.1699 19.043 25.3906 17.9688 C 28.6621 14.6484 37.793 9.91211 50.2441 9.91211 Z M 108.984 9.91211 C 121.436 9.91211 130.518 14.6484 133.838 17.9688 C 135.01 18.9941 136.426 19.7754 138.477 19.7754 C 141.064 19.7754 143.115 18.3594 143.115 14.8926 L 143.115 -74.6094 C 140.771 -80.3711 127.148 -89.2578 111.377 -89.2578 C 98.7305 -89.2578 86.9629 -83.3496 82.9102 -76.6113 L 82.9102 19.1406 C 83.4961 19.0918 86.084 17.4805 87.0117 16.9434 C 89.7461 14.4531 97.4609 9.91211 108.984 9.91211 Z"/>
  </g>
  <g id="Light-L" transform="matrix(1 0 0 1 1074.74 1556)">
   <path d="M 49.0234 8.64258 C 61.9629 8.64258 70.6543 14.0625 73.0469 16.8457 C 73.584 17.2363 75.293 18.2617 75.7324 18.3594 L 75.7324 -77.832 C 71.7285 -83.3496 60.3516 -88.916 47.5586 -88.916 C 31.6406 -88.916 17.5293 -80.3223 16.0645 -75 L 16.0645 15.1855 C 16.0645 17.7734 17.627 18.8965 19.6289 18.8965 C 21.2891 18.8965 22.4121 18.3594 23.291 17.4805 C 25.9277 14.209 35.498 8.64258 49.0234 8.64258 Z M 107.764 8.64258 C 121.289 8.64258 130.811 14.209 133.545 17.4805 C 134.375 18.3105 135.498 18.8965 137.158 18.8965 C 139.16 18.8965 140.723 17.7734 140.723 15.1855 L 140.723 -75 C 139.258 -80.3223 125.146 -88.916 109.277 -88.916 C 96.4844 -88.916 85.1074 -83.3496 81.1035 -77.832 L 81.1035 18.4082 C 81.543 18.3105 83.2031 17.2363 83.8379 16.8457 C 86.1328 14.0625 94.8242 8.64258 107.764 8.64258 Z"/>
  </g>
  <g id="Thin-L" transform="matrix(1 0 0 1 779.616 1556)">
   <path d="M 47.4609 6.98242 C 62.2559 6.98242 72.2656 13.5254 74.0234 16.6992 C 74.2188 16.9434 74.707 17.2852 75 17.4316 L 75 -79.4922 C 71.0449 -83.3496 60.2051 -88.4766 47.168 -88.4766 C 31.1035 -88.4766 16.3574 -80.1758 16.0645 -75.4883 L 16.0645 15.625 C 16.0645 16.9922 16.9922 17.7734 18.2129 17.7734 C 19.3359 17.7734 20.1172 17.4316 20.5078 16.8457 C 22.3145 13.623 32.5684 6.98242 47.4609 6.98242 Z M 106.152 6.98242 C 121.094 6.98242 131.299 13.623 133.105 16.8457 C 133.496 17.3828 134.277 17.7734 135.4 17.7734 C 136.67 17.7734 137.549 16.9922 137.549 15.625 L 137.549 -75.4883 C 137.256 -80.1758 122.51 -88.4766 106.494 -88.4766 C 93.457 -88.4766 82.6172 -83.3496 78.6621 -79.4922 L 78.6621 17.4316 C 78.9062 17.2852 79.3945 16.9434 79.5898 16.6992 C 81.3477 13.5254 91.3574 6.98242 106.152 6.98242 Z"/>
  </g>
  <g id="Ultralight-L" transform="matrix(1 0 0 1 483.71 1556)">
   <path d="M 46.6309 6.15234 C 62.4023 6.15234 73.0957 13.2324 74.5605 16.6504 C 74.5117 16.748 74.4141 16.748 74.6094 16.9434 L 74.6094 -80.3223 C 70.6543 -83.3496 60.1074 -88.2324 46.9238 -88.2324 C 30.8105 -88.2324 15.7715 -80.127 16.0645 -75.7812 L 16.0645 15.8203 C 16.0645 16.5527 16.6504 17.1875 17.4805 17.1875 C 18.3105 17.1875 18.9453 16.9434 19.0918 16.5039 C 20.5078 13.3301 31.0059 6.15234 46.6309 6.15234 Z M 105.322 6.15234 C 120.947 6.15234 131.494 13.3301 132.91 16.5039 C 133.008 16.9434 133.691 17.1875 134.521 17.1875 C 135.352 17.1875 135.938 16.5527 135.938 15.8203 L 135.938 -75.7812 C 136.182 -80.127 121.191 -88.2324 105.078 -88.2324 C 91.8945 -88.2324 81.2988 -83.3496 77.3926 -80.3223 L 77.3926 16.9434 C 77.5879 16.748 77.4414 16.748 77.4414 16.6504 C 78.9062 13.2324 89.5996 6.15234 105.322 6.15234 Z"/>
  </g>
  <g id="Black-M" transform="matrix(1 0 0 1 2865.55 1126)">
   <path d="M 44.7754 4.83398 C 51.7578 4.83398 57.7637 6.73828 60.3027 8.25195 C 61.2305 8.78906 62.4512 9.66797 63.1348 10.3516 L 63.1348 -72.4609 C 58.6914 -77.9785 49.6582 -81.9824 41.0156 -81.9824 C 26.6113 -81.9824 16.8945 -74.5117 12.4512 -66.6016 L 12.4512 0.195312 C 12.5977 8.00781 16.7969 11.377 21.9238 11.377 C 25.0488 11.377 26.9043 10.3516 29.2969 8.83789 C 31.9336 7.17773 38.2812 4.83398 44.7754 4.83398 Z M 90.918 4.83398 C 97.4121 4.83398 103.809 7.17773 106.348 8.83789 C 108.691 10.4492 110.645 11.377 113.77 11.377 C 118.896 11.377 123.242 8.05664 123.242 0.244141 L 123.242 -66.6016 C 118.75 -74.5117 109.033 -81.9824 94.6777 -81.9824 C 86.0352 -81.9824 77.002 -77.9785 72.5586 -72.4609 L 72.5586 10.3516 C 73.2422 9.66797 74.4141 8.78906 75.3418 8.25195 C 77.9297 6.73828 83.9355 4.83398 90.918 4.83398 Z"/>
  </g>
  <g id="Heavy-M" transform="matrix(1 0 0 1 2570.14 1126)">
   <path d="M 43.5547 3.80859 C 50.8301 3.80859 56.6895 6.00586 59.1797 7.51953 C 60.1074 8.05664 61.6211 9.08203 62.2559 9.61914 L 62.2559 -71.0449 C 58.1055 -76.6602 49.0234 -80.8594 40.1367 -80.8594 C 26.2695 -80.8594 16.4062 -73.4863 12.4512 -66.3086 L 12.4512 0.976562 C 12.5488 7.66602 16.2109 10.5469 20.6543 10.5469 C 23.4863 10.5469 25.2441 9.61914 27.3438 8.25195 C 29.9805 6.34766 36.4746 3.80859 43.5547 3.80859 Z M 89.5508 3.80859 C 96.6797 3.80859 103.174 6.34766 105.762 8.25195 C 107.812 9.66797 109.619 10.5469 112.451 10.5469 C 116.895 10.5469 120.654 7.71484 120.654 1.02539 L 120.654 -66.3086 C 116.699 -73.4863 106.836 -80.8594 92.9688 -80.8594 C 84.082 -80.8594 75 -76.6602 70.8496 -71.0449 L 70.8496 9.61914 C 71.4844 9.08203 72.998 8.10547 73.9258 7.51953 C 76.416 6.00586 82.3242 3.80859 89.5508 3.80859 Z"/>
  </g>
  <g id="Bold-M" transform="matrix(1 0 0 1 2274.87 1126)">
   <path d="M 42.1875 2.63672 C 49.7559 2.63672 55.4688 5.12695 57.959 6.73828 C 58.8379 7.27539 60.6934 8.44727 61.2793 8.78906 L 61.2793 -69.5312 C 57.4707 -75.2441 48.291 -79.6387 39.1602 -79.6387 C 25.8789 -79.6387 15.8203 -72.4121 12.4512 -66.0645 L 12.4512 1.80664 C 12.5 7.32422 15.5762 9.61914 19.2871 9.61914 C 21.7773 9.61914 23.3398 8.78906 25.0977 7.56836 C 27.832 5.41992 34.4238 2.63672 42.1875 2.63672 Z M 88.0371 2.63672 C 95.8008 2.63672 102.393 5.41992 105.127 7.56836 C 106.836 8.78906 108.447 9.61914 110.938 9.61914 C 114.648 9.61914 117.773 7.37305 117.773 1.85547 L 117.773 -66.0645 C 114.404 -72.4121 104.346 -79.6387 91.0645 -79.6387 C 81.9336 -79.6387 72.7539 -75.2441 68.9453 -69.5312 L 68.9453 8.83789 C 69.5312 8.49609 71.3867 7.27539 72.3145 6.73828 C 74.7559 5.12695 80.4688 2.63672 88.0371 2.63672 Z"/>
  </g>
  <g id="Semibold-M" transform="matrix(1 0 0 1 1979.16 1126)">
   <path d="M 41.2598 1.85547 C 49.0234 1.85547 54.6387 4.54102 57.0801 6.20117 C 57.959 6.68945 60.0586 7.95898 60.6445 8.20312 L 60.6445 -68.457 C 57.0801 -74.2676 47.8027 -78.7598 38.4766 -78.7598 C 25.5859 -78.7598 15.4297 -71.6309 12.4512 -65.8691 L 12.4512 2.39258 C 12.5 7.08008 15.1367 8.98438 18.3105 8.98438 C 20.5566 8.98438 22.0215 8.20312 23.584 7.08008 C 26.3672 4.78516 33.0078 1.85547 41.2598 1.85547 Z M 87.0117 1.85547 C 95.2148 1.85547 101.855 4.78516 104.688 7.08008 C 106.201 8.20312 107.666 8.98438 109.912 8.98438 C 113.086 8.98438 115.771 7.08008 115.771 2.39258 L 115.771 -65.8691 C 112.793 -71.6309 102.637 -78.7598 89.7949 -78.7598 C 80.4199 -78.7598 71.1914 -74.2676 67.627 -68.457 L 67.627 8.30078 C 68.2129 8.05664 70.3125 6.73828 71.1914 6.20117 C 73.6328 4.54102 79.248 1.85547 87.0117 1.85547 Z"/>
  </g>
  <g id="Medium-M" transform="matrix(1 0 0 1 1683.2 1126)">
   <path d="M 40.5273 1.26953 C 48.4863 1.26953 54.0039 4.10156 56.4453 5.76172 C 57.2754 6.25 59.5703 7.66602 60.1074 7.8125 L 60.1074 -67.627 C 56.7383 -73.4863 47.4121 -78.125 37.9395 -78.125 C 25.3906 -78.125 15.1367 -71.0449 12.4512 -65.7227 L 12.4512 2.83203 C 12.4512 6.88477 14.7949 8.49609 17.5781 8.49609 C 19.6777 8.49609 20.9961 7.8125 22.4121 6.73828 C 25.2441 4.29688 31.9336 1.26953 40.5273 1.26953 Z M 86.1816 1.26953 C 94.7754 1.26953 101.465 4.29688 104.346 6.73828 C 105.664 7.76367 107.031 8.49609 109.082 8.49609 C 111.914 8.49609 114.258 6.88477 114.258 2.83203 L 114.258 -65.7227 C 111.572 -71.0449 101.367 -78.125 88.8184 -78.125 C 79.2969 -78.125 70.0195 -73.4863 66.6016 -67.627 L 66.6016 7.86133 C 67.1875 7.71484 69.4336 6.29883 70.3613 5.76172 C 72.7539 4.10156 78.2715 1.26953 86.1816 1.26953 Z"/>
  </g>
  <g id="Regular-M" transform="matrix(1 0 0 1 1387.47 1126)">
   <path d="M 39.5996 0.488281 C 47.7539 0.488281 53.1738 3.51562 55.5664 5.22461 C 56.3965 5.71289 58.9355 7.17773 59.4727 7.22656 L 59.4727 -66.6016 C 56.2988 -72.5098 46.9238 -77.2949 37.2559 -77.2949 C 25.0977 -77.2949 14.7461 -70.2637 12.4512 -65.5273 L 12.4512 3.41797 C 12.4512 6.64062 14.3066 7.86133 16.6504 7.86133 C 18.457 7.86133 19.7266 7.22656 20.8984 6.25 C 23.7793 3.66211 30.5664 0.488281 39.5996 0.488281 Z M 85.1562 0.488281 C 94.2383 0.488281 100.928 3.66211 103.906 6.25 C 105.029 7.17773 106.25 7.86133 108.057 7.86133 C 110.4 7.86133 112.305 6.64062 112.305 3.41797 L 112.305 -65.5273 C 110.01 -70.2637 99.6582 -77.2949 87.5 -77.2949 C 77.832 -77.2949 68.457 -72.5098 65.332 -66.6016 L 65.332 7.32422 C 65.8691 7.27539 68.3594 5.76172 69.2383 5.22461 C 71.6309 3.51562 77.0508 0.488281 85.1562 0.488281 Z"/>
  </g>
  <g id="Light-M" transform="matrix(1 0 0 1 1091.85 1126)">
   <path d="M 38.5254 -0.683594 C 47.9492 -0.683594 54.248 3.17383 56.25 5.17578 C 56.8359 5.51758 58.5449 6.54297 58.9355 6.5918 L 58.9355 -67.6758 C 55.8105 -72.5098 46.8262 -76.9531 37.0117 -76.9531 C 24.707 -76.9531 13.9648 -70.2148 12.4512 -65.8691 L 12.4512 3.71094 C 12.4512 6.10352 13.8672 7.12891 15.6738 7.12891 C 17.1387 7.12891 18.1641 6.5918 18.9941 5.85938 C 21.3379 3.27148 28.5156 -0.683594 38.5254 -0.683594 Z M 84.082 -0.683594 C 94.0918 -0.683594 101.221 3.27148 103.613 5.85938 C 104.395 6.54297 105.42 7.12891 106.885 7.12891 C 108.691 7.12891 110.107 6.10352 110.107 3.71094 L 110.107 -65.8691 C 108.594 -70.2148 97.9004 -76.9531 85.5957 -76.9531 C 75.7812 -76.9531 66.7969 -72.5098 63.6719 -67.6758 L 63.6719 6.64062 C 64.0625 6.5918 65.7715 5.56641 66.4062 5.17578 C 68.3594 3.17383 74.6582 -0.683594 84.082 -0.683594 Z"/>
  </g>
  <g id="Thin-M" transform="matrix(1 0 0 1 796.559 1126)">
   <path d="M 37.1094 -2.14844 C 48.1934 -2.14844 55.6641 2.68555 57.1289 5.0293 C 57.373 5.27344 58.0078 5.66406 58.252 5.76172 L 58.252 -69.1406 C 55.1758 -72.5098 46.6797 -76.5625 36.6211 -76.5625 C 24.2188 -76.5625 12.9395 -70.0684 12.4512 -66.3086 L 12.4512 4.10156 C 12.4512 5.37109 13.2812 6.10352 14.4043 6.10352 C 15.3809 6.10352 16.1133 5.76172 16.5039 5.27344 C 18.1152 2.73438 25.8789 -2.14844 37.1094 -2.14844 Z M 82.6172 -2.14844 C 93.8965 -2.14844 101.66 2.73438 103.271 5.27344 C 103.613 5.76172 104.346 6.10352 105.322 6.10352 C 106.445 6.10352 107.275 5.37109 107.275 4.10156 L 107.275 -66.3086 C 106.787 -70.0684 95.5078 -76.5625 83.1055 -76.5625 C 73.0469 -76.5625 64.5508 -72.5098 61.4746 -69.1406 L 61.4746 5.81055 C 61.7188 5.66406 62.3535 5.27344 62.5977 5.0293 C 64.0625 2.68555 71.582 -2.14844 82.6172 -2.14844 Z"/>
  </g>
  <g id="Ultralight-M" transform="matrix(1 0 0 1 500.58 1126)">
   <path d="M 36.377 -2.92969 C 48.291 -2.92969 56.3965 2.44141 57.6172 4.98047 C 57.666 5.12695 57.7637 5.22461 57.9102 5.32227 L 57.9102 -69.9219 C 54.8828 -72.5098 46.582 -76.3672 36.4258 -76.3672 C 23.9746 -76.3672 12.4023 -70.0195 12.4512 -66.5527 L 12.4512 4.24805 C 12.4512 5.0293 12.9883 5.56641 13.7695 5.56641 C 14.502 5.56641 15.0391 5.32227 15.2344 4.98047 C 16.4551 2.49023 24.5117 -2.92969 36.377 -2.92969 Z M 81.8848 -2.92969 C 93.7988 -2.92969 101.855 2.49023 103.076 4.98047 C 103.223 5.32227 103.76 5.56641 104.492 5.56641 C 105.273 5.56641 105.811 5.0293 105.811 4.24805 L 105.811 -66.5527 C 105.859 -70.0195 94.3359 -76.3672 81.8359 -76.3672 C 71.6797 -76.3672 63.4277 -72.5098 60.3516 -69.9219 L 60.3516 5.32227 C 60.5469 5.22461 60.5957 5.12695 60.6445 4.98047 C 61.8652 2.44141 69.9707 -2.92969 81.8848 -2.92969 Z"/>
  </g>
  <g id="Black-S" transform="matrix(1 0 0 1 2880.32 696)">
   <path d="M 35.0098 -3.90625 C 40.4785 -3.90625 45.166 -2.39258 47.168 -1.2207 C 47.9004 -0.78125 48.877 -0.0976562 49.4141 0.439453 L 49.4141 -64.2578 C 45.9473 -68.6035 38.8672 -71.7773 32.0801 -71.7773 C 20.8496 -71.7773 13.2324 -65.918 9.76562 -59.7656 L 9.76562 -7.42188 C 9.86328 -1.36719 13.1348 1.2207 17.0898 1.2207 C 19.5312 1.2207 20.9961 0.439453 22.8516 -0.732422 C 24.9023 -2.05078 29.8828 -3.90625 35.0098 -3.90625 Z M 71.1426 -3.90625 C 76.2695 -3.90625 81.2988 -2.05078 83.3008 -0.732422 C 85.1074 0.488281 86.6211 1.2207 89.0625 1.2207 C 93.0176 1.2207 96.3867 -1.31836 96.3867 -7.37305 L 96.3867 -59.7656 C 92.9199 -65.918 85.3027 -71.7773 74.0723 -71.7773 C 67.2852 -71.7773 60.2051 -68.6035 56.7383 -64.2578 L 56.7383 0.439453 C 57.2754 -0.0976562 58.252 -0.78125 58.9844 -1.2207 C 60.9863 -2.39258 65.6738 -3.90625 71.1426 -3.90625 Z"/>
  </g>
  <g id="Heavy-S" transform="matrix(1 0 0 1 2584.49 696)">
   <path d="M 34.1797 -4.58984 C 39.7461 -4.58984 44.2383 -2.92969 46.2402 -1.75781 C 46.9727 -1.31836 48.291 -0.488281 48.8281 -0.0488281 L 48.8281 -63.0859 C 45.5566 -67.627 38.3789 -70.9473 31.4453 -70.9473 C 20.6055 -70.9473 12.9395 -65.1855 9.76562 -59.5215 L 9.76562 -6.88477 C 9.86328 -1.5625 12.7441 0.683594 16.2598 0.683594 C 18.5059 0.683594 19.873 -0.0488281 21.5332 -1.17188 C 23.7305 -2.63672 28.7109 -4.58984 34.1797 -4.58984 Z M 70.2148 -4.58984 C 75.7324 -4.58984 80.7617 -2.63672 82.9102 -1.17188 C 84.5215 -0.0488281 85.9375 0.683594 88.1836 0.683594 C 91.6992 0.683594 94.6289 -1.51367 94.6289 -6.83594 L 94.6289 -59.5215 C 91.5039 -65.1855 83.7891 -70.9473 72.998 -70.9473 C 66.0156 -70.9473 58.8379 -67.627 55.6152 -63.0859 L 55.6152 -0.0488281 C 56.1523 -0.439453 57.4219 -1.31836 58.2031 -1.75781 C 60.2051 -2.92969 64.6973 -4.58984 70.2148 -4.58984 Z"/>
  </g>
  <g id="Bold-S" transform="matrix(1 0 0 1 2288.73 696)">
   <path d="M 33.3008 -5.32227 C 38.916 -5.32227 43.1641 -3.56445 45.2148 -2.34375 C 45.9473 -1.9043 47.6074 -0.878906 48.1445 -0.634766 L 48.1445 -61.7676 C 45.166 -66.5527 37.8418 -70.0684 30.7129 -70.0684 C 20.3613 -70.0684 12.5977 -64.3066 9.76562 -59.2773 L 9.76562 -6.25 C 9.81445 -1.75781 12.3047 0.0488281 15.2832 0.0488281 C 17.334 0.0488281 18.6035 -0.634766 20.0684 -1.61133 C 22.3633 -3.32031 27.3926 -5.32227 33.3008 -5.32227 Z M 69.1895 -5.32227 C 75.0977 -5.32227 80.127 -3.32031 82.4219 -1.61133 C 83.8379 -0.585938 85.1562 0.0488281 87.1582 0.0488281 C 90.1855 0.0488281 92.7246 -1.75781 92.7246 -6.25 L 92.7246 -59.2773 C 89.8926 -64.3066 82.1289 -70.0684 71.7773 -70.0684 C 64.6484 -70.0684 57.3242 -66.5527 54.3457 -61.7676 L 54.3457 -0.585938 C 54.8828 -0.830078 56.543 -1.9043 57.3242 -2.34375 C 59.3262 -3.56445 63.5742 -5.32227 69.1895 -5.32227 Z"/>
  </g>
  <g id="Semibold-S" transform="matrix(1 0 0 1 1992.71 696)">
   <path d="M 32.666 -5.81055 C 38.3301 -5.81055 42.4316 -3.95508 44.4824 -2.7832 C 45.2637 -2.34375 47.168 -1.17188 47.6562 -0.976562 L 47.6562 -60.8398 C 44.873 -65.7715 37.5 -69.4336 30.2246 -69.4336 C 20.166 -69.4336 12.3535 -63.7207 9.76562 -59.082 L 9.76562 -5.81055 C 9.81445 -1.9043 12.0117 -0.341797 14.6484 -0.341797 C 16.5039 -0.341797 17.7246 -0.976562 19.043 -1.95312 C 21.4355 -3.75977 26.5137 -5.81055 32.666 -5.81055 Z M 68.5059 -5.81055 C 74.6582 -5.81055 79.6875 -3.75977 82.1289 -1.95312 C 83.3984 -1.02539 84.6191 -0.341797 86.4746 -0.341797 C 89.1602 -0.341797 91.3574 -1.9043 91.3574 -5.81055 L 91.3574 -59.082 C 88.7695 -63.7207 81.0059 -69.4336 70.9473 -69.4336 C 63.6719 -69.4336 56.2988 -65.7715 53.5156 -60.8398 L 53.5156 -0.927734 C 54.0039 -1.12305 55.9082 -2.29492 56.7383 -2.7832 C 58.7402 -3.95508 62.8418 -5.81055 68.5059 -5.81055 Z"/>
  </g>
  <g id="Medium-S" transform="matrix(1 0 0 1 1696.51 696)">
   <path d="M 32.1777 -6.20117 C 37.8906 -6.20117 41.8457 -4.29688 43.9453 -3.07617 C 44.7266 -2.63672 46.8262 -1.36719 47.3145 -1.26953 L 47.3145 -60.1562 C 44.6289 -65.1855 37.207 -68.9453 29.834 -68.9453 C 20.0195 -68.9453 12.1582 -63.2812 9.76562 -58.9844 L 9.76562 -5.51758 C 9.76562 -2.05078 11.7676 -0.683594 14.1602 -0.683594 C 15.918 -0.683594 17.0898 -1.26953 18.3105 -2.19727 C 20.752 -4.10156 25.8301 -6.20117 32.1777 -6.20117 Z M 67.9688 -6.20117 C 74.3164 -6.20117 79.3945 -4.10156 81.8848 -2.19727 C 83.0078 -1.31836 84.1797 -0.683594 85.9375 -0.683594 C 88.3789 -0.683594 90.332 -2.05078 90.332 -5.51758 L 90.332 -58.9844 C 87.9395 -63.2812 80.127 -68.9453 70.3125 -68.9453 C 62.9395 -68.9453 55.5176 -65.1855 52.832 -60.1562 L 52.832 -1.2207 C 53.3203 -1.31836 55.4199 -2.58789 56.25 -3.07617 C 58.3008 -4.29688 62.2559 -6.20117 67.9688 -6.20117 Z"/>
  </g>
  <g id="Regular-S" transform="matrix(1 0 0 1 1400.45 696)">
   <path d="M 31.5918 -6.73828 C 37.3535 -6.73828 41.1133 -4.6875 43.2129 -3.4668 C 43.9941 -3.07617 46.3867 -1.66016 46.8262 -1.66016 L 46.8262 -59.2773 C 44.3359 -64.4531 36.8652 -68.3105 29.3457 -68.3105 C 19.873 -68.3105 11.9629 -62.7441 9.76562 -58.7891 L 9.76562 -5.07812 C 9.76562 -2.19727 11.4746 -1.07422 13.5254 -1.07422 C 15.1367 -1.07422 16.2109 -1.66016 17.2852 -2.49023 C 19.8242 -4.54102 24.9512 -6.73828 31.5918 -6.73828 Z M 67.2852 -6.73828 C 73.9258 -6.73828 78.9551 -4.54102 81.543 -2.49023 C 82.5684 -1.70898 83.6426 -1.07422 85.2539 -1.07422 C 87.3535 -1.07422 89.0137 -2.19727 89.0137 -5.07812 L 89.0137 -58.7891 C 86.8652 -62.7441 78.9551 -68.3105 69.4824 -68.3105 C 61.9629 -68.3105 54.4922 -64.4531 52.002 -59.2773 L 52.002 -1.5625 C 52.4414 -1.5625 54.834 -3.02734 55.6641 -3.4668 C 57.7148 -4.6875 61.5234 -6.73828 67.2852 -6.73828 Z"/>
  </g>
  <g id="Light-S" transform="matrix(1 0 0 1 1104.7 696)">
   <path d="M 30.6152 -7.71484 C 37.5 -7.71484 42.0898 -5.0293 43.7988 -3.56445 C 44.3848 -3.22266 46.0449 -2.24609 46.3867 -2.19727 L 46.3867 -60.2539 C 43.9453 -64.4531 36.7676 -68.0664 29.1016 -68.0664 C 19.5312 -68.0664 11.2305 -62.6465 9.76562 -59.082 L 9.76562 -4.83398 C 9.76562 -2.63672 11.0352 -1.75781 12.6953 -1.75781 C 13.9648 -1.75781 14.8438 -2.19727 15.625 -2.88086 C 17.6758 -4.88281 23.1445 -7.71484 30.6152 -7.71484 Z M 66.3086 -7.71484 C 73.7793 -7.71484 79.1992 -4.88281 81.2988 -2.88086 C 82.0312 -2.24609 82.9102 -1.75781 84.2285 -1.75781 C 85.8398 -1.75781 87.1094 -2.63672 87.1094 -4.83398 L 87.1094 -59.082 C 85.6445 -62.6465 77.3926 -68.0664 67.8223 -68.0664 C 60.1562 -68.0664 52.9785 -64.4531 50.5371 -60.2539 L 50.5371 -2.14844 C 50.8789 -2.19727 52.5391 -3.22266 53.125 -3.56445 C 54.834 -5.0293 59.4238 -7.71484 66.3086 -7.71484 Z"/>
  </g>
  <g id="Thin-S" transform="matrix(1 0 0 1 809.23 696)">
   <path d="M 29.3457 -9.0332 C 37.6953 -9.0332 43.3594 -5.41992 44.6289 -3.66211 C 44.873 -3.4668 45.5566 -3.02734 45.8008 -2.92969 L 45.8008 -61.5234 C 43.3594 -64.4531 36.6211 -67.7246 28.7598 -67.7246 C 19.0918 -67.7246 10.3516 -62.5488 9.76562 -59.5215 L 9.76562 -4.49219 C 9.76562 -3.27148 10.5469 -2.63672 11.5723 -2.63672 C 12.4023 -2.63672 13.0371 -2.92969 13.4277 -3.36914 C 14.7949 -5.37109 20.8008 -9.0332 29.3457 -9.0332 Z M 65.0391 -9.0332 C 73.584 -9.0332 79.5898 -5.37109 80.957 -3.36914 C 81.3477 -2.97852 81.9824 -2.63672 82.8125 -2.63672 C 83.8379 -2.63672 84.6191 -3.27148 84.6191 -4.49219 L 84.6191 -59.5215 C 84.0332 -62.5488 75.293 -67.7246 65.625 -67.7246 C 57.7637 -67.7246 51.0254 -64.4531 48.584 -61.5234 L 48.584 -2.92969 C 48.8281 -2.97852 49.5117 -3.4668 49.7559 -3.66211 C 51.0254 -5.41992 56.6895 -9.0332 65.0391 -9.0332 Z"/>
  </g>
  <g id="Ultralight-S" transform="matrix(1 0 0 1 513.178 696)">
   <path d="M 28.7109 -9.7168 C 37.793 -9.7168 43.9941 -5.66406 45.0195 -3.71094 C 45.1172 -3.56445 45.3125 -3.41797 45.459 -3.32031 L 45.459 -62.207 C 43.0664 -64.4531 36.5234 -67.5293 28.6133 -67.5293 C 18.8477 -67.5293 9.86328 -62.5 9.76562 -59.7168 L 9.76562 -4.3457 C 9.76562 -3.61328 10.2539 -3.125 10.9863 -3.125 C 11.6211 -3.125 12.0605 -3.32031 12.2559 -3.66211 C 13.3301 -5.61523 19.5801 -9.7168 28.7109 -9.7168 Z M 64.3555 -9.7168 C 73.4863 -9.7168 79.7363 -5.61523 80.8105 -3.66211 C 81.0059 -3.32031 81.4453 -3.125 82.0801 -3.125 C 82.8125 -3.125 83.3008 -3.61328 83.3008 -4.3457 L 83.3008 -59.7168 C 83.2031 -62.5 74.2188 -67.5293 64.4531 -67.5293 C 56.543 -67.5293 50 -64.4531 47.6074 -62.207 L 47.6074 -3.32031 C 47.7539 -3.41797 47.9492 -3.56445 48.0469 -3.71094 C 49.0723 -5.66406 55.2734 -9.7168 64.3555 -9.7168 Z"/>
  </g>
 </g>
</svg>
