<?xml version="1.0" encoding="UTF-8"?>
<!--Generator: Apple Native CoreSVG 123-->
<!DOCTYPE svg
PUBLIC "-//W3C//DTD SVG 1.1//EN"
       "http://www.w3.org/Graphics/SVG/1.1/DTD/svg11.dtd">
<svg version="1.1" xmlns="http://www.w3.org/2000/svg" xmlns:xlink="http://www.w3.org/1999/xlink" width="3300" height="2200">
 <!--glyph: "uni10028F.medium", point size: 100.000000, font version: "Version 15.0d7e11", template writer version: "5"-->
 <g id="Notes">
  <rect height="2200" id="artboard" style="fill:white;opacity:1" width="3300" x="0" y="0"/>
  <line id="" style="fill:none;stroke:black;opacity:1;stroke-width:0.5;" x1="263" x2="3036" y1="292" y2="292"/>
  <text style="stroke:none;fill:black;font-family:-apple-system,&quot;SF Pro Display&quot;,&quot;SF Pro Text&quot;,Helvetica,sans-serif;font-weight:bold;" transform="matrix(1 0 0 1 263 322)">Weight/Scale Variations</text>
  <text style="stroke:none;fill:black;font-family:-apple-system,&quot;SF Pro Display&quot;,&quot;SF Pro Text&quot;,Helvetica,sans-serif;text-anchor:middle;" transform="matrix(1 0 0 1 559.711 322)">Ultralight</text>
  <text style="stroke:none;fill:black;font-family:-apple-system,&quot;SF Pro Display&quot;,&quot;SF Pro Text&quot;,Helvetica,sans-serif;text-anchor:middle;" transform="matrix(1 0 0 1 856.422 322)">Thin</text>
  <text style="stroke:none;fill:black;font-family:-apple-system,&quot;SF Pro Display&quot;,&quot;SF Pro Text&quot;,Helvetica,sans-serif;text-anchor:middle;" transform="matrix(1 0 0 1 1153.13 322)">Light</text>
  <text style="stroke:none;fill:black;font-family:-apple-system,&quot;SF Pro Display&quot;,&quot;SF Pro Text&quot;,Helvetica,sans-serif;text-anchor:middle;" transform="matrix(1 0 0 1 1449.84 322)">Regular</text>
  <text style="stroke:none;fill:black;font-family:-apple-system,&quot;SF Pro Display&quot;,&quot;SF Pro Text&quot;,Helvetica,sans-serif;text-anchor:middle;" transform="matrix(1 0 0 1 1746.56 322)">Medium</text>
  <text style="stroke:none;fill:black;font-family:-apple-system,&quot;SF Pro Display&quot;,&quot;SF Pro Text&quot;,Helvetica,sans-serif;text-anchor:middle;" transform="matrix(1 0 0 1 2043.27 322)">Semibold</text>
  <text style="stroke:none;fill:black;font-family:-apple-system,&quot;SF Pro Display&quot;,&quot;SF Pro Text&quot;,Helvetica,sans-serif;text-anchor:middle;" transform="matrix(1 0 0 1 2339.98 322)">Bold</text>
  <text style="stroke:none;fill:black;font-family:-apple-system,&quot;SF Pro Display&quot;,&quot;SF Pro Text&quot;,Helvetica,sans-serif;text-anchor:middle;" transform="matrix(1 0 0 1 2636.69 322)">Heavy</text>
  <text style="stroke:none;fill:black;font-family:-apple-system,&quot;SF Pro Display&quot;,&quot;SF Pro Text&quot;,Helvetica,sans-serif;text-anchor:middle;" transform="matrix(1 0 0 1 2933.4 322)">Black</text>
  <line id="" style="fill:none;stroke:black;opacity:1;stroke-width:0.5;" x1="263" x2="3036" y1="1903" y2="1903"/>
  <g id="" transform="matrix(1 0 0 1 263 1933)">
   <path d="M 9.24805 0.830078 C 13.5547 0.830078 17.1387 -2.74414 17.1387 -7.05078 C 17.1387 -11.3574 13.5449 -14.9316 9.23828 -14.9316 C 4.94141 -14.9316 1.36719 -11.3574 1.36719 -7.05078 C 1.36719 -2.74414 4.95117 0.830078 9.24805 0.830078 Z M 9.24805 -0.654297 C 5.70312 -0.654297 2.87109 -3.49609 2.87109 -7.05078 C 2.87109 -10.6055 5.69336 -13.4473 9.23828 -13.4473 C 12.793 -13.4473 15.6348 -10.6055 15.6445 -7.05078 C 15.6543 -3.49609 12.8027 -0.654297 9.24805 -0.654297 Z M 9.22852 -3.42773 C 9.69727 -3.42773 9.9707 -3.74023 9.9707 -4.25781 L 9.9707 -6.31836 L 12.1973 -6.31836 C 12.6953 -6.31836 13.0371 -6.57227 13.0371 -7.04102 C 13.0371 -7.51953 12.7148 -7.7832 12.1973 -7.7832 L 9.9707 -7.7832 L 9.9707 -10.0098 C 9.9707 -10.5273 9.69727 -10.8496 9.22852 -10.8496 C 8.75977 -10.8496 8.50586 -10.5078 8.50586 -10.0098 L 8.50586 -7.7832 L 6.29883 -7.7832 C 5.78125 -7.7832 5.44922 -7.51953 5.44922 -7.04102 C 5.44922 -6.57227 5.80078 -6.31836 6.29883 -6.31836 L 8.50586 -6.31836 L 8.50586 -4.25781 C 8.50586 -3.75977 8.75977 -3.42773 9.22852 -3.42773 Z"/>
  </g>
  <g id="" transform="matrix(1 0 0 1 281.506 1933)">
   <path d="M 11.709 2.91016 C 17.1582 2.91016 21.6699 -1.60156 21.6699 -7.05078 C 21.6699 -12.4902 17.1484 -17.0117 11.6992 -17.0117 C 6.25977 -17.0117 1.74805 -12.4902 1.74805 -7.05078 C 1.74805 -1.60156 6.26953 2.91016 11.709 2.91016 Z M 11.709 1.25 C 7.09961 1.25 3.41797 -2.44141 3.41797 -7.05078 C 3.41797 -11.6504 7.08984 -15.3516 11.6992 -15.3516 C 16.3086 -15.3516 20 -11.6504 20.0098 -7.05078 C 20.0195 -2.44141 16.3184 1.25 11.709 1.25 Z M 11.6895 -2.41211 C 12.207 -2.41211 12.5195 -2.77344 12.5195 -3.33984 L 12.5195 -6.23047 L 15.5762 -6.23047 C 16.123 -6.23047 16.5039 -6.51367 16.5039 -7.03125 C 16.5039 -7.55859 16.1426 -7.86133 15.5762 -7.86133 L 12.5195 -7.86133 L 12.5195 -10.9277 C 12.5195 -11.5039 12.207 -11.8555 11.6895 -11.8555 C 11.1719 -11.8555 10.8789 -11.4844 10.8789 -10.9277 L 10.8789 -7.86133 L 7.83203 -7.86133 C 7.26562 -7.86133 6.89453 -7.55859 6.89453 -7.03125 C 6.89453 -6.51367 7.28516 -6.23047 7.83203 -6.23047 L 10.8789 -6.23047 L 10.8789 -3.33984 C 10.8789 -2.79297 11.1719 -2.41211 11.6895 -2.41211 Z"/>
  </g>
  <g id="" transform="matrix(1 0 0 1 304.924 1933)">
   <path d="M 14.9707 5.67383 C 21.9336 5.67383 27.6953 -0.078125 27.6953 -7.04102 C 27.6953 -14.0039 21.9238 -19.7559 14.9609 -19.7559 C 8.00781 -19.7559 2.25586 -14.0039 2.25586 -7.04102 C 2.25586 -0.078125 8.01758 5.67383 14.9707 5.67383 Z M 14.9707 3.85742 C 8.93555 3.85742 4.08203 -1.00586 4.08203 -7.04102 C 4.08203 -13.0762 8.92578 -17.9395 14.9609 -17.9395 C 21.0059 -17.9395 25.8594 -13.0762 25.8691 -7.04102 C 25.8789 -1.00586 21.0156 3.85742 14.9707 3.85742 Z M 14.9512 -1.06445 C 15.5176 -1.06445 15.8691 -1.45508 15.8691 -2.06055 L 15.8691 -6.13281 L 20.1074 -6.13281 C 20.6934 -6.13281 21.1133 -6.46484 21.1133 -7.02148 C 21.1133 -7.59766 20.7227 -7.93945 20.1074 -7.93945 L 15.8691 -7.93945 L 15.8691 -12.1875 C 15.8691 -12.8027 15.5176 -13.1934 14.9512 -13.1934 C 14.3848 -13.1934 14.0625 -12.7832 14.0625 -12.1875 L 14.0625 -7.93945 L 9.83398 -7.93945 C 9.21875 -7.93945 8.80859 -7.59766 8.80859 -7.02148 C 8.80859 -6.46484 9.23828 -6.13281 9.83398 -6.13281 L 14.0625 -6.13281 L 14.0625 -2.06055 C 14.0625 -1.47461 14.3848 -1.06445 14.9512 -1.06445 Z"/>
  </g>
  <text style="stroke:none;fill:black;font-family:-apple-system,&quot;SF Pro Display&quot;,&quot;SF Pro Text&quot;,Helvetica,sans-serif;font-weight:bold;" transform="matrix(1 0 0 1 263 1953)">Design Variations</text>
  <text style="stroke:none;fill:black;font-family:-apple-system,&quot;SF Pro Display&quot;,&quot;SF Pro Text&quot;,Helvetica,sans-serif;" transform="matrix(1 0 0 1 263 1971)">Symbols are supported in up to nine weights and three scales.</text>
  <text style="stroke:none;fill:black;font-family:-apple-system,&quot;SF Pro Display&quot;,&quot;SF Pro Text&quot;,Helvetica,sans-serif;" transform="matrix(1 0 0 1 263 1989)">For optimal layout with text and other symbols, vertically align</text>
  <text style="stroke:none;fill:black;font-family:-apple-system,&quot;SF Pro Display&quot;,&quot;SF Pro Text&quot;,Helvetica,sans-serif;" transform="matrix(1 0 0 1 263 2007)">symbols with the adjacent text.</text>
  <rect height="14" id="" style="fill:#00AEEF;stroke:none;opacity:0.4;" width="3" x="776" y="1919"/>
  <g id="" transform="matrix(1 0 0 1 779 1933)">
   <path d="M 10.5273 0 L 12.373 0 L 7.17773 -14.0918 L 5.43945 -14.0918 L 0.244141 0 L 2.08984 0 L 3.50586 -4.0332 L 9.11133 -4.0332 Z M 6.2793 -11.9531 L 6.33789 -11.9531 L 8.59375 -5.52734 L 4.02344 -5.52734 Z"/>
  </g>
  <rect height="14" id="" style="fill:#00AEEF;stroke:none;opacity:0.4;" width="3" x="791.617" y="1919"/>
  <text style="stroke:none;fill:black;font-family:-apple-system,&quot;SF Pro Display&quot;,&quot;SF Pro Text&quot;,Helvetica,sans-serif;font-weight:bold;" transform="matrix(1 0 0 1 776 1953)">Margins</text>
  <text style="stroke:none;fill:black;font-family:-apple-system,&quot;SF Pro Display&quot;,&quot;SF Pro Text&quot;,Helvetica,sans-serif;" transform="matrix(1 0 0 1 776 1971)">Leading and trailing margins on the left and right side of each symbol</text>
  <text style="stroke:none;fill:black;font-family:-apple-system,&quot;SF Pro Display&quot;,&quot;SF Pro Text&quot;,Helvetica,sans-serif;" transform="matrix(1 0 0 1 776 1989)">can be adjusted by modifying the width of the blue rectangles.</text>
  <text style="stroke:none;fill:black;font-family:-apple-system,&quot;SF Pro Display&quot;,&quot;SF Pro Text&quot;,Helvetica,sans-serif;" transform="matrix(1 0 0 1 776 2007)">Modifications are automatically applied proportionally to all</text>
  <text style="stroke:none;fill:black;font-family:-apple-system,&quot;SF Pro Display&quot;,&quot;SF Pro Text&quot;,Helvetica,sans-serif;" transform="matrix(1 0 0 1 776 2025)">scales and weights.</text>
  <g id="" transform="matrix(1 0 0 1 1289 1933)">
   <path d="M 2.83203 3.11523 L 4.375 4.6582 C 5.22461 5.48828 6.19141 5.41992 7.06055 4.46289 L 17.2754 -6.66016 C 17.7051 -6.36719 18.0957 -6.37695 18.5645 -6.47461 L 19.6094 -6.68945 L 20.3027 -5.99609 L 20.2539 -5.47852 C 20.1855 -4.95117 20.3516 -4.53125 20.8496 -4.0332 L 21.6602 -3.22266 C 22.168 -2.71484 22.8223 -2.68555 23.3008 -3.16406 L 26.5527 -6.41602 C 27.0312 -6.89453 27.0117 -7.54883 26.5039 -8.05664 L 25.6836 -8.87695 C 25.1855 -9.375 24.7754 -9.55078 24.2383 -9.47266 L 23.7109 -9.41406 L 23.0566 -10.0781 L 23.3398 -11.2207 C 23.4863 -11.7871 23.3398 -12.2559 22.7148 -12.8613 L 20.3027 -15.2539 C 16.7578 -18.7793 12.2266 -18.6719 9.11133 -15.5371 C 8.69141 -15.1074 8.64258 -14.5215 8.91602 -14.0918 C 9.15039 -13.7207 9.62891 -13.4961 10.2734 -13.6621 C 11.7871 -14.043 13.3008 -13.9258 14.7852 -12.9199 L 14.1602 -11.3379 C 13.9258 -10.752 13.9453 -10.2734 14.1797 -9.83398 L 3.01758 0.439453 C 2.08008 1.30859 1.97266 2.25586 2.83203 3.11523 Z M 10.6738 -15.1465 C 13.3398 -17.1387 16.6504 -16.8262 19.0527 -14.4141 L 21.6797 -11.8066 C 21.9141 -11.5723 21.9434 -11.3867 21.8848 -11.0938 L 21.5039 -9.53125 L 23.0762 -7.95898 L 24.043 -8.04688 C 24.3262 -8.07617 24.4141 -8.05664 24.6387 -7.83203 L 25.2637 -7.20703 L 22.5098 -4.46289 L 21.8848 -5.07812 C 21.6602 -5.30273 21.6406 -5.40039 21.6699 -5.68359 L 21.7578 -6.64062 L 20.1953 -8.20312 L 18.5742 -7.89062 C 18.291 -7.83203 18.1445 -7.83203 17.9102 -8.07617 L 15.7324 -10.2539 C 15.5078 -10.4883 15.4785 -10.625 15.6055 -10.9473 L 16.5527 -13.2227 C 14.9512 -14.7559 12.8418 -15.6055 10.8008 -14.9512 C 10.7129 -14.9219 10.6445 -14.9414 10.6152 -14.9805 C 10.5859 -15.0293 10.5859 -15.0781 10.6738 -15.1465 Z M 4.10156 2.41211 C 3.61328 1.91406 3.78906 1.61133 4.12109 1.30859 L 15.0781 -8.80859 L 16.3086 -7.57812 L 6.15234 3.34961 C 5.84961 3.68164 5.46875 3.7793 5.06836 3.37891 Z"/>
  </g>
  <text style="stroke:none;fill:black;font-family:-apple-system,&quot;SF Pro Display&quot;,&quot;SF Pro Text&quot;,Helvetica,sans-serif;font-weight:bold;" transform="matrix(1 0 0 1 1289 1953)">Exporting</text>
  <text style="stroke:none;fill:black;font-family:-apple-system,&quot;SF Pro Display&quot;,&quot;SF Pro Text&quot;,Helvetica,sans-serif;" transform="matrix(1 0 0 1 1289 1971)">Symbols should be outlined when exporting to ensure the</text>
  <text style="stroke:none;fill:black;font-family:-apple-system,&quot;SF Pro Display&quot;,&quot;SF Pro Text&quot;,Helvetica,sans-serif;" transform="matrix(1 0 0 1 1289 1989)">design is preserved when submitting to Xcode.</text>
  <text id="template-version" style="stroke:none;fill:black;font-family:-apple-system,&quot;SF Pro Display&quot;,&quot;SF Pro Text&quot;,Helvetica,sans-serif;text-anchor:end;" transform="matrix(1 0 0 1 3036 1933)">Template v.1.0</text>
  <text style="stroke:none;fill:black;font-family:-apple-system,&quot;SF Pro Display&quot;,&quot;SF Pro Text&quot;,Helvetica,sans-serif;text-anchor:end;" transform="matrix(1 0 0 1 3036 1951)">Generated from forward.end</text>
  <text style="stroke:none;fill:black;font-family:-apple-system,&quot;SF Pro Display&quot;,&quot;SF Pro Text&quot;,Helvetica,sans-serif;text-anchor:end;" transform="matrix(1 0 0 1 3036 1969)">Typeset at 100 points</text>
  <text style="stroke:none;fill:black;font-family:-apple-system,&quot;SF Pro Display&quot;,&quot;SF Pro Text&quot;,Helvetica,sans-serif;" transform="matrix(1 0 0 1 263 726)">Small</text>
  <text style="stroke:none;fill:black;font-family:-apple-system,&quot;SF Pro Display&quot;,&quot;SF Pro Text&quot;,Helvetica,sans-serif;" transform="matrix(1 0 0 1 263 1156)">Medium</text>
  <text style="stroke:none;fill:black;font-family:-apple-system,&quot;SF Pro Display&quot;,&quot;SF Pro Text&quot;,Helvetica,sans-serif;" transform="matrix(1 0 0 1 263 1586)">Large</text>
 </g>
 <g id="Guides">
  <g id="H-reference" style="fill:#27AAE1;stroke:none;" transform="matrix(1 0 0 1 339 696)">
   <path d="M 54.9316 0 L 57.666 0 L 30.5664 -70.459 L 28.0762 -70.459 L 0.976562 0 L 3.66211 0 L 12.9395 -24.4629 L 45.7031 -24.4629 Z M 29.1992 -67.0898 L 29.4434 -67.0898 L 44.8242 -26.709 L 13.8184 -26.709 Z"/>
  </g>
  <line id="Baseline-S" style="fill:none;stroke:#27AAE1;opacity:1;stroke-width:0.577;" x1="263" x2="3036" y1="696" y2="696"/>
  <line id="Capline-S" style="fill:none;stroke:#27AAE1;opacity:1;stroke-width:0.577;" x1="263" x2="3036" y1="625.541" y2="625.541"/>
  <g id="H-reference" style="fill:#27AAE1;stroke:none;" transform="matrix(1 0 0 1 339 1126)">
   <path d="M 54.9316 0 L 57.666 0 L 30.5664 -70.459 L 28.0762 -70.459 L 0.976562 0 L 3.66211 0 L 12.9395 -24.4629 L 45.7031 -24.4629 Z M 29.1992 -67.0898 L 29.4434 -67.0898 L 44.8242 -26.709 L 13.8184 -26.709 Z"/>
  </g>
  <line id="Baseline-M" style="fill:none;stroke:#27AAE1;opacity:1;stroke-width:0.577;" x1="263" x2="3036" y1="1126" y2="1126"/>
  <line id="Capline-M" style="fill:none;stroke:#27AAE1;opacity:1;stroke-width:0.577;" x1="263" x2="3036" y1="1055.54" y2="1055.54"/>
  <g id="H-reference" style="fill:#27AAE1;stroke:none;" transform="matrix(1 0 0 1 339 1556)">
   <path d="M 54.9316 0 L 57.666 0 L 30.5664 -70.459 L 28.0762 -70.459 L 0.976562 0 L 3.66211 0 L 12.9395 -24.4629 L 45.7031 -24.4629 Z M 29.1992 -67.0898 L 29.4434 -67.0898 L 44.8242 -26.709 L 13.8184 -26.709 Z"/>
  </g>
  <line id="Baseline-L" style="fill:none;stroke:#27AAE1;opacity:1;stroke-width:0.577;" x1="263" x2="3036" y1="1556" y2="1556"/>
  <line id="Capline-L" style="fill:none;stroke:#27AAE1;opacity:1;stroke-width:0.577;" x1="263" x2="3036" y1="1485.54" y2="1485.54"/>
  <rect height="119.336" id="left-margin" style="fill:#00AEEF;stroke:none;opacity:0.4;" width="12.4512" x="1399.67" y="1030.79"/>
  <rect height="119.336" id="right-margin" style="fill:#00AEEF;stroke:none;opacity:0.4;" width="12.4512" x="1487.56" y="1030.79"/>
 </g>
 <g id="Symbols">
  <g id="Black-L" transform="matrix(1 0 0 1 2855.74 1556)">
   <path d="M 29.834 19.4824 C 33.252 19.4824 36.4258 18.7012 39.7461 16.748 L 105.273 -21.4844 C 110.059 -24.3164 113.623 -27.6855 114.697 -32.373 L 114.697 9.57031 C 114.697 16.4062 119.873 21.4844 126.953 21.4844 C 134.082 21.4844 139.258 16.4062 139.258 9.57031 L 139.258 -80.0293 C 139.258 -86.8164 134.082 -91.8945 126.953 -91.8945 C 119.873 -91.8945 114.697 -86.8164 114.697 -80.0293 L 114.697 -38.2812 C 113.672 -42.8223 110.156 -45.9961 105.273 -48.877 L 39.7461 -87.1582 C 36.377 -89.0625 33.2031 -89.8438 29.6875 -89.8438 C 22.2168 -89.8438 16.0645 -84.3262 16.0645 -74.5605 L 16.0645 4.19922 C 16.0645 13.916 22.3633 19.4824 29.834 19.4824 Z M 36.6211 -4.3457 C 36.1816 -4.3457 36.0352 -4.58984 36.0352 -4.98047 L 36.0352 -65.4297 C 36.0352 -65.8203 36.1816 -66.0645 36.6699 -66.0645 C 36.8652 -66.0645 37.1094 -66.0156 37.3535 -65.8203 L 88.8672 -35.9375 C 89.1602 -35.791 89.3066 -35.6445 89.3066 -35.2539 C 89.3066 -34.8633 89.1113 -34.668 88.8672 -34.5215 L 37.3535 -4.54102 C 37.1582 -4.44336 36.8652 -4.3457 36.6211 -4.3457 Z"/>
  </g>
  <g id="Heavy-L" transform="matrix(1 0 0 1 2562.45 1556)">
   <path d="M 28.5645 18.0664 C 31.7383 18.0664 34.668 17.2363 37.7441 15.4785 L 103.027 -22.7539 C 107.373 -25.293 110.547 -28.3691 111.523 -32.4707 L 111.523 10.0586 C 111.523 15.8203 115.918 20.166 121.973 20.166 C 127.979 20.166 132.422 15.8203 132.422 10.0586 L 132.422 -80.4688 C 132.422 -86.2793 127.979 -90.5762 121.973 -90.5762 C 115.918 -90.5762 111.523 -86.2793 111.523 -80.4688 L 111.523 -38.1348 C 110.547 -42.1387 107.471 -45.0195 103.027 -47.6562 L 37.7441 -85.8398 C 34.6191 -87.6465 31.7383 -88.4277 28.4668 -88.4277 C 21.6797 -88.4277 16.0645 -83.3984 16.0645 -74.3652 L 16.0645 4.00391 C 16.0645 12.9883 21.7773 18.0664 28.5645 18.0664 Z M 34.2773 -2.44141 C 33.7402 -2.44141 33.3496 -2.7832 33.3496 -3.51562 L 33.3496 -66.8945 C 33.3496 -67.5781 33.7402 -67.9199 34.3262 -67.9199 C 34.5703 -67.9199 34.8633 -67.8711 35.3027 -67.627 L 89.0625 -36.2305 C 89.502 -35.9863 89.7461 -35.7422 89.7461 -35.2539 C 89.7461 -34.7168 89.4531 -34.4727 89.0625 -34.1797 L 35.3027 -2.7832 C 34.9121 -2.58789 34.5703 -2.44141 34.2773 -2.44141 Z"/>
  </g>
  <g id="Bold-L" transform="matrix(1 0 0 1 2269.57 1556)">
   <path d="M 27.1484 16.4551 C 30.0781 16.4551 32.7148 15.625 35.498 14.0137 L 100.537 -24.1211 C 104.395 -26.416 107.031 -29.1504 107.91 -32.6172 L 107.91 10.5469 C 107.91 15.2344 111.572 18.75 116.357 18.75 C 121.143 18.75 124.756 15.2344 124.756 10.5469 L 124.756 -80.957 C 124.756 -85.6445 121.143 -89.1113 116.357 -89.1113 C 111.572 -89.1113 107.91 -85.6445 107.91 -80.957 L 107.91 -37.9395 C 107.08 -41.3574 104.492 -43.9453 100.537 -46.2891 L 35.498 -84.4238 C 32.666 -86.0352 30.0293 -86.8652 27.0996 -86.8652 C 21.0938 -86.8652 16.0645 -82.373 16.0645 -74.1699 L 16.0645 3.75977 C 16.0645 11.9629 21.1426 16.4551 27.1484 16.4551 Z M 31.6406 -0.341797 C 30.957 -0.341797 30.3223 -0.830078 30.3223 -1.85547 L 30.3223 -68.5547 C 30.3223 -69.5801 30.957 -70.0195 31.6895 -70.0195 C 32.0312 -70.0195 32.4219 -69.9219 32.959 -69.6289 L 89.2578 -36.5723 C 89.8926 -36.1816 90.2344 -35.8887 90.2344 -35.2539 C 90.2344 -34.5703 89.8438 -34.2285 89.2578 -33.8379 L 32.959 -0.78125 C 32.4707 -0.488281 32.0312 -0.341797 31.6406 -0.341797 Z"/>
  </g>
  <g id="Semibold-L" transform="matrix(1 0 0 1 1975.47 1556)">
   <path d="M 26.1719 15.3809 C 28.9062 15.3809 31.3477 14.5508 33.9355 12.9883 L 98.8281 -25.0488 C 102.344 -27.1484 104.688 -29.6387 105.469 -32.7148 L 105.469 10.8887 C 105.469 14.7949 108.545 17.7246 112.5 17.7246 C 116.455 17.7246 119.531 14.7949 119.531 10.8887 L 119.531 -81.2988 C 119.531 -85.1562 116.455 -88.1348 112.5 -88.1348 C 108.545 -88.1348 105.469 -85.1562 105.469 -81.2988 L 105.469 -37.793 C 104.688 -40.8203 102.393 -43.2129 98.8281 -45.3125 L 33.9355 -83.3984 C 31.2988 -84.9609 28.9062 -85.7422 26.1719 -85.7422 C 20.7031 -85.7422 16.0645 -81.6406 16.0645 -74.0234 L 16.0645 3.61328 C 16.0645 11.2305 20.7031 15.3809 26.1719 15.3809 Z M 29.834 1.07422 C 29.0527 1.07422 28.2715 0.537109 28.2715 -0.732422 L 28.2715 -69.6777 C 28.2715 -70.9473 29.0527 -71.4844 29.834 -71.4844 C 30.2734 -71.4844 30.7129 -71.3379 31.3477 -70.9961 L 89.3555 -36.8164 C 90.1855 -36.377 90.5762 -35.9863 90.5762 -35.2051 C 90.5762 -34.4727 90.1367 -34.0332 89.3555 -33.5938 L 31.3477 0.585938 C 30.7617 0.927734 30.2734 1.07422 29.834 1.07422 Z"/>
  </g>
  <g id="Medium-L" transform="matrix(1 0 0 1 1680.76 1556)">
   <path d="M 25.4395 14.5508 C 28.0273 14.5508 30.3223 13.7207 32.8125 12.2559 L 97.5098 -25.7812 C 100.83 -27.7344 102.881 -30.0293 103.613 -32.7637 L 103.613 11.1816 C 103.613 14.4531 106.25 16.9922 109.57 16.9922 C 112.891 16.9922 115.527 14.4531 115.527 11.1816 L 115.527 -81.543 C 115.527 -84.8633 112.891 -87.3535 109.57 -87.3535 C 106.25 -87.3535 103.613 -84.8633 103.613 -81.543 L 103.613 -37.6953 C 102.881 -40.4297 100.83 -42.627 97.5098 -44.6289 L 32.8125 -82.666 C 30.2734 -84.082 28.0273 -84.9121 25.4395 -84.9121 C 20.3613 -84.9121 16.0645 -81.1035 16.0645 -73.9258 L 16.0645 3.51562 C 16.0645 10.6934 20.4102 14.5508 25.4395 14.5508 Z M 28.4668 2.19727 C 27.5879 2.19727 26.709 1.5625 26.709 0.146484 L 26.709 -70.5566 C 26.709 -71.9727 27.5879 -72.5586 28.4668 -72.5586 C 28.9551 -72.5586 29.4434 -72.4609 30.127 -72.0215 L 89.4531 -37.0117 C 90.3809 -36.4746 90.8203 -36.084 90.8203 -35.2051 C 90.8203 -34.375 90.332 -33.8867 89.4531 -33.3984 L 30.127 1.61133 C 29.4434 2.05078 28.9551 2.19727 28.4668 2.19727 Z"/>
  </g>
  <g id="Regular-L" transform="matrix(1 0 0 1 1386.66 1556)">
   <path d="M 24.5117 13.4277 C 26.8555 13.4277 28.9551 12.5977 31.25 11.2793 L 95.8008 -26.709 C 98.7793 -28.4668 100.488 -30.5176 101.172 -32.8613 L 101.172 11.5234 C 101.172 14.0137 103.223 15.9668 105.762 15.9668 C 108.252 15.9668 110.303 14.0137 110.303 11.5234 L 110.303 -81.8848 C 110.303 -84.4238 108.252 -86.377 105.762 -86.377 C 103.223 -86.377 101.172 -84.4238 101.172 -81.8848 L 101.172 -37.5977 C 100.488 -39.8926 98.7793 -41.8945 95.8008 -43.7012 L 31.25 -81.6895 C 28.9062 -83.0078 26.8555 -83.8379 24.5117 -83.8379 C 19.9707 -83.8379 16.0645 -80.4199 16.0645 -73.7793 L 16.0645 3.36914 C 16.0645 10.0098 19.9707 13.4277 24.5117 13.4277 Z M 26.709 3.61328 C 25.6836 3.61328 24.6582 2.92969 24.6582 1.26953 L 24.6582 -71.6797 C 24.6582 -73.3398 25.6836 -74.0234 26.709 -74.0234 C 27.1973 -74.0234 27.7344 -73.877 28.5645 -73.3887 L 89.5996 -37.207 C 90.625 -36.6211 91.1621 -36.1816 91.1621 -35.2051 C 91.1621 -34.2773 90.625 -33.7402 89.5996 -33.2031 L 28.5645 2.97852 C 27.7832 3.4668 27.1973 3.61328 26.709 3.61328 Z"/>
  </g>
  <g id="Light-L" transform="matrix(1 0 0 1 1092.05 1556)">
   <path d="M 23.6328 12.2559 C 25.7324 12.2559 27.7832 11.4258 29.7363 10.3027 L 94.7266 -27.9785 C 97.0703 -29.3457 98.584 -31.0059 99.1699 -33.0078 L 99.1699 11.377 C 99.1699 13.2812 100.732 14.7949 102.637 14.7949 C 104.541 14.7949 106.104 13.2812 106.104 11.377 L 106.104 -81.7871 C 106.104 -83.6914 104.541 -85.1562 102.637 -85.1562 C 100.732 -85.1562 99.1699 -83.6914 99.1699 -81.7871 L 99.1699 -37.4512 C 98.584 -39.4043 97.1191 -41.0645 94.7266 -42.4805 L 29.7363 -80.7129 C 27.7344 -81.8359 25.7324 -82.7148 23.6328 -82.7148 C 19.6289 -82.7148 16.0645 -79.6875 16.0645 -73.6328 L 16.0645 3.22266 C 16.0645 9.27734 19.6289 12.2559 23.6328 12.2559 Z M 25.0488 4.93164 C 23.9746 4.93164 22.6074 4.15039 22.6074 1.95312 L 22.6074 -72.3633 C 22.6074 -74.5605 23.9746 -75.3418 25.0488 -75.3418 C 25.6836 -75.3418 26.3184 -75.1953 27.3926 -74.6094 L 89.9902 -37.5977 C 91.2109 -36.8652 91.8457 -36.3281 91.8457 -35.2539 C 91.8457 -34.1797 91.1621 -33.4961 89.9902 -32.8613 L 27.3926 4.15039 C 26.3672 4.73633 25.6836 4.93164 25.0488 4.93164 Z"/>
  </g>
  <g id="Thin-L" transform="matrix(1 0 0 1 798.121 1556)">
   <path d="M 22.4609 10.7422 C 24.2676 10.7422 26.2207 9.86328 27.6855 8.98438 L 93.3105 -29.5898 C 94.873 -30.5176 95.9961 -31.7383 96.5332 -33.252 L 96.5332 11.2305 C 96.5332 12.3535 97.4609 13.2324 98.5352 13.2324 C 99.6582 13.2324 100.537 12.3535 100.537 11.2305 L 100.537 -81.6406 C 100.537 -82.7148 99.6582 -83.5938 98.5352 -83.5938 C 97.4609 -83.5938 96.5332 -82.7148 96.5332 -81.6406 L 96.5332 -37.3047 C 96.0449 -38.7695 94.9219 -39.8926 93.3105 -40.8203 L 27.6855 -79.4434 C 26.123 -80.3223 24.2676 -81.2012 22.4609 -81.2012 C 19.2383 -81.2012 16.0645 -78.7598 16.0645 -73.4375 L 16.0645 2.97852 C 16.0645 8.34961 19.2383 10.7422 22.4609 10.7422 Z M 22.9004 6.64062 C 21.6797 6.64062 19.8242 5.71289 19.8242 2.83203 L 19.8242 -73.291 C 19.8242 -76.1719 21.6797 -77.0996 22.9004 -77.0996 C 23.6816 -77.0996 24.4629 -76.9531 25.8301 -76.1719 L 90.5273 -38.0371 C 91.9922 -37.207 92.7246 -36.5234 92.7246 -35.2539 C 92.7246 -34.0332 91.9434 -33.2031 90.5273 -32.4219 L 25.8301 5.71289 C 24.5117 6.49414 23.6816 6.64062 22.9004 6.64062 Z"/>
  </g>
  <g id="Ultralight-L" transform="matrix(1 0 0 1 502.851 1556)">
   <path d="M 21.875 9.96094 C 23.4863 9.96094 25.3906 9.0332 26.6602 8.30078 L 92.5781 -30.4688 C 93.75 -31.1523 94.7266 -32.0801 95.166 -33.3984 L 95.166 11.1816 C 95.166 11.8652 95.752 12.4512 96.4355 12.4512 C 97.1191 12.4512 97.6562 11.8652 97.6562 11.1816 L 97.6562 -81.543 C 97.6562 -82.2266 97.1191 -82.8125 96.4355 -82.8125 C 95.752 -82.8125 95.166 -82.2266 95.166 -81.543 L 95.166 -37.207 C 94.7266 -38.4277 93.7988 -39.3066 92.5781 -40.0391 L 26.6602 -78.8086 C 25.3418 -79.541 23.4863 -80.4199 21.875 -80.4199 C 18.9941 -80.4199 16.0645 -78.3203 16.0645 -73.3398 L 16.0645 2.88086 C 16.0645 7.86133 18.9941 9.96094 21.875 9.96094 Z M 21.8262 7.51953 C 20.459 7.51953 18.457 6.54297 18.457 3.32031 L 18.457 -73.7793 C 18.457 -77.002 20.459 -78.0273 21.8262 -78.0273 C 22.6562 -78.0273 23.4863 -77.832 25 -77.002 L 90.8203 -38.2812 C 92.4316 -37.3535 93.1641 -36.6211 93.1641 -35.2539 C 93.1641 -33.9355 92.334 -33.0078 90.8203 -32.1777 L 25 6.54297 C 23.584 7.37305 22.6562 7.51953 21.8262 7.51953 Z"/>
  </g>
  <g id="Black-M" transform="matrix(1 0 0 1 2869.75 1126)">
   <path d="M 24.3164 8.49609 C 27.1973 8.49609 29.9805 7.86133 32.666 6.29883 L 84.0332 -23.584 C 87.9395 -25.8789 91.2109 -28.7109 92.1387 -32.9102 L 92.1387 -1.17188 C 92.1387 5.17578 96.875 9.81445 103.467 9.81445 C 110.107 9.81445 114.844 5.17578 114.844 -1.17188 L 114.844 -69.2871 C 114.844 -75.6348 110.107 -80.2734 103.467 -80.2734 C 96.875 -80.2734 92.1387 -75.6348 92.1387 -69.2871 L 92.1387 -37.7441 C 91.2109 -41.8457 88.0859 -44.4336 84.0332 -46.8262 L 32.666 -76.6602 C 29.9316 -78.2227 27.1484 -78.8574 24.2188 -78.8574 C 17.7734 -78.8574 12.4512 -74.1699 12.4512 -65.8691 L 12.4512 -4.54102 C 12.4512 3.71094 17.9199 8.49609 24.3164 8.49609 Z M 30.6641 -13.0859 C 30.4688 -13.0859 30.4199 -13.2324 30.4199 -13.3789 L 30.4199 -56.9824 C 30.4199 -57.1777 30.4688 -57.2754 30.7129 -57.2754 C 30.8594 -57.2754 30.957 -57.3242 31.1523 -57.1777 L 68.8477 -35.5469 C 68.9453 -35.498 68.9453 -35.4492 68.9453 -35.2539 C 68.9453 -35.1074 68.8965 -34.9609 68.8477 -34.9121 L 31.1523 -13.2324 C 31.0059 -13.1348 30.8594 -13.0859 30.6641 -13.0859 Z"/>
  </g>
  <g id="Heavy-M" transform="matrix(1 0 0 1 2576.22 1126)">
   <path d="M 23.1934 7.22656 C 25.8789 7.22656 28.3691 6.5918 30.9082 5.12695 L 81.8359 -24.6094 C 85.498 -26.709 88.3301 -29.3457 89.1602 -33.0078 L 89.1602 -0.634766 C 89.1602 4.73633 93.2129 8.74023 98.8281 8.74023 C 104.443 8.74023 108.496 4.73633 108.496 -0.634766 L 108.496 -69.8242 C 108.496 -75.1953 104.443 -79.1504 98.8281 -79.1504 C 93.2129 -79.1504 89.1602 -75.1953 89.1602 -69.8242 L 89.1602 -37.5977 C 88.3301 -41.1621 85.5957 -43.6035 81.8359 -45.8008 L 30.9082 -75.5371 C 28.3203 -77.002 25.8301 -77.6367 23.0957 -77.6367 C 17.2852 -77.6367 12.4512 -73.3398 12.4512 -65.7227 L 12.4512 -4.6875 C 12.4512 2.88086 17.3828 7.22656 23.1934 7.22656 Z M 28.5156 -11.377 C 28.2227 -11.377 28.0273 -11.5723 28.0273 -11.9629 L 28.0273 -58.4473 C 28.0273 -58.7891 28.2227 -58.9844 28.5645 -58.9844 C 28.7598 -58.9844 28.9062 -58.9844 29.1504 -58.8379 L 68.9453 -35.791 C 69.1895 -35.6445 69.2871 -35.5469 69.2871 -35.2539 C 69.2871 -34.9609 69.1406 -34.7656 68.9453 -34.668 L 29.1504 -11.5723 C 28.9551 -11.4746 28.7598 -11.377 28.5156 -11.377 Z"/>
  </g>
  <g id="Bold-M" transform="matrix(1 0 0 1 2283.07 1126)">
   <path d="M 21.9238 5.81055 C 24.3652 5.81055 26.5625 5.17578 28.9062 3.80859 L 79.4434 -25.7812 C 82.7637 -27.6855 85.1074 -30.0293 85.8398 -33.1055 L 85.8398 -0.0488281 C 85.8398 4.24805 89.1602 7.4707 93.6035 7.4707 C 98.0957 7.4707 101.367 4.24805 101.367 -0.0488281 L 101.367 -70.3613 C 101.367 -74.6582 98.0957 -77.9297 93.6035 -77.9297 C 89.1602 -77.9297 85.8398 -74.6582 85.8398 -70.3613 L 85.8398 -37.4512 C 85.1074 -40.4297 82.8125 -42.6758 79.4434 -44.6289 L 28.9062 -74.2188 C 26.5137 -75.5859 24.3164 -76.2207 21.8262 -76.2207 C 16.6992 -76.2207 12.4512 -72.4121 12.4512 -65.5273 L 12.4512 -4.88281 C 12.4512 1.95312 16.7969 5.81055 21.9238 5.81055 Z M 26.123 -9.47266 C 25.6836 -9.47266 25.3418 -9.76562 25.3418 -10.3516 L 25.3418 -60.0586 C 25.3418 -60.6445 25.6836 -60.9375 26.1719 -60.9375 C 26.3672 -60.9375 26.6602 -60.8398 26.9531 -60.6445 L 69.043 -36.084 C 69.4336 -35.8398 69.6289 -35.6445 69.6289 -35.2539 C 69.6289 -34.8145 69.3848 -34.5703 69.043 -34.375 L 26.9531 -9.76562 C 26.6602 -9.57031 26.3672 -9.47266 26.123 -9.47266 Z"/>
  </g>
  <g id="Semibold-M" transform="matrix(1 0 0 1 1988.8 1126)">
   <path d="M 21.0449 4.83398 C 23.291 4.83398 25.293 4.19922 27.4902 2.92969 L 77.7832 -26.5625 C 80.8594 -28.3691 82.8613 -30.5176 83.5449 -33.2031 L 83.5449 0.341797 C 83.5449 3.90625 86.3281 6.64062 89.9902 6.64062 C 93.7012 6.64062 96.4844 3.90625 96.4844 0.341797 L 96.4844 -70.752 C 96.4844 -74.3652 93.7012 -77.0508 89.9902 -77.0508 C 86.3281 -77.0508 83.5449 -74.3652 83.5449 -70.752 L 83.5449 -37.3047 C 82.8613 -39.9414 80.9082 -41.9922 77.7832 -43.8477 L 27.4902 -73.3398 C 25.293 -74.6094 23.291 -75.2441 20.9961 -75.2441 C 16.3086 -75.2441 12.4512 -71.7773 12.4512 -65.4297 L 12.4512 -4.98047 C 12.4512 1.31836 16.3574 4.83398 21.0449 4.83398 Z M 24.4629 -8.1543 C 23.9258 -8.1543 23.4863 -8.54492 23.4863 -9.27734 L 23.4863 -61.1328 C 23.4863 -61.8652 23.9258 -62.207 24.5117 -62.207 C 24.7559 -62.207 25.0488 -62.1582 25.4395 -61.9141 L 69.0918 -36.2305 C 69.6289 -35.9863 69.873 -35.7422 69.873 -35.2051 C 69.873 -34.7168 69.5801 -34.4727 69.0918 -34.1797 L 25.4395 -8.49609 C 25.0977 -8.30078 24.7559 -8.1543 24.4629 -8.1543 Z"/>
  </g>
  <g id="Medium-M" transform="matrix(1 0 0 1 1693.94 1126)">
   <path d="M 20.3613 4.10156 C 22.5098 4.10156 24.3652 3.4668 26.4648 2.24609 L 76.5137 -27.1484 C 79.3945 -28.8574 81.2012 -30.8594 81.7871 -33.252 L 81.7871 0.634766 C 81.7871 3.66211 84.1797 5.95703 87.2559 5.95703 C 90.3809 5.95703 92.7734 3.66211 92.7734 0.634766 L 92.7734 -71.0449 C 92.7734 -74.0723 90.3809 -76.3672 87.2559 -76.3672 C 84.1797 -76.3672 81.7871 -74.0723 81.7871 -71.0449 L 81.7871 -37.207 C 81.2012 -39.5996 79.4434 -41.5039 76.5137 -43.2617 L 26.4648 -72.6562 C 24.3164 -73.877 22.5098 -74.5117 20.3125 -74.5117 C 16.0156 -74.5117 12.4512 -71.2891 12.4512 -65.332 L 12.4512 -5.07812 C 12.4512 0.878906 16.0645 4.10156 20.3613 4.10156 Z M 23.2422 -7.17773 C 22.6074 -7.17773 22.1191 -7.56836 22.1191 -8.44727 L 22.1191 -61.9629 C 22.1191 -62.8418 22.6074 -63.2324 23.2422 -63.2324 C 23.5352 -63.2324 23.877 -63.1348 24.3164 -62.8906 L 69.1406 -36.377 C 69.7266 -36.084 70.0195 -35.791 70.0195 -35.2051 C 70.0195 -34.668 69.7266 -34.3262 69.1406 -34.0332 L 24.3164 -7.51953 C 23.877 -7.27539 23.5352 -7.17773 23.2422 -7.17773 Z"/>
  </g>
  <g id="Regular-M" transform="matrix(1 0 0 1 1399.67 1126)">
   <path d="M 19.4824 3.17383 C 21.4844 3.17383 23.0957 2.53906 25.0977 1.36719 L 74.8535 -27.9297 C 77.4902 -29.4922 79.0039 -31.2988 79.541 -33.3008 L 79.541 1.07422 C 79.541 3.36914 81.4453 5.12695 83.7402 5.12695 C 86.0352 5.12695 87.8906 3.36914 87.8906 1.07422 L 87.8906 -71.4355 C 87.8906 -73.7305 86.0352 -75.5371 83.7402 -75.5371 C 81.4453 -75.5371 79.541 -73.7305 79.541 -71.4355 L 79.541 -37.1094 C 79.0039 -39.1113 77.4902 -40.918 74.8535 -42.4805 L 25.0977 -71.7773 C 23.0957 -72.9492 21.4844 -73.584 19.4824 -73.584 C 15.625 -73.584 12.4512 -70.6543 12.4512 -65.1855 L 12.4512 -5.22461 C 12.4512 0.244141 15.625 3.17383 19.4824 3.17383 Z M 21.6309 -5.85938 C 20.8984 -5.85938 20.2637 -6.34766 20.2637 -7.32422 L 20.2637 -63.0859 C 20.2637 -64.0625 20.8984 -64.5508 21.6309 -64.5508 C 21.9238 -64.5508 22.3145 -64.4043 22.8027 -64.1113 L 69.2383 -36.5723 C 69.9219 -36.1816 70.2637 -35.8887 70.2637 -35.2051 C 70.2637 -34.5703 69.873 -34.2285 69.2383 -33.8379 L 22.8027 -6.29883 C 22.3145 -6.00586 21.9238 -5.85938 21.6309 -5.85938 Z"/>
  </g>
  <g id="Light-M" transform="matrix(1 0 0 1 1104.84 1126)">
   <path d="M 18.7012 2.09961 C 20.459 2.09961 22.0703 1.46484 23.7305 0.488281 L 73.9258 -29.0527 C 75.9766 -30.2734 77.2461 -31.7383 77.7344 -33.4473 L 77.7344 0.976562 C 77.7344 2.68555 79.1992 4.05273 80.957 4.05273 C 82.666 4.05273 84.1309 2.68555 84.1309 0.976562 L 84.1309 -71.3379 C 84.1309 -73.0957 82.666 -74.4629 80.957 -74.4629 C 79.1992 -74.4629 77.7344 -73.0957 77.7344 -71.3379 L 77.7344 -37.0117 C 77.2461 -38.6719 76.0254 -40.1367 73.9258 -41.3574 L 23.7305 -70.8984 C 22.0215 -71.875 20.459 -72.5586 18.7012 -72.5586 C 15.3809 -72.5586 12.4512 -70.0195 12.4512 -65.0391 L 12.4512 -5.37109 C 12.4512 -0.390625 15.3809 2.09961 18.7012 2.09961 Z M 20.166 -4.6875 C 19.3359 -4.6875 18.4082 -5.27344 18.4082 -6.73828 L 18.4082 -63.7207 C 18.4082 -65.1855 19.3359 -65.7227 20.166 -65.7227 C 20.5566 -65.7227 21.0449 -65.5762 21.7285 -65.1855 L 69.5801 -36.9141 C 70.459 -36.377 70.8496 -35.9863 70.8496 -35.2051 C 70.8496 -34.4727 70.4102 -33.9844 69.5801 -33.5449 L 21.7285 -5.22461 C 21.0938 -4.83398 20.5566 -4.6875 20.166 -4.6875 Z"/>
  </g>
  <g id="Thin-M" transform="matrix(1 0 0 1 810.646 1126)">
   <path d="M 17.6758 0.732422 C 19.1406 0.732422 20.6543 0.0488281 21.9238 -0.683594 L 72.6074 -30.5176 C 74.0234 -31.3477 74.9512 -32.373 75.3906 -33.6426 L 75.3906 0.830078 C 75.3906 1.85547 76.2207 2.68555 77.2461 2.68555 C 78.2715 2.68555 79.1016 1.85547 79.1016 0.830078 L 79.1016 -71.2402 C 79.1016 -72.2656 78.2715 -73.0469 77.2461 -73.0469 C 76.2207 -73.0469 75.3906 -72.2656 75.3906 -71.2402 L 75.3906 -36.8652 C 74.9512 -38.1348 74.0234 -39.1113 72.6074 -39.9414 L 21.9238 -69.7754 C 20.6055 -70.5078 19.1406 -71.1914 17.6758 -71.1914 C 14.9902 -71.1914 12.4512 -69.1895 12.4512 -64.8926 L 12.4512 -5.56641 C 12.4512 -1.26953 14.9902 0.732422 17.6758 0.732422 Z M 18.2129 -3.125 C 17.2852 -3.125 15.9668 -3.85742 15.9668 -5.9082 L 15.9668 -64.5508 C 15.9668 -66.6016 17.2852 -67.2852 18.2129 -67.2852 C 18.7988 -67.2852 19.3359 -67.1875 20.3613 -66.6016 L 70.0684 -37.3047 C 71.1426 -36.6699 71.6797 -36.1816 71.6797 -35.2539 C 71.6797 -34.3262 71.0938 -33.6914 70.0684 -33.1543 L 20.3613 -3.80859 C 19.3848 -3.27148 18.7988 -3.125 18.2129 -3.125 Z"/>
  </g>
  <g id="Ultralight-M" transform="matrix(1 0 0 1 515.204 1126)">
   <path d="M 17.1387 0 C 18.457 0 19.9219 -0.683594 20.9961 -1.26953 L 71.9727 -31.25 C 72.998 -31.8848 73.7793 -32.666 74.1699 -33.7402 L 74.1699 0.78125 C 74.1699 1.41602 74.707 1.95312 75.3906 1.95312 C 76.0254 1.95312 76.5625 1.41602 76.5625 0.78125 L 76.5625 -71.1426 C 76.5625 -71.8262 76.0254 -72.3633 75.3906 -72.3633 C 74.707 -72.3633 74.1699 -71.8262 74.1699 -71.1426 L 74.1699 -36.7676 C 73.8281 -37.793 73.0469 -38.5742 71.9727 -39.209 L 20.9961 -69.1895 C 19.873 -69.7754 18.457 -70.459 17.1387 -70.459 C 14.7949 -70.459 12.4512 -68.75 12.4512 -64.7949 L 12.4512 -5.66406 C 12.4512 -1.70898 14.7949 0 17.1387 0 Z M 17.2363 -2.34375 C 16.2109 -2.34375 14.6973 -3.125 14.6973 -5.51758 L 14.6973 -64.9414 C 14.6973 -67.334 16.2109 -68.1152 17.2363 -68.1152 C 17.8711 -68.1152 18.5059 -67.9688 19.6289 -67.334 L 70.3125 -37.5 C 71.4844 -36.8164 72.0703 -36.2793 72.0703 -35.2539 C 72.0703 -34.2773 71.4355 -33.5449 70.3125 -32.959 L 19.6289 -3.125 C 18.5547 -2.49023 17.8711 -2.34375 17.2363 -2.34375 Z"/>
  </g>
  <g id="Black-S" transform="matrix(1 0 0 1 2883.74 696)">
   <path d="M 18.9941 -1.07422 C 21.2402 -1.07422 23.3887 -1.5625 25.4883 -2.7832 L 65.6738 -26.1719 C 68.75 -27.9297 71.2891 -30.1758 71.9727 -33.4473 L 71.9727 -8.49609 C 71.9727 -3.61328 75.6348 0 80.7617 0 C 85.8887 0 89.5508 -3.61328 89.5508 -8.49609 L 89.5508 -61.9629 C 89.5508 -66.8457 85.8887 -70.459 80.7617 -70.459 C 75.6348 -70.459 71.9727 -66.8457 71.9727 -61.9629 L 71.9727 -37.207 C 71.2891 -40.3809 68.8477 -42.3828 65.6738 -44.2383 L 25.4883 -67.627 C 23.3398 -68.8477 21.1914 -69.3359 18.8965 -69.3359 C 13.916 -69.3359 9.76562 -65.6738 9.76562 -59.2285 L 9.76562 -11.1816 C 9.76562 -4.78516 14.0137 -1.07422 18.9941 -1.07422 Z M 23.877 -17.7734 C 23.7305 -17.7734 23.6816 -17.8711 23.6816 -18.0176 L 23.6816 -52.3926 C 23.6816 -52.5391 23.7305 -52.6367 23.9258 -52.6367 C 24.0234 -52.6367 24.1211 -52.6367 24.2676 -52.5391 L 53.9551 -35.498 C 54.0527 -35.4492 54.0527 -35.4004 54.0527 -35.2539 C 54.0527 -35.1074 54.0039 -35.0098 53.9551 -34.9609 L 24.2676 -17.8711 C 24.1699 -17.8223 24.0234 -17.7734 23.877 -17.7734 Z"/>
  </g>
  <g id="Heavy-S" transform="matrix(1 0 0 1 2589.25 696)">
   <path d="M 18.2129 -1.9043 C 20.3125 -1.9043 22.2656 -2.39258 24.2676 -3.56445 L 64.1113 -26.8555 C 67.041 -28.5156 69.2383 -30.6152 69.9219 -33.4961 L 69.9219 -8.10547 C 69.9219 -3.85742 73.0957 -0.732422 77.4902 -0.732422 C 81.8848 -0.732422 85.1074 -3.85742 85.1074 -8.10547 L 85.1074 -62.3535 C 85.1074 -66.6016 81.8848 -69.7266 77.4902 -69.7266 C 73.0957 -69.7266 69.9219 -66.6016 69.9219 -62.3535 L 69.9219 -37.1094 C 69.2871 -39.8926 67.0898 -41.8457 64.1113 -43.5547 L 24.2676 -66.8457 C 22.2168 -68.0176 20.2637 -68.5059 18.1152 -68.5059 C 13.5742 -68.5059 9.76562 -65.0879 9.76562 -59.1309 L 9.76562 -11.2793 C 9.76562 -5.32227 13.623 -1.9043 18.2129 -1.9043 Z M 22.4121 -16.6016 C 22.168 -16.6016 22.0703 -16.748 22.0703 -16.9922 L 22.0703 -53.418 C 22.0703 -53.6621 22.168 -53.8086 22.4609 -53.8086 C 22.5586 -53.8086 22.7051 -53.8086 22.9004 -53.6621 L 54.0039 -35.6445 C 54.1504 -35.5469 54.248 -35.4492 54.248 -35.2539 C 54.248 -35.0098 54.1504 -34.9121 54.0039 -34.8145 L 22.9004 -16.748 C 22.7539 -16.6504 22.5586 -16.6016 22.4121 -16.6016 Z"/>
  </g>
  <g id="Bold-S" transform="matrix(1 0 0 1 2295.03 696)">
   <path d="M 17.334 -2.88086 C 19.2871 -2.88086 20.9961 -3.36914 22.9004 -4.44336 L 62.4023 -27.5879 C 65.1367 -29.1504 66.9922 -31.1035 67.5781 -33.5449 L 67.5781 -7.61719 C 67.5781 -4.15039 70.2637 -1.5625 73.877 -1.5625 C 77.4414 -1.5625 80.127 -4.15039 80.127 -7.61719 L 80.127 -62.793 C 80.127 -66.2598 77.4414 -68.8965 73.877 -68.8965 C 70.2637 -68.8965 67.5781 -66.2598 67.5781 -62.793 L 67.5781 -36.9629 C 66.9922 -39.4043 65.1855 -41.2109 62.4023 -42.8223 L 22.9004 -65.9668 C 20.9961 -67.041 19.2383 -67.5293 17.2852 -67.5293 C 13.1836 -67.5293 9.76562 -64.502 9.76562 -58.9844 L 9.76562 -11.4258 C 9.76562 -5.95703 13.2324 -2.88086 17.334 -2.88086 Z M 20.752 -15.2832 C 20.459 -15.2832 20.2637 -15.4785 20.2637 -15.8691 L 20.2637 -54.5898 C 20.2637 -54.9316 20.459 -55.127 20.8008 -55.127 C 20.9473 -55.127 21.0938 -55.0781 21.3379 -54.9316 L 54.0039 -35.8398 C 54.2969 -35.6445 54.3945 -35.5469 54.3945 -35.2539 C 54.3945 -34.9121 54.248 -34.7656 54.0039 -34.6191 L 21.3379 -15.4785 C 21.1426 -15.3809 20.9473 -15.2832 20.752 -15.2832 Z"/>
  </g>
  <g id="Semibold-S" transform="matrix(1 0 0 1 2000.03 696)">
   <path d="M 16.6992 -3.51562 C 18.5547 -3.51562 20.166 -4.00391 21.9727 -5.07812 L 61.2305 -28.0762 C 63.8184 -29.5898 65.4297 -31.3965 65.9668 -33.5938 L 65.9668 -7.32422 C 65.9668 -4.3457 68.3105 -2.09961 71.3379 -2.09961 C 74.3652 -2.09961 76.709 -4.3457 76.709 -7.32422 L 76.709 -63.1348 C 76.709 -66.0645 74.3652 -68.3105 71.3379 -68.3105 C 68.3105 -68.3105 65.9668 -66.0645 65.9668 -63.1348 L 65.9668 -36.9141 C 65.4785 -39.0625 63.8184 -40.7715 61.2305 -42.334 L 21.9727 -65.332 C 20.1172 -66.4062 18.5547 -66.8945 16.6992 -66.8945 C 12.8906 -66.8945 9.76562 -64.0625 9.76562 -58.9355 L 9.76562 -11.4746 C 9.76562 -6.39648 12.9395 -3.51562 16.6992 -3.51562 Z M 19.6289 -14.4043 C 19.2383 -14.4043 18.9941 -14.6484 18.9941 -15.0391 L 18.9941 -55.3711 C 18.9941 -55.7617 19.2383 -56.0059 19.6289 -56.0059 C 19.8242 -56.0059 20.0195 -55.957 20.2637 -55.8105 L 54.0039 -35.9375 C 54.3945 -35.7422 54.541 -35.5957 54.541 -35.2051 C 54.541 -34.8633 54.3457 -34.668 54.0039 -34.4727 L 20.2637 -14.5996 C 20.0195 -14.4531 19.8242 -14.4043 19.6289 -14.4043 Z"/>
  </g>
  <g id="Medium-S" transform="matrix(1 0 0 1 1704.64 696)">
   <path d="M 16.2598 -4.00391 C 18.0176 -4.00391 19.4824 -4.49219 21.2891 -5.51758 L 60.3027 -28.4668 C 62.793 -29.9316 64.2578 -31.6406 64.7949 -33.6426 L 64.7949 -7.08008 C 64.7949 -4.49219 66.8457 -2.53906 69.4336 -2.53906 C 72.0703 -2.53906 74.0723 -4.49219 74.0723 -7.08008 L 74.0723 -63.3301 C 74.0723 -65.918 72.0703 -67.8711 69.4336 -67.8711 C 66.8457 -67.8711 64.7949 -65.918 64.7949 -63.3301 L 64.7949 -36.8164 C 64.2578 -38.8184 62.793 -40.4785 60.3027 -41.9434 L 21.2891 -64.8926 C 19.4824 -65.918 18.0176 -66.4062 16.2109 -66.4062 C 12.6953 -66.4062 9.76562 -63.7207 9.76562 -58.8379 L 9.76562 -11.5723 C 9.76562 -6.68945 12.6953 -4.00391 16.2598 -4.00391 Z M 18.75 -13.7207 C 18.3105 -13.7207 18.0176 -13.9648 18.0176 -14.4531 L 18.0176 -55.957 C 18.0176 -56.4453 18.3105 -56.6895 18.7988 -56.6895 C 18.9453 -56.6895 19.1895 -56.6406 19.4336 -56.4941 L 54.0527 -36.0352 C 54.4434 -35.791 54.6387 -35.5957 54.6387 -35.2051 C 54.6387 -34.8145 54.4434 -34.6191 54.0527 -34.4238 L 19.4336 -13.916 C 19.1895 -13.7695 18.9453 -13.7207 18.75 -13.7207 Z"/>
  </g>
  <g id="Regular-S" transform="matrix(1 0 0 1 1409.61 696)">
   <path d="M 15.6738 -4.63867 C 17.334 -4.63867 18.6523 -5.12695 20.3613 -6.15234 L 59.1309 -29.0039 C 61.4746 -30.3711 62.7441 -31.9336 63.1836 -33.6426 L 63.1836 -6.73828 C 63.1836 -4.6875 64.8926 -3.07617 66.9434 -3.07617 C 68.9941 -3.07617 70.7031 -4.6875 70.7031 -6.73828 L 70.7031 -63.6719 C 70.7031 -65.7227 68.9941 -67.334 66.9434 -67.334 C 64.8926 -67.334 63.1836 -65.7227 63.1836 -63.6719 L 63.1836 -36.7676 C 62.7441 -38.4766 61.4746 -40.0391 59.1309 -41.4551 L 20.3613 -64.2578 C 18.6523 -65.2832 17.334 -65.7715 15.6738 -65.7715 C 12.4023 -65.7715 9.76562 -63.2812 9.76562 -58.7891 L 9.76562 -11.6211 C 9.76562 -7.12891 12.4023 -4.63867 15.6738 -4.63867 Z M 17.627 -12.793 C 17.1387 -12.793 16.7969 -13.1348 16.7969 -13.6719 L 16.7969 -56.7383 C 16.7969 -57.2754 17.1387 -57.6172 17.627 -57.6172 C 17.8711 -57.6172 18.1152 -57.5195 18.4082 -57.3242 L 54.0527 -36.1328 C 54.541 -35.8887 54.7852 -35.6445 54.7852 -35.2051 C 54.7852 -34.7656 54.541 -34.5215 54.0527 -34.2773 L 18.4082 -13.0859 C 18.1152 -12.8906 17.8711 -12.793 17.627 -12.793 Z"/>
  </g>
  <g id="Light-S" transform="matrix(1 0 0 1 1114.56 696)">
   <path d="M 14.9414 -5.56641 C 16.4062 -5.56641 17.6758 -6.10352 19.1406 -6.93359 L 58.3008 -29.9805 C 60.1074 -31.0547 61.1816 -32.3242 61.6211 -33.7891 L 61.6211 -6.83594 C 61.6211 -5.27344 62.8906 -4.05273 64.502 -4.05273 C 66.0645 -4.05273 67.3828 -5.27344 67.3828 -6.83594 L 67.3828 -63.5742 C 67.3828 -65.1367 66.0645 -66.3574 64.502 -66.3574 C 62.8906 -66.3574 61.6211 -65.1367 61.6211 -63.5742 L 61.6211 -36.6699 C 61.1816 -38.0859 60.1562 -39.3555 58.3008 -40.4785 L 19.1406 -63.5254 C 17.6758 -64.3555 16.4062 -64.8438 14.9414 -64.8438 C 12.1582 -64.8438 9.76562 -62.7441 9.76562 -58.6426 L 9.76562 -11.7676 C 9.76562 -7.71484 12.1582 -5.56641 14.9414 -5.56641 Z M 16.3574 -11.7676 C 15.7715 -11.7676 15.1367 -12.1582 15.1367 -13.1348 L 15.1367 -57.2754 C 15.1367 -58.252 15.7715 -58.6426 16.3574 -58.6426 C 16.6504 -58.6426 16.9922 -58.5449 17.4316 -58.3008 L 54.3945 -36.4258 C 54.9805 -36.084 55.3223 -35.791 55.3223 -35.2051 C 55.3223 -34.668 54.9805 -34.3262 54.3945 -34.0332 L 17.4316 -12.1094 C 16.9922 -11.8652 16.6504 -11.7676 16.3574 -11.7676 Z"/>
  </g>
  <g id="Thin-S" transform="matrix(1 0 0 1 820.07 696)">
   <path d="M 14.0625 -6.78711 C 15.2344 -6.78711 16.4551 -7.32422 17.5293 -7.95898 L 57.1777 -31.25 C 58.3496 -31.9824 59.1797 -32.8613 59.5215 -33.9355 L 59.5215 -6.93359 C 59.5215 -6.00586 60.3027 -5.27344 61.2305 -5.27344 C 62.1582 -5.27344 62.9395 -6.00586 62.9395 -6.93359 L 62.9395 -63.4766 C 62.9395 -64.4043 62.1582 -65.1367 61.2305 -65.1367 C 60.3027 -65.1367 59.5215 -64.4043 59.5215 -63.4766 L 59.5215 -36.5234 C 59.1797 -37.5977 58.3984 -38.4277 57.1777 -39.209 L 17.5293 -62.5 C 16.4062 -63.1348 15.2344 -63.6719 14.0625 -63.6719 C 11.8164 -63.6719 9.76562 -62.0117 9.76562 -58.4961 L 9.76562 -11.9629 C 9.76562 -8.44727 11.8164 -6.78711 14.0625 -6.78711 Z M 14.6484 -10.4004 C 13.9648 -10.4004 12.9883 -10.8887 12.9883 -12.4023 L 12.9883 -58.0078 C 12.9883 -59.5215 13.9648 -60.0586 14.6484 -60.0586 C 15.0879 -60.0586 15.4785 -59.9609 16.2109 -59.5703 L 54.7852 -36.7676 C 55.6152 -36.3281 56.0059 -35.9375 56.0059 -35.2539 C 56.0059 -34.5703 55.5664 -34.082 54.7852 -33.6914 L 16.2109 -10.8887 C 15.5273 -10.498 15.0879 -10.4004 14.6484 -10.4004 Z"/>
  </g>
  <g id="Ultralight-S" transform="matrix(1 0 0 1 524.482 696)">
   <path d="M 13.5742 -7.42188 C 14.6484 -7.42188 15.8203 -7.95898 16.6992 -8.49609 L 56.5918 -31.9336 C 57.4707 -32.4707 58.1543 -33.1543 58.4473 -34.0332 L 58.4473 -7.03125 C 58.4473 -6.39648 58.9355 -5.9082 59.5703 -5.9082 C 60.1562 -5.9082 60.6934 -6.39648 60.6934 -7.03125 L 60.6934 -63.3789 C 60.6934 -64.0137 60.1562 -64.502 59.5703 -64.502 C 58.9355 -64.502 58.4473 -64.0137 58.4473 -63.3789 L 58.4473 -36.4746 C 58.1543 -37.3047 57.5195 -37.9883 56.5918 -38.5254 L 16.6992 -61.9629 C 15.7715 -62.5 14.6484 -63.0371 13.5742 -63.0371 C 11.6699 -63.0371 9.76562 -61.6211 9.76562 -58.3984 L 9.76562 -12.0605 C 9.76562 -8.83789 11.6699 -7.42188 13.5742 -7.42188 Z M 13.7695 -9.66797 C 12.9883 -9.66797 11.8652 -10.2539 11.8652 -12.0605 L 11.8652 -58.3984 C 11.8652 -60.2051 12.9883 -60.791 13.7695 -60.791 C 14.2578 -60.791 14.7461 -60.6934 15.5762 -60.2051 L 55.0293 -36.9629 C 55.957 -36.4258 56.3477 -36.0352 56.3477 -35.2539 C 56.3477 -34.4727 55.9082 -33.9844 55.0293 -33.4961 L 15.5762 -10.2539 C 14.7949 -9.76562 14.2578 -9.66797 13.7695 -9.66797 Z"/>
  </g>
 </g>
</svg>
