<?xml version="1.0" encoding="UTF-8"?>
<!--Generator: Apple Native CoreSVG 123-->
<!DOCTYPE svg
PUBLIC "-//W3C//DTD SVG 1.1//EN"
       "http://www.w3.org/Graphics/SVG/1.1/DTD/svg11.dtd">
<svg version="1.1" xmlns="http://www.w3.org/2000/svg" xmlns:xlink="http://www.w3.org/1999/xlink" width="3300" height="2200">
 <!--glyph: "uni10028D.medium", point size: 100.000000, font version: "Version 15.0d7e11", template writer version: "5"-->
 <g id="Notes">
  <rect height="2200" id="artboard" style="fill:white;opacity:1" width="3300" x="0" y="0"/>
  <line id="" style="fill:none;stroke:black;opacity:1;stroke-width:0.5;" x1="263" x2="3036" y1="292" y2="292"/>
  <text style="stroke:none;fill:black;font-family:-apple-system,&quot;SF Pro Display&quot;,&quot;SF Pro Text&quot;,Helvetica,sans-serif;font-weight:bold;" transform="matrix(1 0 0 1 263 322)">Weight/Scale Variations</text>
  <text style="stroke:none;fill:black;font-family:-apple-system,&quot;SF Pro Display&quot;,&quot;SF Pro Text&quot;,Helvetica,sans-serif;text-anchor:middle;" transform="matrix(1 0 0 1 559.711 322)">Ultralight</text>
  <text style="stroke:none;fill:black;font-family:-apple-system,&quot;SF Pro Display&quot;,&quot;SF Pro Text&quot;,Helvetica,sans-serif;text-anchor:middle;" transform="matrix(1 0 0 1 856.422 322)">Thin</text>
  <text style="stroke:none;fill:black;font-family:-apple-system,&quot;SF Pro Display&quot;,&quot;SF Pro Text&quot;,Helvetica,sans-serif;text-anchor:middle;" transform="matrix(1 0 0 1 1153.13 322)">Light</text>
  <text style="stroke:none;fill:black;font-family:-apple-system,&quot;SF Pro Display&quot;,&quot;SF Pro Text&quot;,Helvetica,sans-serif;text-anchor:middle;" transform="matrix(1 0 0 1 1449.84 322)">Regular</text>
  <text style="stroke:none;fill:black;font-family:-apple-system,&quot;SF Pro Display&quot;,&quot;SF Pro Text&quot;,Helvetica,sans-serif;text-anchor:middle;" transform="matrix(1 0 0 1 1746.56 322)">Medium</text>
  <text style="stroke:none;fill:black;font-family:-apple-system,&quot;SF Pro Display&quot;,&quot;SF Pro Text&quot;,Helvetica,sans-serif;text-anchor:middle;" transform="matrix(1 0 0 1 2043.27 322)">Semibold</text>
  <text style="stroke:none;fill:black;font-family:-apple-system,&quot;SF Pro Display&quot;,&quot;SF Pro Text&quot;,Helvetica,sans-serif;text-anchor:middle;" transform="matrix(1 0 0 1 2339.98 322)">Bold</text>
  <text style="stroke:none;fill:black;font-family:-apple-system,&quot;SF Pro Display&quot;,&quot;SF Pro Text&quot;,Helvetica,sans-serif;text-anchor:middle;" transform="matrix(1 0 0 1 2636.69 322)">Heavy</text>
  <text style="stroke:none;fill:black;font-family:-apple-system,&quot;SF Pro Display&quot;,&quot;SF Pro Text&quot;,Helvetica,sans-serif;text-anchor:middle;" transform="matrix(1 0 0 1 2933.4 322)">Black</text>
  <line id="" style="fill:none;stroke:black;opacity:1;stroke-width:0.5;" x1="263" x2="3036" y1="1903" y2="1903"/>
  <g id="" transform="matrix(1 0 0 1 263 1933)">
   <path d="M 9.24805 0.830078 C 13.5547 0.830078 17.1387 -2.74414 17.1387 -7.05078 C 17.1387 -11.3574 13.5449 -14.9316 9.23828 -14.9316 C 4.94141 -14.9316 1.36719 -11.3574 1.36719 -7.05078 C 1.36719 -2.74414 4.95117 0.830078 9.24805 0.830078 Z M 9.24805 -0.654297 C 5.70312 -0.654297 2.87109 -3.49609 2.87109 -7.05078 C 2.87109 -10.6055 5.69336 -13.4473 9.23828 -13.4473 C 12.793 -13.4473 15.6348 -10.6055 15.6445 -7.05078 C 15.6543 -3.49609 12.8027 -0.654297 9.24805 -0.654297 Z M 9.22852 -3.42773 C 9.69727 -3.42773 9.9707 -3.74023 9.9707 -4.25781 L 9.9707 -6.31836 L 12.1973 -6.31836 C 12.6953 -6.31836 13.0371 -6.57227 13.0371 -7.04102 C 13.0371 -7.51953 12.7148 -7.7832 12.1973 -7.7832 L 9.9707 -7.7832 L 9.9707 -10.0098 C 9.9707 -10.5273 9.69727 -10.8496 9.22852 -10.8496 C 8.75977 -10.8496 8.50586 -10.5078 8.50586 -10.0098 L 8.50586 -7.7832 L 6.29883 -7.7832 C 5.78125 -7.7832 5.44922 -7.51953 5.44922 -7.04102 C 5.44922 -6.57227 5.80078 -6.31836 6.29883 -6.31836 L 8.50586 -6.31836 L 8.50586 -4.25781 C 8.50586 -3.75977 8.75977 -3.42773 9.22852 -3.42773 Z"/>
  </g>
  <g id="" transform="matrix(1 0 0 1 281.506 1933)">
   <path d="M 11.709 2.91016 C 17.1582 2.91016 21.6699 -1.60156 21.6699 -7.05078 C 21.6699 -12.4902 17.1484 -17.0117 11.6992 -17.0117 C 6.25977 -17.0117 1.74805 -12.4902 1.74805 -7.05078 C 1.74805 -1.60156 6.26953 2.91016 11.709 2.91016 Z M 11.709 1.25 C 7.09961 1.25 3.41797 -2.44141 3.41797 -7.05078 C 3.41797 -11.6504 7.08984 -15.3516 11.6992 -15.3516 C 16.3086 -15.3516 20 -11.6504 20.0098 -7.05078 C 20.0195 -2.44141 16.3184 1.25 11.709 1.25 Z M 11.6895 -2.41211 C 12.207 -2.41211 12.5195 -2.77344 12.5195 -3.33984 L 12.5195 -6.23047 L 15.5762 -6.23047 C 16.123 -6.23047 16.5039 -6.51367 16.5039 -7.03125 C 16.5039 -7.55859 16.1426 -7.86133 15.5762 -7.86133 L 12.5195 -7.86133 L 12.5195 -10.9277 C 12.5195 -11.5039 12.207 -11.8555 11.6895 -11.8555 C 11.1719 -11.8555 10.8789 -11.4844 10.8789 -10.9277 L 10.8789 -7.86133 L 7.83203 -7.86133 C 7.26562 -7.86133 6.89453 -7.55859 6.89453 -7.03125 C 6.89453 -6.51367 7.28516 -6.23047 7.83203 -6.23047 L 10.8789 -6.23047 L 10.8789 -3.33984 C 10.8789 -2.79297 11.1719 -2.41211 11.6895 -2.41211 Z"/>
  </g>
  <g id="" transform="matrix(1 0 0 1 304.924 1933)">
   <path d="M 14.9707 5.67383 C 21.9336 5.67383 27.6953 -0.078125 27.6953 -7.04102 C 27.6953 -14.0039 21.9238 -19.7559 14.9609 -19.7559 C 8.00781 -19.7559 2.25586 -14.0039 2.25586 -7.04102 C 2.25586 -0.078125 8.01758 5.67383 14.9707 5.67383 Z M 14.9707 3.85742 C 8.93555 3.85742 4.08203 -1.00586 4.08203 -7.04102 C 4.08203 -13.0762 8.92578 -17.9395 14.9609 -17.9395 C 21.0059 -17.9395 25.8594 -13.0762 25.8691 -7.04102 C 25.8789 -1.00586 21.0156 3.85742 14.9707 3.85742 Z M 14.9512 -1.06445 C 15.5176 -1.06445 15.8691 -1.45508 15.8691 -2.06055 L 15.8691 -6.13281 L 20.1074 -6.13281 C 20.6934 -6.13281 21.1133 -6.46484 21.1133 -7.02148 C 21.1133 -7.59766 20.7227 -7.93945 20.1074 -7.93945 L 15.8691 -7.93945 L 15.8691 -12.1875 C 15.8691 -12.8027 15.5176 -13.1934 14.9512 -13.1934 C 14.3848 -13.1934 14.0625 -12.7832 14.0625 -12.1875 L 14.0625 -7.93945 L 9.83398 -7.93945 C 9.21875 -7.93945 8.80859 -7.59766 8.80859 -7.02148 C 8.80859 -6.46484 9.23828 -6.13281 9.83398 -6.13281 L 14.0625 -6.13281 L 14.0625 -2.06055 C 14.0625 -1.47461 14.3848 -1.06445 14.9512 -1.06445 Z"/>
  </g>
  <text style="stroke:none;fill:black;font-family:-apple-system,&quot;SF Pro Display&quot;,&quot;SF Pro Text&quot;,Helvetica,sans-serif;font-weight:bold;" transform="matrix(1 0 0 1 263 1953)">Design Variations</text>
  <text style="stroke:none;fill:black;font-family:-apple-system,&quot;SF Pro Display&quot;,&quot;SF Pro Text&quot;,Helvetica,sans-serif;" transform="matrix(1 0 0 1 263 1971)">Symbols are supported in up to nine weights and three scales.</text>
  <text style="stroke:none;fill:black;font-family:-apple-system,&quot;SF Pro Display&quot;,&quot;SF Pro Text&quot;,Helvetica,sans-serif;" transform="matrix(1 0 0 1 263 1989)">For optimal layout with text and other symbols, vertically align</text>
  <text style="stroke:none;fill:black;font-family:-apple-system,&quot;SF Pro Display&quot;,&quot;SF Pro Text&quot;,Helvetica,sans-serif;" transform="matrix(1 0 0 1 263 2007)">symbols with the adjacent text.</text>
  <rect height="14" id="" style="fill:#00AEEF;stroke:none;opacity:0.4;" width="3" x="776" y="1919"/>
  <g id="" transform="matrix(1 0 0 1 779 1933)">
   <path d="M 10.5273 0 L 12.373 0 L 7.17773 -14.0918 L 5.43945 -14.0918 L 0.244141 0 L 2.08984 0 L 3.50586 -4.0332 L 9.11133 -4.0332 Z M 6.2793 -11.9531 L 6.33789 -11.9531 L 8.59375 -5.52734 L 4.02344 -5.52734 Z"/>
  </g>
  <rect height="14" id="" style="fill:#00AEEF;stroke:none;opacity:0.4;" width="3" x="791.617" y="1919"/>
  <text style="stroke:none;fill:black;font-family:-apple-system,&quot;SF Pro Display&quot;,&quot;SF Pro Text&quot;,Helvetica,sans-serif;font-weight:bold;" transform="matrix(1 0 0 1 776 1953)">Margins</text>
  <text style="stroke:none;fill:black;font-family:-apple-system,&quot;SF Pro Display&quot;,&quot;SF Pro Text&quot;,Helvetica,sans-serif;" transform="matrix(1 0 0 1 776 1971)">Leading and trailing margins on the left and right side of each symbol</text>
  <text style="stroke:none;fill:black;font-family:-apple-system,&quot;SF Pro Display&quot;,&quot;SF Pro Text&quot;,Helvetica,sans-serif;" transform="matrix(1 0 0 1 776 1989)">can be adjusted by modifying the width of the blue rectangles.</text>
  <text style="stroke:none;fill:black;font-family:-apple-system,&quot;SF Pro Display&quot;,&quot;SF Pro Text&quot;,Helvetica,sans-serif;" transform="matrix(1 0 0 1 776 2007)">Modifications are automatically applied proportionally to all</text>
  <text style="stroke:none;fill:black;font-family:-apple-system,&quot;SF Pro Display&quot;,&quot;SF Pro Text&quot;,Helvetica,sans-serif;" transform="matrix(1 0 0 1 776 2025)">scales and weights.</text>
  <g id="" transform="matrix(1 0 0 1 1289 1933)">
   <path d="M 2.83203 3.11523 L 4.375 4.6582 C 5.22461 5.48828 6.19141 5.41992 7.06055 4.46289 L 17.2754 -6.66016 C 17.7051 -6.36719 18.0957 -6.37695 18.5645 -6.47461 L 19.6094 -6.68945 L 20.3027 -5.99609 L 20.2539 -5.47852 C 20.1855 -4.95117 20.3516 -4.53125 20.8496 -4.0332 L 21.6602 -3.22266 C 22.168 -2.71484 22.8223 -2.68555 23.3008 -3.16406 L 26.5527 -6.41602 C 27.0312 -6.89453 27.0117 -7.54883 26.5039 -8.05664 L 25.6836 -8.87695 C 25.1855 -9.375 24.7754 -9.55078 24.2383 -9.47266 L 23.7109 -9.41406 L 23.0566 -10.0781 L 23.3398 -11.2207 C 23.4863 -11.7871 23.3398 -12.2559 22.7148 -12.8613 L 20.3027 -15.2539 C 16.7578 -18.7793 12.2266 -18.6719 9.11133 -15.5371 C 8.69141 -15.1074 8.64258 -14.5215 8.91602 -14.0918 C 9.15039 -13.7207 9.62891 -13.4961 10.2734 -13.6621 C 11.7871 -14.043 13.3008 -13.9258 14.7852 -12.9199 L 14.1602 -11.3379 C 13.9258 -10.752 13.9453 -10.2734 14.1797 -9.83398 L 3.01758 0.439453 C 2.08008 1.30859 1.97266 2.25586 2.83203 3.11523 Z M 10.6738 -15.1465 C 13.3398 -17.1387 16.6504 -16.8262 19.0527 -14.4141 L 21.6797 -11.8066 C 21.9141 -11.5723 21.9434 -11.3867 21.8848 -11.0938 L 21.5039 -9.53125 L 23.0762 -7.95898 L 24.043 -8.04688 C 24.3262 -8.07617 24.4141 -8.05664 24.6387 -7.83203 L 25.2637 -7.20703 L 22.5098 -4.46289 L 21.8848 -5.07812 C 21.6602 -5.30273 21.6406 -5.40039 21.6699 -5.68359 L 21.7578 -6.64062 L 20.1953 -8.20312 L 18.5742 -7.89062 C 18.291 -7.83203 18.1445 -7.83203 17.9102 -8.07617 L 15.7324 -10.2539 C 15.5078 -10.4883 15.4785 -10.625 15.6055 -10.9473 L 16.5527 -13.2227 C 14.9512 -14.7559 12.8418 -15.6055 10.8008 -14.9512 C 10.7129 -14.9219 10.6445 -14.9414 10.6152 -14.9805 C 10.5859 -15.0293 10.5859 -15.0781 10.6738 -15.1465 Z M 4.10156 2.41211 C 3.61328 1.91406 3.78906 1.61133 4.12109 1.30859 L 15.0781 -8.80859 L 16.3086 -7.57812 L 6.15234 3.34961 C 5.84961 3.68164 5.46875 3.7793 5.06836 3.37891 Z"/>
  </g>
  <text style="stroke:none;fill:black;font-family:-apple-system,&quot;SF Pro Display&quot;,&quot;SF Pro Text&quot;,Helvetica,sans-serif;font-weight:bold;" transform="matrix(1 0 0 1 1289 1953)">Exporting</text>
  <text style="stroke:none;fill:black;font-family:-apple-system,&quot;SF Pro Display&quot;,&quot;SF Pro Text&quot;,Helvetica,sans-serif;" transform="matrix(1 0 0 1 1289 1971)">Symbols should be outlined when exporting to ensure the</text>
  <text style="stroke:none;fill:black;font-family:-apple-system,&quot;SF Pro Display&quot;,&quot;SF Pro Text&quot;,Helvetica,sans-serif;" transform="matrix(1 0 0 1 1289 1989)">design is preserved when submitting to Xcode.</text>
  <text id="template-version" style="stroke:none;fill:black;font-family:-apple-system,&quot;SF Pro Display&quot;,&quot;SF Pro Text&quot;,Helvetica,sans-serif;text-anchor:end;" transform="matrix(1 0 0 1 3036 1933)">Template v.1.0</text>
  <text style="stroke:none;fill:black;font-family:-apple-system,&quot;SF Pro Display&quot;,&quot;SF Pro Text&quot;,Helvetica,sans-serif;text-anchor:end;" transform="matrix(1 0 0 1 3036 1951)">Generated from backward.end</text>
  <text style="stroke:none;fill:black;font-family:-apple-system,&quot;SF Pro Display&quot;,&quot;SF Pro Text&quot;,Helvetica,sans-serif;text-anchor:end;" transform="matrix(1 0 0 1 3036 1969)">Typeset at 100 points</text>
  <text style="stroke:none;fill:black;font-family:-apple-system,&quot;SF Pro Display&quot;,&quot;SF Pro Text&quot;,Helvetica,sans-serif;" transform="matrix(1 0 0 1 263 726)">Small</text>
  <text style="stroke:none;fill:black;font-family:-apple-system,&quot;SF Pro Display&quot;,&quot;SF Pro Text&quot;,Helvetica,sans-serif;" transform="matrix(1 0 0 1 263 1156)">Medium</text>
  <text style="stroke:none;fill:black;font-family:-apple-system,&quot;SF Pro Display&quot;,&quot;SF Pro Text&quot;,Helvetica,sans-serif;" transform="matrix(1 0 0 1 263 1586)">Large</text>
 </g>
 <g id="Guides">
  <g id="H-reference" style="fill:#27AAE1;stroke:none;" transform="matrix(1 0 0 1 339 696)">
   <path d="M 54.9316 0 L 57.666 0 L 30.5664 -70.459 L 28.0762 -70.459 L 0.976562 0 L 3.66211 0 L 12.9395 -24.4629 L 45.7031 -24.4629 Z M 29.1992 -67.0898 L 29.4434 -67.0898 L 44.8242 -26.709 L 13.8184 -26.709 Z"/>
  </g>
  <line id="Baseline-S" style="fill:none;stroke:#27AAE1;opacity:1;stroke-width:0.577;" x1="263" x2="3036" y1="696" y2="696"/>
  <line id="Capline-S" style="fill:none;stroke:#27AAE1;opacity:1;stroke-width:0.577;" x1="263" x2="3036" y1="625.541" y2="625.541"/>
  <g id="H-reference" style="fill:#27AAE1;stroke:none;" transform="matrix(1 0 0 1 339 1126)">
   <path d="M 54.9316 0 L 57.666 0 L 30.5664 -70.459 L 28.0762 -70.459 L 0.976562 0 L 3.66211 0 L 12.9395 -24.4629 L 45.7031 -24.4629 Z M 29.1992 -67.0898 L 29.4434 -67.0898 L 44.8242 -26.709 L 13.8184 -26.709 Z"/>
  </g>
  <line id="Baseline-M" style="fill:none;stroke:#27AAE1;opacity:1;stroke-width:0.577;" x1="263" x2="3036" y1="1126" y2="1126"/>
  <line id="Capline-M" style="fill:none;stroke:#27AAE1;opacity:1;stroke-width:0.577;" x1="263" x2="3036" y1="1055.54" y2="1055.54"/>
  <g id="H-reference" style="fill:#27AAE1;stroke:none;" transform="matrix(1 0 0 1 339 1556)">
   <path d="M 54.9316 0 L 57.666 0 L 30.5664 -70.459 L 28.0762 -70.459 L 0.976562 0 L 3.66211 0 L 12.9395 -24.4629 L 45.7031 -24.4629 Z M 29.1992 -67.0898 L 29.4434 -67.0898 L 44.8242 -26.709 L 13.8184 -26.709 Z"/>
  </g>
  <line id="Baseline-L" style="fill:none;stroke:#27AAE1;opacity:1;stroke-width:0.577;" x1="263" x2="3036" y1="1556" y2="1556"/>
  <line id="Capline-L" style="fill:none;stroke:#27AAE1;opacity:1;stroke-width:0.577;" x1="263" x2="3036" y1="1485.54" y2="1485.54"/>
  <rect height="119.336" id="left-margin" style="fill:#00AEEF;stroke:none;opacity:0.4;" width="12.4512" x="1399.67" y="1030.79"/>
  <rect height="119.336" id="right-margin" style="fill:#00AEEF;stroke:none;opacity:0.4;" width="12.4512" x="1487.56" y="1030.79"/>
 </g>
 <g id="Symbols">
  <g id="Black-L" transform="matrix(1 0 0 1 2855.74 1556)">
   <path d="M 28.3203 21.4844 C 35.4492 21.4844 40.625 16.4062 40.625 9.57031 L 40.625 -32.373 C 40.3809 -33.3008 40.2832 -34.2773 40.2832 -35.3027 C 40.2832 -36.377 40.3809 -37.3535 40.625 -38.2812 L 40.625 -80.0293 C 40.625 -86.8164 35.4492 -91.8945 28.3203 -91.8945 C 21.2402 -91.8945 16.0645 -86.8164 16.0645 -80.0293 L 16.0645 9.57031 C 16.0645 16.4062 21.2402 21.4844 28.3203 21.4844 Z M 125.488 19.4824 C 132.959 19.4824 139.258 13.916 139.258 4.19922 L 139.258 -74.5605 C 139.258 -84.3262 133.057 -89.8438 125.586 -89.8438 C 122.07 -89.8438 118.945 -89.0625 115.576 -87.1582 L 50.0488 -48.877 C 45.1172 -45.9961 41.6504 -42.8223 40.625 -38.2812 L 40.625 -32.373 C 41.6504 -27.6855 45.2637 -24.3164 50.0488 -21.4844 L 115.576 16.748 C 118.848 18.7012 122.021 19.4824 125.488 19.4824 Z M 118.701 -4.3457 C 118.457 -4.3457 118.164 -4.44336 117.92 -4.54102 L 66.4551 -34.5215 C 66.1621 -34.668 66.0156 -34.8633 66.0156 -35.2539 C 66.0156 -35.6445 66.1133 -35.791 66.4551 -35.9375 L 117.92 -65.8203 C 118.213 -66.0156 118.457 -66.0645 118.652 -66.0645 C 119.092 -66.0645 119.287 -65.8203 119.287 -65.4297 L 119.287 -4.98047 C 119.287 -4.58984 119.092 -4.3457 118.701 -4.3457 Z"/>
  </g>
  <g id="Heavy-L" transform="matrix(1 0 0 1 2562.45 1556)">
   <path d="M 26.5137 20.166 C 32.5195 20.166 36.9629 15.8203 36.9629 10.0586 L 36.9629 -32.4707 C 36.7676 -33.3496 36.6699 -34.2773 36.6699 -35.3027 C 36.6699 -36.2793 36.7676 -37.207 36.9629 -38.1348 L 36.9629 -80.4688 C 36.9629 -86.2793 32.5195 -90.5762 26.5137 -90.5762 C 20.5078 -90.5762 16.0645 -86.2793 16.0645 -80.4688 L 16.0645 10.0586 C 16.0645 15.8203 20.5078 20.166 26.5137 20.166 Z M 119.922 18.0664 C 126.709 18.0664 132.422 12.9883 132.422 4.00391 L 132.422 -74.3652 C 132.422 -83.3984 126.758 -88.4277 120.02 -88.4277 C 116.748 -88.4277 113.867 -87.6465 110.742 -85.8398 L 45.459 -47.6562 C 40.9668 -45.0195 37.9395 -42.1387 36.9629 -38.1348 L 36.9629 -32.4707 C 37.9395 -28.3691 41.1133 -25.293 45.459 -22.7539 L 110.742 15.4785 C 113.818 17.2363 116.699 18.0664 119.922 18.0664 Z M 114.209 -2.44141 C 113.916 -2.44141 113.525 -2.58789 113.184 -2.7832 L 59.4238 -34.1797 C 58.9844 -34.4727 58.7402 -34.7168 58.7402 -35.2539 C 58.7402 -35.7422 58.9355 -35.9863 59.4238 -36.2305 L 113.184 -67.627 C 113.574 -67.8711 113.916 -67.9199 114.16 -67.9199 C 114.746 -67.9199 115.137 -67.5781 115.137 -66.8945 L 115.137 -3.51562 C 115.137 -2.7832 114.746 -2.44141 114.209 -2.44141 Z"/>
  </g>
  <g id="Bold-L" transform="matrix(1 0 0 1 2269.57 1556)">
   <path d="M 24.5117 18.75 C 29.2969 18.75 32.9102 15.2344 32.9102 10.5469 L 32.9102 -32.6172 C 32.7148 -33.4473 32.5684 -34.3262 32.5684 -35.2539 C 32.5684 -36.2305 32.7148 -37.1094 32.9102 -37.9395 L 32.9102 -80.957 C 32.9102 -85.6445 29.2969 -89.1113 24.5117 -89.1113 C 19.6777 -89.1113 16.0645 -85.6445 16.0645 -80.957 L 16.0645 10.5469 C 16.0645 15.2344 19.6777 18.75 24.5117 18.75 Z M 113.672 16.4551 C 119.678 16.4551 124.756 11.9629 124.756 3.75977 L 124.756 -74.1699 C 124.756 -82.373 119.727 -86.8652 113.77 -86.8652 C 110.791 -86.8652 108.203 -86.0352 105.322 -84.4238 L 40.332 -46.2891 C 36.377 -43.9453 33.7891 -41.3574 32.9102 -37.9395 L 32.9102 -32.6172 C 33.7891 -29.1504 36.4258 -26.416 40.332 -24.1211 L 105.322 14.0137 C 108.154 15.625 110.791 16.4551 113.672 16.4551 Z M 109.18 -0.341797 C 108.838 -0.341797 108.398 -0.488281 107.861 -0.78125 L 51.6113 -33.8379 C 50.9766 -34.2285 50.6348 -34.5703 50.6348 -35.2539 C 50.6348 -35.8887 50.9277 -36.1816 51.6113 -36.5723 L 107.861 -69.6289 C 108.447 -69.9219 108.838 -70.0195 109.18 -70.0195 C 109.912 -70.0195 110.498 -69.5801 110.498 -68.5547 L 110.498 -1.85547 C 110.498 -0.830078 109.912 -0.341797 109.18 -0.341797 Z"/>
  </g>
  <g id="Semibold-L" transform="matrix(1 0 0 1 1975.47 1556)">
   <path d="M 23.0957 17.7246 C 27.0508 17.7246 30.127 14.7949 30.127 10.8887 L 30.127 -32.7148 C 29.8828 -33.4961 29.7852 -34.375 29.7852 -35.2539 C 29.7852 -36.1328 29.8828 -37.0117 30.127 -37.793 L 30.127 -81.2988 C 30.127 -85.1562 27.0508 -88.1348 23.0957 -88.1348 C 19.0918 -88.1348 16.0645 -85.1562 16.0645 -81.2988 L 16.0645 10.8887 C 16.0645 14.7949 19.0918 17.7246 23.0957 17.7246 Z M 109.375 15.3809 C 114.844 15.3809 119.531 11.2305 119.531 3.61328 L 119.531 -74.0234 C 119.531 -81.6406 114.893 -85.7422 109.424 -85.7422 C 106.689 -85.7422 104.297 -84.9609 101.611 -83.3984 L 36.7676 -45.3125 C 33.1543 -43.2129 30.9082 -40.8203 30.127 -37.793 L 30.127 -32.7148 C 30.9082 -29.6387 33.2031 -27.1484 36.7676 -25.0488 L 101.611 12.9883 C 104.248 14.5508 106.689 15.3809 109.375 15.3809 Z M 105.762 1.07422 C 105.322 1.07422 104.834 0.927734 104.199 0.585938 L 46.1914 -33.5938 C 45.459 -34.0332 45.0195 -34.4727 45.0195 -35.2051 C 45.0195 -35.9863 45.4102 -36.377 46.1914 -36.8164 L 104.199 -70.9961 C 104.883 -71.3379 105.322 -71.4844 105.713 -71.4844 C 106.543 -71.4844 107.324 -70.9473 107.324 -69.6777 L 107.324 -0.732422 C 107.324 0.537109 106.543 1.07422 105.762 1.07422 Z"/>
  </g>
  <g id="Medium-L" transform="matrix(1 0 0 1 1680.76 1556)">
   <path d="M 22.0215 16.9922 C 25.3418 16.9922 27.9785 14.4531 27.9785 11.1816 L 27.9785 -32.7637 C 27.7832 -33.5449 27.6367 -34.375 27.6367 -35.2539 C 27.6367 -36.084 27.7832 -36.9141 27.9785 -37.6953 L 27.9785 -81.543 C 27.9785 -84.8633 25.3418 -87.3535 22.0215 -87.3535 C 18.7012 -87.3535 16.0645 -84.8633 16.0645 -81.543 L 16.0645 11.1816 C 16.0645 14.4531 18.7012 16.9922 22.0215 16.9922 Z M 106.152 14.5508 C 111.182 14.5508 115.527 10.6934 115.527 3.51562 L 115.527 -73.9258 C 115.527 -81.1035 111.23 -84.9121 106.152 -84.9121 C 103.564 -84.9121 101.318 -84.082 98.7793 -82.666 L 34.082 -44.6289 C 30.7617 -42.627 28.7109 -40.4297 27.9785 -37.6953 L 27.9785 -32.7637 C 28.7109 -30.0293 30.7617 -27.7344 34.082 -25.7812 L 98.7793 12.2559 C 101.27 13.7207 103.564 14.5508 106.152 14.5508 Z M 103.125 2.19727 C 102.637 2.19727 102.148 2.05078 101.465 1.61133 L 42.1387 -33.3984 C 41.2598 -33.8867 40.7715 -34.375 40.7715 -35.2051 C 40.7715 -36.084 41.2109 -36.4746 42.1387 -37.0117 L 101.465 -72.0215 C 102.148 -72.4609 102.637 -72.5586 103.125 -72.5586 C 104.004 -72.5586 104.883 -71.9727 104.883 -70.5566 L 104.883 0.146484 C 104.883 1.5625 104.004 2.19727 103.125 2.19727 Z"/>
  </g>
  <g id="Regular-L" transform="matrix(1 0 0 1 1386.66 1556)">
   <path d="M 20.6543 15.9668 C 23.1445 15.9668 25.1953 14.0137 25.1953 11.5234 L 25.1953 -32.8613 C 25 -33.6426 24.9023 -34.4238 24.9023 -35.2051 C 24.9023 -36.0352 25 -36.8164 25.1953 -37.5977 L 25.1953 -81.8848 C 25.1953 -84.4238 23.1445 -86.377 20.6543 -86.377 C 18.1152 -86.377 16.0645 -84.4238 16.0645 -81.8848 L 16.0645 11.5234 C 16.0645 14.0137 18.1152 15.9668 20.6543 15.9668 Z M 101.904 13.4277 C 106.445 13.4277 110.303 10.0098 110.303 3.36914 L 110.303 -73.7793 C 110.303 -80.4199 106.445 -83.8379 101.904 -83.8379 C 99.5117 -83.8379 97.4609 -83.0078 95.1172 -81.6895 L 30.5664 -43.7012 C 27.5879 -41.8945 25.8789 -39.8926 25.1953 -37.5977 L 25.1953 -32.8613 C 25.8789 -30.5176 27.6367 -28.4668 30.5664 -26.709 L 95.1172 11.2793 C 97.4121 12.5977 99.5117 13.4277 101.904 13.4277 Z M 99.707 3.61328 C 99.1699 3.61328 98.584 3.4668 97.8516 2.97852 L 36.7676 -33.2031 C 35.791 -33.7402 35.2051 -34.2773 35.2051 -35.2051 C 35.2051 -36.1816 35.7422 -36.6211 36.7676 -37.207 L 97.8516 -73.3887 C 98.6328 -73.877 99.1699 -74.0234 99.707 -74.0234 C 100.684 -74.0234 101.709 -73.3398 101.709 -71.6797 L 101.709 1.26953 C 101.709 2.92969 100.684 3.61328 99.707 3.61328 Z"/>
  </g>
  <g id="Light-L" transform="matrix(1 0 0 1 1092.05 1556)">
   <path d="M 19.5312 14.7949 C 21.4355 14.7949 22.998 13.2812 22.998 11.377 L 22.998 -33.0078 C 22.7539 -33.7402 22.6562 -34.4727 22.6562 -35.2539 C 22.6562 -36.0352 22.7539 -36.7676 22.998 -37.4512 L 22.998 -81.7871 C 22.998 -83.6914 21.4355 -85.1562 19.5312 -85.1562 C 17.627 -85.1562 16.0645 -83.6914 16.0645 -81.7871 L 16.0645 11.377 C 16.0645 13.2812 17.627 14.7949 19.5312 14.7949 Z M 98.5352 12.2559 C 102.539 12.2559 106.104 9.27734 106.104 3.22266 L 106.104 -73.6328 C 106.104 -79.6875 102.539 -82.7148 98.5352 -82.7148 C 96.4355 -82.7148 94.4336 -81.8359 92.4316 -80.7129 L 27.4414 -42.4805 C 25.0488 -41.0645 23.584 -39.4043 22.998 -37.4512 L 22.998 -33.0078 C 23.584 -31.0059 25.0977 -29.3457 27.4414 -27.9785 L 92.4316 10.3027 C 94.3848 11.4258 96.4355 12.2559 98.5352 12.2559 Z M 97.1191 4.93164 C 96.4844 4.93164 95.8008 4.73633 94.8242 4.15039 L 32.1777 -32.8613 C 31.0059 -33.4961 30.3223 -34.1797 30.3223 -35.2539 C 30.3223 -36.3281 30.957 -36.8652 32.1777 -37.5977 L 94.8242 -74.6094 C 95.8496 -75.1953 96.4844 -75.3418 97.1191 -75.3418 C 98.1934 -75.3418 99.6094 -74.5605 99.6094 -72.3633 L 99.6094 1.95312 C 99.6094 4.15039 98.1934 4.93164 97.1191 4.93164 Z"/>
  </g>
  <g id="Thin-L" transform="matrix(1 0 0 1 798.121 1556)">
   <path d="M 18.0664 13.2324 C 19.1406 13.2324 20.0684 12.3535 20.0684 11.2305 L 20.0684 -33.252 C 19.8242 -33.8867 19.7266 -34.5215 19.7266 -35.2539 C 19.7266 -35.9863 19.8242 -36.6699 20.0684 -37.3047 L 20.0684 -81.6406 C 20.0684 -82.7148 19.1406 -83.5938 18.0664 -83.5938 C 16.9434 -83.5938 16.0645 -82.7148 16.0645 -81.6406 L 16.0645 11.2305 C 16.0645 12.3535 16.9434 13.2324 18.0664 13.2324 Z M 94.1406 10.7422 C 97.3633 10.7422 100.537 8.34961 100.537 2.97852 L 100.537 -73.4375 C 100.537 -78.7598 97.3633 -81.2012 94.1406 -81.2012 C 92.334 -81.2012 90.4785 -80.3223 88.916 -79.4434 L 23.291 -40.8203 C 21.6797 -39.8926 20.5566 -38.7695 20.0684 -37.3047 L 20.0684 -33.252 C 20.6055 -31.7383 21.7285 -30.5176 23.291 -29.5898 L 88.916 8.98438 C 90.3809 9.86328 92.334 10.7422 94.1406 10.7422 Z M 93.7012 6.64062 C 92.9199 6.64062 92.0898 6.49414 90.7715 5.71289 L 26.0254 -32.4219 C 24.6582 -33.2031 23.877 -34.0332 23.877 -35.2539 C 23.877 -36.5234 24.5605 -37.207 26.0254 -38.0371 L 90.7715 -76.1719 C 92.1387 -76.9531 92.9199 -77.0996 93.7012 -77.0996 C 94.9219 -77.0996 96.7773 -76.1719 96.7773 -73.291 L 96.7773 2.83203 C 96.7773 5.71289 94.9219 6.64062 93.7012 6.64062 Z"/>
  </g>
  <g id="Ultralight-L" transform="matrix(1 0 0 1 502.851 1556)">
   <path d="M 17.334 12.4512 C 18.0176 12.4512 18.5547 11.8652 18.5547 11.1816 L 18.5547 -33.3984 C 18.3594 -33.9355 18.2129 -34.5703 18.2129 -35.2539 C 18.2129 -35.9863 18.3594 -36.6211 18.5547 -37.207 L 18.5547 -81.543 C 18.5547 -82.2266 18.0176 -82.8125 17.334 -82.8125 C 16.6016 -82.8125 16.0645 -82.2266 16.0645 -81.543 L 16.0645 11.1816 C 16.0645 11.8652 16.6016 12.4512 17.334 12.4512 Z M 91.8457 9.96094 C 94.7266 9.96094 97.6562 7.86133 97.6562 2.88086 L 97.6562 -73.3398 C 97.6562 -78.3203 94.7266 -80.4199 91.8457 -80.4199 C 90.2344 -80.4199 88.4277 -79.541 87.0605 -78.8086 L 21.1426 -40.0391 C 19.9219 -39.3066 18.9941 -38.4277 18.5547 -37.207 L 18.5547 -33.3984 C 19.043 -32.0801 19.9707 -31.1523 21.1426 -30.4688 L 87.0605 8.30078 C 88.3301 9.0332 90.2344 9.96094 91.8457 9.96094 Z M 91.9434 7.51953 C 91.1133 7.51953 90.1855 7.37305 88.7207 6.54297 L 22.9004 -32.1777 C 21.4355 -33.0078 20.5566 -33.9355 20.5566 -35.2539 C 20.5566 -36.6211 21.3379 -37.3535 22.9004 -38.2812 L 88.7207 -77.002 C 90.2832 -77.832 91.1133 -78.0273 91.9434 -78.0273 C 93.2617 -78.0273 95.3125 -77.002 95.3125 -73.7793 L 95.3125 3.32031 C 95.3125 6.54297 93.2617 7.51953 91.9434 7.51953 Z"/>
  </g>
  <g id="Black-M" transform="matrix(1 0 0 1 2869.75 1126)">
   <path d="M 23.8281 9.81445 C 30.4688 9.81445 35.2051 5.17578 35.2051 -1.17188 L 35.2051 -32.9102 C 35.0098 -33.6914 34.9609 -34.4727 34.9609 -35.3027 C 34.9609 -36.1816 35.0098 -37.0117 35.2051 -37.7441 L 35.2051 -69.2871 C 35.2051 -75.6348 30.4688 -80.2734 23.8281 -80.2734 C 17.1875 -80.2734 12.4512 -75.6348 12.4512 -69.2871 L 12.4512 -1.17188 C 12.4512 5.17578 17.1875 9.81445 23.8281 9.81445 Z M 102.979 8.49609 C 109.375 8.49609 114.844 3.71094 114.844 -4.54102 L 114.844 -65.8691 C 114.844 -74.1699 109.521 -78.8574 103.125 -78.8574 C 100.146 -78.8574 97.4121 -78.2227 94.6289 -76.6602 L 43.3105 -46.8262 C 39.209 -44.4336 36.084 -41.8457 35.2051 -37.7441 L 35.2051 -32.9102 C 36.084 -28.7109 39.3555 -25.8789 43.3105 -23.584 L 94.6289 6.29883 C 97.3145 7.86133 100.098 8.49609 102.979 8.49609 Z M 96.6797 -13.0859 C 96.4844 -13.0859 96.2891 -13.1348 96.1914 -13.2324 L 58.4473 -34.9121 C 58.3984 -34.9609 58.3496 -35.1074 58.3496 -35.2539 C 58.3496 -35.4492 58.3496 -35.498 58.4473 -35.5469 L 96.1914 -57.1777 C 96.3379 -57.3242 96.4844 -57.2754 96.582 -57.2754 C 96.8262 -57.2754 96.875 -57.1777 96.875 -56.9824 L 96.875 -13.3789 C 96.875 -13.2324 96.8262 -13.0859 96.6797 -13.0859 Z"/>
  </g>
  <g id="Heavy-M" transform="matrix(1 0 0 1 2576.22 1126)">
   <path d="M 22.1191 8.74023 C 27.7344 8.74023 31.7871 4.73633 31.7871 -0.634766 L 31.7871 -33.0078 C 31.6406 -33.7402 31.543 -34.4727 31.543 -35.3027 C 31.543 -36.1328 31.6406 -36.8652 31.7871 -37.5977 L 31.7871 -69.8242 C 31.7871 -75.1953 27.7344 -79.1504 22.1191 -79.1504 C 16.5039 -79.1504 12.4512 -75.1953 12.4512 -69.8242 L 12.4512 -0.634766 C 12.4512 4.73633 16.5039 8.74023 22.1191 8.74023 Z M 97.7539 7.22656 C 103.564 7.22656 108.496 2.88086 108.496 -4.6875 L 108.496 -65.7227 C 108.496 -73.3398 103.662 -77.6367 97.8516 -77.6367 C 95.1172 -77.6367 92.627 -77.002 90.0391 -75.5371 L 39.1113 -45.8008 C 35.3516 -43.6035 32.6172 -41.1621 31.7871 -37.5977 L 31.7871 -33.0078 C 32.6172 -29.3457 35.4492 -26.709 39.1113 -24.6094 L 90.0391 5.12695 C 92.5781 6.5918 95.0684 7.22656 97.7539 7.22656 Z M 92.4316 -11.377 C 92.1875 -11.377 91.9922 -11.4746 91.7969 -11.5723 L 52.002 -34.668 C 51.8066 -34.7656 51.6602 -34.9609 51.6602 -35.2539 C 51.6602 -35.5469 51.7578 -35.6445 52.002 -35.791 L 91.7969 -58.8379 C 92.041 -58.9844 92.1875 -58.9844 92.3828 -58.9844 C 92.7246 -58.9844 92.9199 -58.7891 92.9199 -58.4473 L 92.9199 -11.9629 C 92.9199 -11.5723 92.7246 -11.377 92.4316 -11.377 Z"/>
  </g>
  <g id="Bold-M" transform="matrix(1 0 0 1 2283.07 1126)">
   <path d="M 20.2148 7.4707 C 24.707 7.4707 27.9785 4.24805 27.9785 -0.0488281 L 27.9785 -33.1055 C 27.832 -33.7891 27.7344 -34.5215 27.7344 -35.2539 C 27.7344 -36.0352 27.832 -36.7676 27.9785 -37.4512 L 27.9785 -70.3613 C 27.9785 -74.6582 24.707 -77.9297 20.2148 -77.9297 C 15.7715 -77.9297 12.4512 -74.6582 12.4512 -70.3613 L 12.4512 -0.0488281 C 12.4512 4.24805 15.7715 7.4707 20.2148 7.4707 Z M 91.9434 5.81055 C 97.0215 5.81055 101.367 1.95312 101.367 -4.88281 L 101.367 -65.5273 C 101.367 -72.4121 97.1191 -76.2207 91.9922 -76.2207 C 89.502 -76.2207 87.3047 -75.5859 84.9609 -74.2188 L 34.375 -44.6289 C 31.0059 -42.6758 28.7109 -40.4297 27.9785 -37.4512 L 27.9785 -33.1055 C 28.7598 -30.0293 31.1035 -27.6855 34.375 -25.7812 L 84.9609 3.80859 C 87.2559 5.17578 89.502 5.81055 91.9434 5.81055 Z M 87.6953 -9.47266 C 87.4512 -9.47266 87.1582 -9.57031 86.8652 -9.76562 L 44.7754 -34.375 C 44.4336 -34.5703 44.1895 -34.8145 44.1895 -35.2539 C 44.1895 -35.6445 44.3848 -35.8398 44.7754 -36.084 L 86.8652 -60.6445 C 87.207 -60.8398 87.4512 -60.9375 87.6465 -60.9375 C 88.1348 -60.9375 88.4766 -60.6445 88.4766 -60.0586 L 88.4766 -10.3516 C 88.4766 -9.76562 88.1348 -9.47266 87.6953 -9.47266 Z"/>
  </g>
  <g id="Semibold-M" transform="matrix(1 0 0 1 1988.8 1126)">
   <path d="M 18.8965 6.64062 C 22.6074 6.64062 25.3906 3.90625 25.3906 0.341797 L 25.3906 -33.2031 C 25.1953 -33.8379 25.1465 -34.5215 25.1465 -35.2539 C 25.1465 -35.9863 25.1953 -36.6699 25.3906 -37.3047 L 25.3906 -70.752 C 25.3906 -74.3652 22.6074 -77.0508 18.8965 -77.0508 C 15.2344 -77.0508 12.4512 -74.3652 12.4512 -70.752 L 12.4512 0.341797 C 12.4512 3.90625 15.2344 6.64062 18.8965 6.64062 Z M 87.8906 4.83398 C 92.5293 4.83398 96.4844 1.31836 96.4844 -4.98047 L 96.4844 -65.4297 C 96.4844 -71.7773 92.5781 -75.2441 87.9395 -75.2441 C 85.6445 -75.2441 83.6426 -74.6094 81.3965 -73.3398 L 31.1523 -43.8477 C 28.0273 -41.9922 26.0254 -39.9414 25.3906 -37.3047 L 25.3906 -33.2031 C 26.0742 -30.5176 28.0762 -28.3691 31.1523 -26.5625 L 81.3965 2.92969 C 83.6426 4.19922 85.6445 4.83398 87.8906 4.83398 Z M 84.4238 -8.1543 C 84.1309 -8.1543 83.8379 -8.30078 83.4473 -8.49609 L 39.8438 -34.1797 C 39.3555 -34.4727 39.0625 -34.7168 39.0625 -35.2051 C 39.0625 -35.7422 39.3066 -35.9863 39.8438 -36.2305 L 83.4473 -61.9141 C 83.8379 -62.1582 84.1309 -62.207 84.4238 -62.207 C 84.9609 -62.207 85.4004 -61.8652 85.4004 -61.1328 L 85.4004 -9.27734 C 85.4004 -8.54492 84.9609 -8.1543 84.4238 -8.1543 Z"/>
  </g>
  <g id="Medium-M" transform="matrix(1 0 0 1 1693.94 1126)">
   <path d="M 17.9199 5.95703 C 20.9961 5.95703 23.3887 3.66211 23.3887 0.634766 L 23.3887 -33.252 C 23.2422 -33.8867 23.1445 -34.5215 23.1445 -35.2539 C 23.1445 -35.9375 23.2422 -36.5723 23.3887 -37.207 L 23.3887 -71.0449 C 23.3887 -74.0723 20.9961 -76.3672 17.9199 -76.3672 C 14.8438 -76.3672 12.4512 -74.0723 12.4512 -71.0449 L 12.4512 0.634766 C 12.4512 3.66211 14.8438 5.95703 17.9199 5.95703 Z M 84.8633 4.10156 C 89.1602 4.10156 92.7734 0.878906 92.7734 -5.07812 L 92.7734 -65.332 C 92.7734 -71.2891 89.1602 -74.5117 84.8633 -74.5117 C 82.7148 -74.5117 80.8594 -73.877 78.7598 -72.6562 L 28.7109 -43.2617 C 25.7812 -41.5039 24.0234 -39.5996 23.3887 -37.207 L 23.3887 -33.252 C 24.0234 -30.8594 25.7812 -28.8574 28.7109 -27.1484 L 78.7598 2.24609 C 80.8594 3.4668 82.7148 4.10156 84.8633 4.10156 Z M 81.9824 -7.17773 C 81.6406 -7.17773 81.2988 -7.27539 80.9082 -7.51953 L 36.0352 -34.0332 C 35.498 -34.3262 35.1562 -34.668 35.1562 -35.2051 C 35.1562 -35.791 35.4492 -36.084 36.0352 -36.377 L 80.9082 -62.8906 C 81.3477 -63.1348 81.6406 -63.2324 81.9336 -63.2324 C 82.5684 -63.2324 83.1055 -62.8418 83.1055 -61.9629 L 83.1055 -8.44727 C 83.1055 -7.56836 82.5684 -7.17773 81.9824 -7.17773 Z"/>
  </g>
  <g id="Regular-M" transform="matrix(1 0 0 1 1399.67 1126)">
   <path d="M 16.6016 5.12695 C 18.9453 5.12695 20.8008 3.36914 20.8008 1.07422 L 20.8008 -33.3008 C 20.6543 -33.9355 20.5566 -34.5703 20.5566 -35.2051 C 20.5566 -35.8887 20.6543 -36.5234 20.8008 -37.1094 L 20.8008 -71.4355 C 20.8008 -73.7305 18.9453 -75.5371 16.6016 -75.5371 C 14.3066 -75.5371 12.4512 -73.7305 12.4512 -71.4355 L 12.4512 1.07422 C 12.4512 3.36914 14.3066 5.12695 16.6016 5.12695 Z M 80.8594 3.17383 C 84.7168 3.17383 87.8906 0.244141 87.8906 -5.22461 L 87.8906 -65.1855 C 87.8906 -70.6543 84.7168 -73.584 80.8594 -73.584 C 78.8574 -73.584 77.2461 -72.9492 75.2441 -71.7773 L 25.4883 -42.4805 C 22.8516 -40.918 21.3379 -39.1113 20.8008 -37.1094 L 20.8008 -33.3008 C 21.3379 -31.2988 22.8516 -29.4922 25.4883 -27.9297 L 75.2441 1.36719 C 77.2461 2.53906 78.8574 3.17383 80.8594 3.17383 Z M 78.7598 -5.85938 C 78.418 -5.85938 78.0273 -6.00586 77.5391 -6.29883 L 31.1523 -33.8379 C 30.4688 -34.2285 30.0781 -34.5703 30.0781 -35.2051 C 30.0781 -35.8887 30.4199 -36.1816 31.1523 -36.5723 L 77.5391 -64.1113 C 78.0273 -64.4043 78.418 -64.5508 78.7598 -64.5508 C 79.4434 -64.5508 80.0781 -64.0625 80.0781 -63.0859 L 80.0781 -7.32422 C 80.0781 -6.34766 79.4434 -5.85938 78.7598 -5.85938 Z"/>
  </g>
  <g id="Light-M" transform="matrix(1 0 0 1 1104.84 1126)">
   <path d="M 15.625 4.05273 C 17.3828 4.05273 18.7988 2.68555 18.7988 0.976562 L 18.7988 -33.4473 C 18.6523 -34.0332 18.5547 -34.6191 18.5547 -35.2051 C 18.5547 -35.8398 18.6523 -36.4258 18.7988 -37.0117 L 18.7988 -71.3379 C 18.7988 -73.0957 17.3828 -74.4629 15.625 -74.4629 C 13.8672 -74.4629 12.4512 -73.0957 12.4512 -71.3379 L 12.4512 0.976562 C 12.4512 2.68555 13.8672 4.05273 15.625 4.05273 Z M 77.8809 2.09961 C 81.2012 2.09961 84.1309 -0.390625 84.1309 -5.37109 L 84.1309 -65.0391 C 84.1309 -70.0195 81.2012 -72.5586 77.8809 -72.5586 C 76.123 -72.5586 74.5605 -71.875 72.8516 -70.8984 L 22.6562 -41.3574 C 20.5566 -40.1367 19.2871 -38.6719 18.7988 -37.0117 L 18.7988 -33.4473 C 19.3359 -31.7383 20.5566 -30.2734 22.6562 -29.0527 L 72.8516 0.488281 C 74.5117 1.46484 76.123 2.09961 77.8809 2.09961 Z M 76.416 -4.6875 C 75.9766 -4.6875 75.4883 -4.83398 74.8047 -5.22461 L 27.002 -33.5449 C 26.1719 -33.9844 25.6836 -34.4727 25.6836 -35.2051 C 25.6836 -35.9863 26.123 -36.377 27.002 -36.9141 L 74.8047 -65.1855 C 75.5371 -65.5762 75.9766 -65.7227 76.416 -65.7227 C 77.2461 -65.7227 78.125 -65.1855 78.125 -63.7207 L 78.125 -6.73828 C 78.125 -5.27344 77.2461 -4.6875 76.416 -4.6875 Z"/>
  </g>
  <g id="Thin-M" transform="matrix(1 0 0 1 810.646 1126)">
   <path d="M 14.3066 2.68555 C 15.332 2.68555 16.1621 1.85547 16.1621 0.830078 L 16.1621 -33.6426 C 16.0156 -34.1309 15.918 -34.668 15.918 -35.2539 C 15.918 -35.8398 16.0156 -36.377 16.1621 -36.8652 L 16.1621 -71.2402 C 16.1621 -72.2656 15.332 -73.0469 14.3066 -73.0469 C 13.2812 -73.0469 12.4512 -72.2656 12.4512 -71.2402 L 12.4512 0.830078 C 12.4512 1.85547 13.2812 2.68555 14.3066 2.68555 Z M 73.877 0.732422 C 76.5625 0.732422 79.1016 -1.26953 79.1016 -5.56641 L 79.1016 -64.8926 C 79.1016 -69.1895 76.5625 -71.1914 73.877 -71.1914 C 72.4609 -71.1914 70.9961 -70.5078 69.6777 -69.7754 L 18.9453 -39.9414 C 17.5293 -39.1113 16.6016 -38.1348 16.1621 -36.8652 L 16.1621 -33.6426 C 16.6016 -32.373 17.5781 -31.3477 18.9453 -30.5176 L 69.6777 -0.683594 C 70.8984 0.0488281 72.4609 0.732422 73.877 0.732422 Z M 73.3398 -3.125 C 72.8027 -3.125 72.168 -3.27148 71.2402 -3.80859 L 21.5332 -33.1543 C 20.459 -33.6914 19.9219 -34.3262 19.9219 -35.2539 C 19.9219 -36.1816 20.4102 -36.6699 21.5332 -37.3047 L 71.2402 -66.6016 C 72.2168 -67.1875 72.8027 -67.2852 73.3398 -67.2852 C 74.2676 -67.2852 75.5859 -66.6016 75.5859 -64.5508 L 75.5859 -5.9082 C 75.5859 -3.85742 74.2676 -3.125 73.3398 -3.125 Z"/>
  </g>
  <g id="Ultralight-M" transform="matrix(1 0 0 1 515.204 1126)">
   <path d="M 13.623 1.95312 C 14.3066 1.95312 14.8438 1.41602 14.8438 0.78125 L 14.8438 -33.7402 C 14.6973 -34.2285 14.5996 -34.7168 14.5996 -35.2539 C 14.5996 -35.8398 14.6484 -36.3281 14.8438 -36.7676 L 14.8438 -71.1426 C 14.8438 -71.8262 14.3066 -72.3633 13.623 -72.3633 C 12.9883 -72.3633 12.4512 -71.8262 12.4512 -71.1426 L 12.4512 0.78125 C 12.4512 1.41602 12.9883 1.95312 13.623 1.95312 Z M 71.875 0 C 74.2188 0 76.5625 -1.70898 76.5625 -5.66406 L 76.5625 -64.7949 C 76.5625 -68.75 74.2188 -70.459 71.875 -70.459 C 70.5566 -70.459 69.1406 -69.7754 68.0176 -69.1895 L 17.041 -39.209 C 15.9668 -38.5742 15.1855 -37.793 14.8438 -36.7676 L 14.8438 -33.7402 C 15.2344 -32.666 16.0156 -31.8848 17.041 -31.25 L 68.0176 -1.26953 C 69.0918 -0.683594 70.5566 0 71.875 0 Z M 71.7773 -2.34375 C 71.1426 -2.34375 70.459 -2.49023 69.3848 -3.125 L 18.7012 -32.959 C 17.5781 -33.5449 16.9434 -34.2773 16.9434 -35.2539 C 16.9434 -36.2793 17.5293 -36.8164 18.7012 -37.5 L 69.3848 -67.334 C 70.5078 -67.9688 71.1426 -68.1152 71.7773 -68.1152 C 72.8027 -68.1152 74.3164 -67.334 74.3164 -64.9414 L 74.3164 -5.51758 C 74.3164 -3.125 72.8027 -2.34375 71.7773 -2.34375 Z"/>
  </g>
  <g id="Black-S" transform="matrix(1 0 0 1 2883.74 696)">
   <path d="M 18.5547 0 C 23.6816 0 27.3438 -3.61328 27.3438 -8.49609 L 27.3438 -33.4473 C 27.1973 -34.0332 27.1484 -34.668 27.1484 -35.3027 C 27.1484 -35.9863 27.1973 -36.6211 27.3438 -37.207 L 27.3438 -61.9629 C 27.3438 -66.8457 23.6816 -70.459 18.5547 -70.459 C 13.4277 -70.459 9.76562 -66.8457 9.76562 -61.9629 L 9.76562 -8.49609 C 9.76562 -3.61328 13.4277 0 18.5547 0 Z M 80.3223 -1.07422 C 85.3027 -1.07422 89.5508 -4.78516 89.5508 -11.1816 L 89.5508 -59.2285 C 89.5508 -65.6738 85.4004 -69.3359 80.4199 -69.3359 C 78.125 -69.3359 75.9766 -68.8477 73.8281 -67.627 L 33.6426 -44.2383 C 30.4688 -42.3828 28.0273 -40.3809 27.3438 -37.207 L 27.3438 -33.4473 C 28.0273 -30.1758 30.5664 -27.9297 33.6426 -26.1719 L 73.8281 -2.7832 C 75.9277 -1.5625 78.0762 -1.07422 80.3223 -1.07422 Z M 75.4395 -17.7734 C 75.293 -17.7734 75.1465 -17.8223 75.0488 -17.8711 L 45.3613 -34.9609 C 45.3125 -35.0098 45.2637 -35.1074 45.2637 -35.2539 C 45.2637 -35.4004 45.2637 -35.4492 45.3613 -35.498 L 75.0488 -52.5391 C 75.1953 -52.6367 75.293 -52.6367 75.3906 -52.6367 C 75.5859 -52.6367 75.6348 -52.5391 75.6348 -52.3926 L 75.6348 -18.0176 C 75.6348 -17.8711 75.5859 -17.7734 75.4395 -17.7734 Z"/>
  </g>
  <g id="Heavy-S" transform="matrix(1 0 0 1 2589.25 696)">
   <path d="M 17.3828 -0.732422 C 21.7773 -0.732422 24.9512 -3.85742 24.9512 -8.10547 L 24.9512 -33.4961 C 24.8535 -34.0332 24.7559 -34.668 24.7559 -35.3027 C 24.7559 -35.9375 24.8535 -36.5234 24.9512 -37.1094 L 24.9512 -62.3535 C 24.9512 -66.6016 21.7773 -69.7266 17.3828 -69.7266 C 12.9395 -69.7266 9.76562 -66.6016 9.76562 -62.3535 L 9.76562 -8.10547 C 9.76562 -3.85742 12.9395 -0.732422 17.3828 -0.732422 Z M 76.6602 -1.9043 C 81.25 -1.9043 85.1074 -5.32227 85.1074 -11.2793 L 85.1074 -59.1309 C 85.1074 -65.0879 81.2988 -68.5059 76.7578 -68.5059 C 74.6094 -68.5059 72.6562 -68.0176 70.6055 -66.8457 L 30.7617 -43.5547 C 27.7344 -41.8457 25.5859 -39.8926 24.9512 -37.1094 L 24.9512 -33.4961 C 25.6348 -30.6152 27.832 -28.5156 30.7617 -26.8555 L 70.6055 -3.56445 C 72.6074 -2.39258 74.5605 -1.9043 76.6602 -1.9043 Z M 72.4609 -16.6016 C 72.3145 -16.6016 72.1191 -16.6504 71.9727 -16.748 L 40.8691 -34.8145 C 40.7227 -34.9121 40.625 -35.0098 40.625 -35.2539 C 40.625 -35.4492 40.7227 -35.5469 40.8691 -35.6445 L 71.9727 -53.6621 C 72.168 -53.8086 72.3145 -53.8086 72.4121 -53.8086 C 72.7051 -53.8086 72.8027 -53.6621 72.8027 -53.418 L 72.8027 -16.9922 C 72.8027 -16.748 72.7051 -16.6016 72.4609 -16.6016 Z"/>
  </g>
  <g id="Bold-S" transform="matrix(1 0 0 1 2295.03 696)">
   <path d="M 16.0156 -1.5625 C 19.6289 -1.5625 22.3145 -4.15039 22.3145 -7.61719 L 22.3145 -33.5449 C 22.168 -34.082 22.1191 -34.668 22.1191 -35.2539 C 22.1191 -35.8398 22.168 -36.4258 22.3145 -36.9629 L 22.3145 -62.793 C 22.3145 -66.2598 19.6289 -68.8965 16.0156 -68.8965 C 12.4512 -68.8965 9.76562 -66.2598 9.76562 -62.793 L 9.76562 -7.61719 C 9.76562 -4.15039 12.4512 -1.5625 16.0156 -1.5625 Z M 72.5586 -2.88086 C 76.6602 -2.88086 80.127 -5.95703 80.127 -11.4258 L 80.127 -58.9844 C 80.127 -64.502 76.709 -67.5293 72.6074 -67.5293 C 70.6543 -67.5293 68.8965 -67.041 66.9922 -65.9668 L 27.4902 -42.8223 C 24.707 -41.2109 22.9004 -39.4043 22.3145 -36.9629 L 22.3145 -33.5449 C 22.9004 -31.1035 24.7559 -29.1504 27.4902 -27.5879 L 66.9922 -4.44336 C 68.8965 -3.36914 70.6055 -2.88086 72.5586 -2.88086 Z M 69.1406 -15.2832 C 68.9453 -15.2832 68.75 -15.3809 68.5547 -15.4785 L 35.8887 -34.6191 C 35.6445 -34.7656 35.498 -34.9121 35.498 -35.2539 C 35.498 -35.5469 35.5957 -35.6445 35.8887 -35.8398 L 68.5547 -54.9316 C 68.7988 -55.0781 68.9453 -55.127 69.0918 -55.127 C 69.4336 -55.127 69.6289 -54.9316 69.6289 -54.5898 L 69.6289 -15.8691 C 69.6289 -15.4785 69.4336 -15.2832 69.1406 -15.2832 Z"/>
  </g>
  <g id="Semibold-S" transform="matrix(1 0 0 1 2000.03 696)">
   <path d="M 15.1367 -2.09961 C 18.1641 -2.09961 20.459 -4.3457 20.459 -7.32422 L 20.459 -33.5938 C 20.3613 -34.1309 20.2637 -34.668 20.2637 -35.2539 C 20.2637 -35.8398 20.3613 -36.377 20.459 -36.9141 L 20.459 -63.1348 C 20.459 -66.0645 18.1641 -68.3105 15.1367 -68.3105 C 12.0605 -68.3105 9.76562 -66.0645 9.76562 -63.1348 L 9.76562 -7.32422 C 9.76562 -4.3457 12.0605 -2.09961 15.1367 -2.09961 Z M 69.7266 -3.51562 C 73.5352 -3.51562 76.709 -6.39648 76.709 -11.4746 L 76.709 -58.9355 C 76.709 -64.0625 73.584 -66.8945 69.7754 -66.8945 C 67.9199 -66.8945 66.3574 -66.4062 64.502 -65.332 L 25.2441 -42.334 C 22.6074 -40.7715 20.9961 -39.0625 20.459 -36.9141 L 20.459 -33.5938 C 20.9961 -31.3965 22.6562 -29.5898 25.2441 -28.0762 L 64.502 -5.07812 C 66.3086 -4.00391 67.8711 -3.51562 69.7266 -3.51562 Z M 66.8457 -14.4043 C 66.6504 -14.4043 66.4062 -14.4531 66.2109 -14.5996 L 32.4219 -34.4727 C 32.0801 -34.668 31.9336 -34.8633 31.9336 -35.2051 C 31.9336 -35.5957 32.0801 -35.7422 32.4219 -35.9375 L 66.2109 -55.8105 C 66.4551 -55.957 66.6504 -56.0059 66.7969 -56.0059 C 67.2363 -56.0059 67.4805 -55.7617 67.4805 -55.3711 L 67.4805 -15.0391 C 67.4805 -14.6484 67.2363 -14.4043 66.8457 -14.4043 Z"/>
  </g>
  <g id="Medium-S" transform="matrix(1 0 0 1 1704.64 696)">
   <path d="M 14.4043 -2.53906 C 17.041 -2.53906 19.0918 -4.49219 19.0918 -7.08008 L 19.0918 -33.6426 C 18.9453 -34.1309 18.8965 -34.668 18.8965 -35.2051 C 18.8965 -35.791 18.9453 -36.3281 19.0918 -36.8164 L 19.0918 -63.3301 C 19.0918 -65.918 17.041 -67.8711 14.4043 -67.8711 C 11.8164 -67.8711 9.76562 -65.918 9.76562 -63.3301 L 9.76562 -7.08008 C 9.76562 -4.49219 11.8164 -2.53906 14.4043 -2.53906 Z M 67.627 -4.00391 C 71.1426 -4.00391 74.0723 -6.68945 74.0723 -11.5723 L 74.0723 -58.8379 C 74.0723 -63.7207 71.1914 -66.4062 67.627 -66.4062 C 65.8203 -66.4062 64.4043 -65.918 62.5977 -64.8926 L 23.5352 -41.9434 C 21.0449 -40.4785 19.5801 -38.8184 19.0918 -36.8164 L 19.0918 -33.6426 C 19.5801 -31.6406 21.0449 -29.9316 23.5352 -28.4668 L 62.5977 -5.51758 C 64.3555 -4.49219 65.8203 -4.00391 67.627 -4.00391 Z M 65.0879 -13.7207 C 64.8926 -13.7207 64.6484 -13.7695 64.4043 -13.916 L 29.834 -34.4238 C 29.4434 -34.6191 29.1992 -34.8145 29.1992 -35.2051 C 29.1992 -35.5957 29.4434 -35.791 29.834 -36.0352 L 64.4043 -56.4941 C 64.6484 -56.6406 64.8926 -56.6895 65.0879 -56.6895 C 65.5273 -56.6895 65.8203 -56.4453 65.8203 -55.957 L 65.8203 -14.4531 C 65.8203 -13.9648 65.5273 -13.7207 65.0879 -13.7207 Z"/>
  </g>
  <g id="Regular-S" transform="matrix(1 0 0 1 1409.61 696)">
   <path d="M 13.5254 -3.07617 C 15.5762 -3.07617 17.2852 -4.6875 17.2852 -6.73828 L 17.2852 -33.6426 C 17.1387 -34.1797 17.0898 -34.668 17.0898 -35.2051 C 17.0898 -35.7422 17.1387 -36.2305 17.2852 -36.7676 L 17.2852 -63.6719 C 17.2852 -65.7227 15.5762 -67.334 13.5254 -67.334 C 11.4746 -67.334 9.76562 -65.7227 9.76562 -63.6719 L 9.76562 -6.73828 C 9.76562 -4.6875 11.4746 -3.07617 13.5254 -3.07617 Z M 64.7949 -4.63867 C 68.0664 -4.63867 70.7031 -7.12891 70.7031 -11.6211 L 70.7031 -58.7891 C 70.7031 -63.2812 68.0664 -65.7715 64.7949 -65.7715 C 63.1348 -65.7715 61.8164 -65.2832 60.1074 -64.2578 L 21.3379 -41.4551 C 18.9941 -40.0391 17.7246 -38.4766 17.2852 -36.7676 L 17.2852 -33.6426 C 17.7246 -31.9336 18.9941 -30.3711 21.3379 -29.0039 L 60.1074 -6.15234 C 61.8164 -5.12695 63.1348 -4.63867 64.7949 -4.63867 Z M 62.8418 -12.793 C 62.5977 -12.793 62.3535 -12.8906 62.0605 -13.0859 L 26.416 -34.2773 C 25.9277 -34.5215 25.6836 -34.7656 25.6836 -35.2051 C 25.6836 -35.6445 25.9277 -35.8887 26.416 -36.1328 L 62.0605 -57.3242 C 62.3535 -57.5195 62.5977 -57.6172 62.8418 -57.6172 C 63.3301 -57.6172 63.6719 -57.2754 63.6719 -56.7383 L 63.6719 -13.6719 C 63.6719 -13.1348 63.3301 -12.793 62.8418 -12.793 Z"/>
  </g>
  <g id="Light-S" transform="matrix(1 0 0 1 1114.56 696)">
   <path d="M 12.6465 -4.05273 C 14.209 -4.05273 15.5273 -5.27344 15.5273 -6.83594 L 15.5273 -33.7891 C 15.3809 -34.2285 15.332 -34.7168 15.332 -35.2051 C 15.332 -35.7422 15.3809 -36.1816 15.5273 -36.6699 L 15.5273 -63.5742 C 15.5273 -65.1367 14.209 -66.3574 12.6465 -66.3574 C 11.0352 -66.3574 9.76562 -65.1367 9.76562 -63.5742 L 9.76562 -6.83594 C 9.76562 -5.27344 11.0352 -4.05273 12.6465 -4.05273 Z M 62.1582 -5.56641 C 64.9902 -5.56641 67.3828 -7.71484 67.3828 -11.7676 L 67.3828 -58.6426 C 67.3828 -62.7441 64.9902 -64.8438 62.1582 -64.8438 C 60.6934 -64.8438 59.4238 -64.3555 58.0078 -63.5254 L 18.8477 -40.4785 C 16.9922 -39.3555 15.918 -38.0859 15.5273 -36.6699 L 15.5273 -33.7891 C 15.918 -32.3242 16.9922 -31.0547 18.8477 -29.9805 L 58.0078 -6.93359 C 59.4238 -6.10352 60.6934 -5.56641 62.1582 -5.56641 Z M 60.791 -11.7676 C 60.4492 -11.7676 60.1074 -11.8652 59.668 -12.1094 L 22.7539 -34.0332 C 22.168 -34.3262 21.8262 -34.668 21.8262 -35.2051 C 21.8262 -35.791 22.1191 -36.084 22.7539 -36.4258 L 59.668 -58.3008 C 60.1562 -58.5449 60.4492 -58.6426 60.791 -58.6426 C 61.377 -58.6426 61.9629 -58.252 61.9629 -57.2754 L 61.9629 -13.1348 C 61.9629 -12.1582 61.377 -11.7676 60.791 -11.7676 Z"/>
  </g>
  <g id="Thin-S" transform="matrix(1 0 0 1 820.07 696)">
   <path d="M 11.4746 -5.27344 C 12.4023 -5.27344 13.1836 -6.00586 13.1836 -6.93359 L 13.1836 -33.9355 C 13.0371 -34.375 12.9883 -34.7656 12.9883 -35.2539 C 12.9883 -35.6934 13.0371 -36.1328 13.1836 -36.5234 L 13.1836 -63.4766 C 13.1836 -64.4043 12.4023 -65.1367 11.4746 -65.1367 C 10.5469 -65.1367 9.76562 -64.4043 9.76562 -63.4766 L 9.76562 -6.93359 C 9.76562 -6.00586 10.5469 -5.27344 11.4746 -5.27344 Z M 58.6426 -6.78711 C 60.8887 -6.78711 62.9395 -8.44727 62.9395 -11.9629 L 62.9395 -58.4961 C 62.9395 -62.0117 60.8887 -63.6719 58.6426 -63.6719 C 57.4707 -63.6719 56.2988 -63.1348 55.1758 -62.5 L 15.5762 -39.209 C 14.3066 -38.4277 13.5254 -37.5977 13.1836 -36.5234 L 13.1836 -33.9355 C 13.5254 -32.8613 14.3555 -31.9824 15.5762 -31.25 L 55.1758 -7.95898 C 56.25 -7.32422 57.4707 -6.78711 58.6426 -6.78711 Z M 58.0566 -10.4004 C 57.666 -10.4004 57.1777 -10.498 56.4941 -10.8887 L 17.9199 -33.6914 C 17.1387 -34.082 16.6992 -34.5703 16.6992 -35.2539 C 16.6992 -35.9375 17.0898 -36.3281 17.9199 -36.7676 L 56.4941 -59.5703 C 57.2266 -59.9609 57.666 -60.0586 58.0566 -60.0586 C 58.7891 -60.0586 59.7168 -59.5215 59.7168 -58.0078 L 59.7168 -12.4023 C 59.7168 -10.8887 58.7891 -10.4004 58.0566 -10.4004 Z"/>
  </g>
  <g id="Ultralight-S" transform="matrix(1 0 0 1 524.482 696)">
   <path d="M 10.8887 -5.9082 C 11.4746 -5.9082 12.0117 -6.39648 12.0117 -7.03125 L 12.0117 -34.0332 C 11.8652 -34.4238 11.8164 -34.8145 11.8164 -35.2539 C 11.8164 -35.6934 11.8652 -36.084 12.0117 -36.4746 L 12.0117 -63.3789 C 12.0117 -64.0137 11.4746 -64.502 10.8887 -64.502 C 10.2539 -64.502 9.76562 -64.0137 9.76562 -63.3789 L 9.76562 -7.03125 C 9.76562 -6.39648 10.2539 -5.9082 10.8887 -5.9082 Z M 56.8359 -7.42188 C 58.7891 -7.42188 60.6934 -8.83789 60.6934 -12.0605 L 60.6934 -58.3984 C 60.6934 -61.6211 58.7891 -63.0371 56.8359 -63.0371 C 55.8105 -63.0371 54.6875 -62.5 53.7598 -61.9629 L 13.8672 -38.5254 C 12.9395 -37.9883 12.3047 -37.3047 12.0117 -36.4746 L 12.0117 -34.0332 C 12.3047 -33.1543 12.9883 -32.4707 13.8672 -31.9336 L 53.7598 -8.49609 C 54.6387 -7.95898 55.8105 -7.42188 56.8359 -7.42188 Z M 56.6895 -9.66797 C 56.2012 -9.66797 55.6641 -9.76562 54.8828 -10.2539 L 15.4297 -33.4961 C 14.5508 -33.9844 14.0625 -34.4727 14.0625 -35.2539 C 14.0625 -36.0352 14.502 -36.4258 15.4297 -36.9629 L 54.8828 -60.2051 C 55.7129 -60.6934 56.2012 -60.791 56.6895 -60.791 C 57.4219 -60.791 58.5449 -60.2051 58.5449 -58.3984 L 58.5449 -12.0605 C 58.5449 -10.2539 57.4219 -9.66797 56.6895 -9.66797 Z"/>
  </g>
 </g>
</svg>
