<?xml version="1.0" encoding="UTF-8"?>
<!--Generator: Apple Native CoreSVG 123-->
<!DOCTYPE svg
PUBLIC "-//W3C//DTD SVG 1.1//EN"
       "http://www.w3.org/Graphics/SVG/1.1/DTD/svg11.dtd">
<svg version="1.1" xmlns="http://www.w3.org/2000/svg" xmlns:xlink="http://www.w3.org/1999/xlink" width="3300" height="2200">
 <!--glyph: "uni100448.medium", point size: 100.000000, font version: "Version 15.0d7e11", template writer version: "5"-->
 <g id="Notes">
  <rect height="2200" id="artboard" style="fill:white;opacity:1" width="3300" x="0" y="0"/>
  <line id="" style="fill:none;stroke:black;opacity:1;stroke-width:0.5;" x1="263" x2="3036" y1="292" y2="292"/>
  <text style="stroke:none;fill:black;font-family:-apple-system,&quot;SF Pro Display&quot;,&quot;SF Pro Text&quot;,Helvetica,sans-serif;font-weight:bold;" transform="matrix(1 0 0 1 263 322)">Weight/Scale Variations</text>
  <text style="stroke:none;fill:black;font-family:-apple-system,&quot;SF Pro Display&quot;,&quot;SF Pro Text&quot;,Helvetica,sans-serif;text-anchor:middle;" transform="matrix(1 0 0 1 559.711 322)">Ultralight</text>
  <text style="stroke:none;fill:black;font-family:-apple-system,&quot;SF Pro Display&quot;,&quot;SF Pro Text&quot;,Helvetica,sans-serif;text-anchor:middle;" transform="matrix(1 0 0 1 856.422 322)">Thin</text>
  <text style="stroke:none;fill:black;font-family:-apple-system,&quot;SF Pro Display&quot;,&quot;SF Pro Text&quot;,Helvetica,sans-serif;text-anchor:middle;" transform="matrix(1 0 0 1 1153.13 322)">Light</text>
  <text style="stroke:none;fill:black;font-family:-apple-system,&quot;SF Pro Display&quot;,&quot;SF Pro Text&quot;,Helvetica,sans-serif;text-anchor:middle;" transform="matrix(1 0 0 1 1449.84 322)">Regular</text>
  <text style="stroke:none;fill:black;font-family:-apple-system,&quot;SF Pro Display&quot;,&quot;SF Pro Text&quot;,Helvetica,sans-serif;text-anchor:middle;" transform="matrix(1 0 0 1 1746.56 322)">Medium</text>
  <text style="stroke:none;fill:black;font-family:-apple-system,&quot;SF Pro Display&quot;,&quot;SF Pro Text&quot;,Helvetica,sans-serif;text-anchor:middle;" transform="matrix(1 0 0 1 2043.27 322)">Semibold</text>
  <text style="stroke:none;fill:black;font-family:-apple-system,&quot;SF Pro Display&quot;,&quot;SF Pro Text&quot;,Helvetica,sans-serif;text-anchor:middle;" transform="matrix(1 0 0 1 2339.98 322)">Bold</text>
  <text style="stroke:none;fill:black;font-family:-apple-system,&quot;SF Pro Display&quot;,&quot;SF Pro Text&quot;,Helvetica,sans-serif;text-anchor:middle;" transform="matrix(1 0 0 1 2636.69 322)">Heavy</text>
  <text style="stroke:none;fill:black;font-family:-apple-system,&quot;SF Pro Display&quot;,&quot;SF Pro Text&quot;,Helvetica,sans-serif;text-anchor:middle;" transform="matrix(1 0 0 1 2933.4 322)">Black</text>
  <line id="" style="fill:none;stroke:black;opacity:1;stroke-width:0.5;" x1="263" x2="3036" y1="1903" y2="1903"/>
  <g id="" transform="matrix(1 0 0 1 263 1933)">
   <path d="M 9.24805 0.830078 C 13.5547 0.830078 17.1387 -2.74414 17.1387 -7.05078 C 17.1387 -11.3574 13.5449 -14.9316 9.23828 -14.9316 C 4.94141 -14.9316 1.36719 -11.3574 1.36719 -7.05078 C 1.36719 -2.74414 4.95117 0.830078 9.24805 0.830078 Z M 9.24805 -0.654297 C 5.70312 -0.654297 2.87109 -3.49609 2.87109 -7.05078 C 2.87109 -10.6055 5.69336 -13.4473 9.23828 -13.4473 C 12.793 -13.4473 15.6348 -10.6055 15.6445 -7.05078 C 15.6543 -3.49609 12.8027 -0.654297 9.24805 -0.654297 Z M 9.22852 -3.42773 C 9.69727 -3.42773 9.9707 -3.74023 9.9707 -4.25781 L 9.9707 -6.31836 L 12.1973 -6.31836 C 12.6953 -6.31836 13.0371 -6.57227 13.0371 -7.04102 C 13.0371 -7.51953 12.7148 -7.7832 12.1973 -7.7832 L 9.9707 -7.7832 L 9.9707 -10.0098 C 9.9707 -10.5273 9.69727 -10.8496 9.22852 -10.8496 C 8.75977 -10.8496 8.50586 -10.5078 8.50586 -10.0098 L 8.50586 -7.7832 L 6.29883 -7.7832 C 5.78125 -7.7832 5.44922 -7.51953 5.44922 -7.04102 C 5.44922 -6.57227 5.80078 -6.31836 6.29883 -6.31836 L 8.50586 -6.31836 L 8.50586 -4.25781 C 8.50586 -3.75977 8.75977 -3.42773 9.22852 -3.42773 Z"/>
  </g>
  <g id="" transform="matrix(1 0 0 1 281.506 1933)">
   <path d="M 11.709 2.91016 C 17.1582 2.91016 21.6699 -1.60156 21.6699 -7.05078 C 21.6699 -12.4902 17.1484 -17.0117 11.6992 -17.0117 C 6.25977 -17.0117 1.74805 -12.4902 1.74805 -7.05078 C 1.74805 -1.60156 6.26953 2.91016 11.709 2.91016 Z M 11.709 1.25 C 7.09961 1.25 3.41797 -2.44141 3.41797 -7.05078 C 3.41797 -11.6504 7.08984 -15.3516 11.6992 -15.3516 C 16.3086 -15.3516 20 -11.6504 20.0098 -7.05078 C 20.0195 -2.44141 16.3184 1.25 11.709 1.25 Z M 11.6895 -2.41211 C 12.207 -2.41211 12.5195 -2.77344 12.5195 -3.33984 L 12.5195 -6.23047 L 15.5762 -6.23047 C 16.123 -6.23047 16.5039 -6.51367 16.5039 -7.03125 C 16.5039 -7.55859 16.1426 -7.86133 15.5762 -7.86133 L 12.5195 -7.86133 L 12.5195 -10.9277 C 12.5195 -11.5039 12.207 -11.8555 11.6895 -11.8555 C 11.1719 -11.8555 10.8789 -11.4844 10.8789 -10.9277 L 10.8789 -7.86133 L 7.83203 -7.86133 C 7.26562 -7.86133 6.89453 -7.55859 6.89453 -7.03125 C 6.89453 -6.51367 7.28516 -6.23047 7.83203 -6.23047 L 10.8789 -6.23047 L 10.8789 -3.33984 C 10.8789 -2.79297 11.1719 -2.41211 11.6895 -2.41211 Z"/>
  </g>
  <g id="" transform="matrix(1 0 0 1 304.924 1933)">
   <path d="M 14.9707 5.67383 C 21.9336 5.67383 27.6953 -0.078125 27.6953 -7.04102 C 27.6953 -14.0039 21.9238 -19.7559 14.9609 -19.7559 C 8.00781 -19.7559 2.25586 -14.0039 2.25586 -7.04102 C 2.25586 -0.078125 8.01758 5.67383 14.9707 5.67383 Z M 14.9707 3.85742 C 8.93555 3.85742 4.08203 -1.00586 4.08203 -7.04102 C 4.08203 -13.0762 8.92578 -17.9395 14.9609 -17.9395 C 21.0059 -17.9395 25.8594 -13.0762 25.8691 -7.04102 C 25.8789 -1.00586 21.0156 3.85742 14.9707 3.85742 Z M 14.9512 -1.06445 C 15.5176 -1.06445 15.8691 -1.45508 15.8691 -2.06055 L 15.8691 -6.13281 L 20.1074 -6.13281 C 20.6934 -6.13281 21.1133 -6.46484 21.1133 -7.02148 C 21.1133 -7.59766 20.7227 -7.93945 20.1074 -7.93945 L 15.8691 -7.93945 L 15.8691 -12.1875 C 15.8691 -12.8027 15.5176 -13.1934 14.9512 -13.1934 C 14.3848 -13.1934 14.0625 -12.7832 14.0625 -12.1875 L 14.0625 -7.93945 L 9.83398 -7.93945 C 9.21875 -7.93945 8.80859 -7.59766 8.80859 -7.02148 C 8.80859 -6.46484 9.23828 -6.13281 9.83398 -6.13281 L 14.0625 -6.13281 L 14.0625 -2.06055 C 14.0625 -1.47461 14.3848 -1.06445 14.9512 -1.06445 Z"/>
  </g>
  <text style="stroke:none;fill:black;font-family:-apple-system,&quot;SF Pro Display&quot;,&quot;SF Pro Text&quot;,Helvetica,sans-serif;font-weight:bold;" transform="matrix(1 0 0 1 263 1953)">Design Variations</text>
  <text style="stroke:none;fill:black;font-family:-apple-system,&quot;SF Pro Display&quot;,&quot;SF Pro Text&quot;,Helvetica,sans-serif;" transform="matrix(1 0 0 1 263 1971)">Symbols are supported in up to nine weights and three scales.</text>
  <text style="stroke:none;fill:black;font-family:-apple-system,&quot;SF Pro Display&quot;,&quot;SF Pro Text&quot;,Helvetica,sans-serif;" transform="matrix(1 0 0 1 263 1989)">For optimal layout with text and other symbols, vertically align</text>
  <text style="stroke:none;fill:black;font-family:-apple-system,&quot;SF Pro Display&quot;,&quot;SF Pro Text&quot;,Helvetica,sans-serif;" transform="matrix(1 0 0 1 263 2007)">symbols with the adjacent text.</text>
  <rect height="14" id="" style="fill:#00AEEF;stroke:none;opacity:0.4;" width="3" x="776" y="1919"/>
  <g id="" transform="matrix(1 0 0 1 779 1933)">
   <path d="M 10.5273 0 L 12.373 0 L 7.17773 -14.0918 L 5.43945 -14.0918 L 0.244141 0 L 2.08984 0 L 3.50586 -4.0332 L 9.11133 -4.0332 Z M 6.2793 -11.9531 L 6.33789 -11.9531 L 8.59375 -5.52734 L 4.02344 -5.52734 Z"/>
  </g>
  <rect height="14" id="" style="fill:#00AEEF;stroke:none;opacity:0.4;" width="3" x="791.617" y="1919"/>
  <text style="stroke:none;fill:black;font-family:-apple-system,&quot;SF Pro Display&quot;,&quot;SF Pro Text&quot;,Helvetica,sans-serif;font-weight:bold;" transform="matrix(1 0 0 1 776 1953)">Margins</text>
  <text style="stroke:none;fill:black;font-family:-apple-system,&quot;SF Pro Display&quot;,&quot;SF Pro Text&quot;,Helvetica,sans-serif;" transform="matrix(1 0 0 1 776 1971)">Leading and trailing margins on the left and right side of each symbol</text>
  <text style="stroke:none;fill:black;font-family:-apple-system,&quot;SF Pro Display&quot;,&quot;SF Pro Text&quot;,Helvetica,sans-serif;" transform="matrix(1 0 0 1 776 1989)">can be adjusted by modifying the width of the blue rectangles.</text>
  <text style="stroke:none;fill:black;font-family:-apple-system,&quot;SF Pro Display&quot;,&quot;SF Pro Text&quot;,Helvetica,sans-serif;" transform="matrix(1 0 0 1 776 2007)">Modifications are automatically applied proportionally to all</text>
  <text style="stroke:none;fill:black;font-family:-apple-system,&quot;SF Pro Display&quot;,&quot;SF Pro Text&quot;,Helvetica,sans-serif;" transform="matrix(1 0 0 1 776 2025)">scales and weights.</text>
  <g id="" transform="matrix(1 0 0 1 1289 1933)">
   <path d="M 2.83203 3.11523 L 4.375 4.6582 C 5.22461 5.48828 6.19141 5.41992 7.06055 4.46289 L 17.2754 -6.66016 C 17.7051 -6.36719 18.0957 -6.37695 18.5645 -6.47461 L 19.6094 -6.68945 L 20.3027 -5.99609 L 20.2539 -5.47852 C 20.1855 -4.95117 20.3516 -4.53125 20.8496 -4.0332 L 21.6602 -3.22266 C 22.168 -2.71484 22.8223 -2.68555 23.3008 -3.16406 L 26.5527 -6.41602 C 27.0312 -6.89453 27.0117 -7.54883 26.5039 -8.05664 L 25.6836 -8.87695 C 25.1855 -9.375 24.7754 -9.55078 24.2383 -9.47266 L 23.7109 -9.41406 L 23.0566 -10.0781 L 23.3398 -11.2207 C 23.4863 -11.7871 23.3398 -12.2559 22.7148 -12.8613 L 20.3027 -15.2539 C 16.7578 -18.7793 12.2266 -18.6719 9.11133 -15.5371 C 8.69141 -15.1074 8.64258 -14.5215 8.91602 -14.0918 C 9.15039 -13.7207 9.62891 -13.4961 10.2734 -13.6621 C 11.7871 -14.043 13.3008 -13.9258 14.7852 -12.9199 L 14.1602 -11.3379 C 13.9258 -10.752 13.9453 -10.2734 14.1797 -9.83398 L 3.01758 0.439453 C 2.08008 1.30859 1.97266 2.25586 2.83203 3.11523 Z M 10.6738 -15.1465 C 13.3398 -17.1387 16.6504 -16.8262 19.0527 -14.4141 L 21.6797 -11.8066 C 21.9141 -11.5723 21.9434 -11.3867 21.8848 -11.0938 L 21.5039 -9.53125 L 23.0762 -7.95898 L 24.043 -8.04688 C 24.3262 -8.07617 24.4141 -8.05664 24.6387 -7.83203 L 25.2637 -7.20703 L 22.5098 -4.46289 L 21.8848 -5.07812 C 21.6602 -5.30273 21.6406 -5.40039 21.6699 -5.68359 L 21.7578 -6.64062 L 20.1953 -8.20312 L 18.5742 -7.89062 C 18.291 -7.83203 18.1445 -7.83203 17.9102 -8.07617 L 15.7324 -10.2539 C 15.5078 -10.4883 15.4785 -10.625 15.6055 -10.9473 L 16.5527 -13.2227 C 14.9512 -14.7559 12.8418 -15.6055 10.8008 -14.9512 C 10.7129 -14.9219 10.6445 -14.9414 10.6152 -14.9805 C 10.5859 -15.0293 10.5859 -15.0781 10.6738 -15.1465 Z M 4.10156 2.41211 C 3.61328 1.91406 3.78906 1.61133 4.12109 1.30859 L 15.0781 -8.80859 L 16.3086 -7.57812 L 6.15234 3.34961 C 5.84961 3.68164 5.46875 3.7793 5.06836 3.37891 Z"/>
  </g>
  <text style="stroke:none;fill:black;font-family:-apple-system,&quot;SF Pro Display&quot;,&quot;SF Pro Text&quot;,Helvetica,sans-serif;font-weight:bold;" transform="matrix(1 0 0 1 1289 1953)">Exporting</text>
  <text style="stroke:none;fill:black;font-family:-apple-system,&quot;SF Pro Display&quot;,&quot;SF Pro Text&quot;,Helvetica,sans-serif;" transform="matrix(1 0 0 1 1289 1971)">Symbols should be outlined when exporting to ensure the</text>
  <text style="stroke:none;fill:black;font-family:-apple-system,&quot;SF Pro Display&quot;,&quot;SF Pro Text&quot;,Helvetica,sans-serif;" transform="matrix(1 0 0 1 1289 1989)">design is preserved when submitting to Xcode.</text>
  <text id="template-version" style="stroke:none;fill:black;font-family:-apple-system,&quot;SF Pro Display&quot;,&quot;SF Pro Text&quot;,Helvetica,sans-serif;text-anchor:end;" transform="matrix(1 0 0 1 3036 1933)">Template v.1.0</text>
  <text style="stroke:none;fill:black;font-family:-apple-system,&quot;SF Pro Display&quot;,&quot;SF Pro Text&quot;,Helvetica,sans-serif;text-anchor:end;" transform="matrix(1 0 0 1 3036 1951)">Generated from headphones</text>
  <text style="stroke:none;fill:black;font-family:-apple-system,&quot;SF Pro Display&quot;,&quot;SF Pro Text&quot;,Helvetica,sans-serif;text-anchor:end;" transform="matrix(1 0 0 1 3036 1969)">Typeset at 100 points</text>
  <text style="stroke:none;fill:black;font-family:-apple-system,&quot;SF Pro Display&quot;,&quot;SF Pro Text&quot;,Helvetica,sans-serif;" transform="matrix(1 0 0 1 263 726)">Small</text>
  <text style="stroke:none;fill:black;font-family:-apple-system,&quot;SF Pro Display&quot;,&quot;SF Pro Text&quot;,Helvetica,sans-serif;" transform="matrix(1 0 0 1 263 1156)">Medium</text>
  <text style="stroke:none;fill:black;font-family:-apple-system,&quot;SF Pro Display&quot;,&quot;SF Pro Text&quot;,Helvetica,sans-serif;" transform="matrix(1 0 0 1 263 1586)">Large</text>
 </g>
 <g id="Guides">
  <g id="H-reference" style="fill:#27AAE1;stroke:none;" transform="matrix(1 0 0 1 339 696)">
   <path d="M 54.9316 0 L 57.666 0 L 30.5664 -70.459 L 28.0762 -70.459 L 0.976562 0 L 3.66211 0 L 12.9395 -24.4629 L 45.7031 -24.4629 Z M 29.1992 -67.0898 L 29.4434 -67.0898 L 44.8242 -26.709 L 13.8184 -26.709 Z"/>
  </g>
  <line id="Baseline-S" style="fill:none;stroke:#27AAE1;opacity:1;stroke-width:0.577;" x1="263" x2="3036" y1="696" y2="696"/>
  <line id="Capline-S" style="fill:none;stroke:#27AAE1;opacity:1;stroke-width:0.577;" x1="263" x2="3036" y1="625.541" y2="625.541"/>
  <g id="H-reference" style="fill:#27AAE1;stroke:none;" transform="matrix(1 0 0 1 339 1126)">
   <path d="M 54.9316 0 L 57.666 0 L 30.5664 -70.459 L 28.0762 -70.459 L 0.976562 0 L 3.66211 0 L 12.9395 -24.4629 L 45.7031 -24.4629 Z M 29.1992 -67.0898 L 29.4434 -67.0898 L 44.8242 -26.709 L 13.8184 -26.709 Z"/>
  </g>
  <line id="Baseline-M" style="fill:none;stroke:#27AAE1;opacity:1;stroke-width:0.577;" x1="263" x2="3036" y1="1126" y2="1126"/>
  <line id="Capline-M" style="fill:none;stroke:#27AAE1;opacity:1;stroke-width:0.577;" x1="263" x2="3036" y1="1055.54" y2="1055.54"/>
  <g id="H-reference" style="fill:#27AAE1;stroke:none;" transform="matrix(1 0 0 1 339 1556)">
   <path d="M 54.9316 0 L 57.666 0 L 30.5664 -70.459 L 28.0762 -70.459 L 0.976562 0 L 3.66211 0 L 12.9395 -24.4629 L 45.7031 -24.4629 Z M 29.1992 -67.0898 L 29.4434 -67.0898 L 44.8242 -26.709 L 13.8184 -26.709 Z"/>
  </g>
  <line id="Baseline-L" style="fill:none;stroke:#27AAE1;opacity:1;stroke-width:0.577;" x1="263" x2="3036" y1="1556" y2="1556"/>
  <line id="Capline-L" style="fill:none;stroke:#27AAE1;opacity:1;stroke-width:0.577;" x1="263" x2="3036" y1="1485.54" y2="1485.54"/>
  <rect height="119.336" id="left-margin" style="fill:#00AEEF;stroke:none;opacity:0.4;" width="12.4512" x="1386.91" y="1030.79"/>
  <rect height="119.336" id="right-margin" style="fill:#00AEEF;stroke:none;opacity:0.4;" width="12.4512" x="1500.33" y="1030.79"/>
 </g>
 <g id="Symbols">
  <g id="Black-L" transform="matrix(1 0 0 1 2844.65 1556)">
   <path d="M 21.6309 5.17578 L 33.9844 5.17578 C 35.0586 5.17578 35.7422 4.44336 35.7422 3.36914 L 35.7422 -35.9863 C 35.7422 -65.2344 58.4473 -83.9355 88.7207 -83.9355 C 119.043 -83.9355 141.748 -65.2344 141.748 -35.9863 L 141.748 3.36914 C 141.748 4.44336 142.432 5.17578 143.506 5.17578 L 155.859 5.17578 C 159.033 5.17578 161.426 3.17383 161.426 0.0976562 L 161.426 -40.6738 C 161.426 -78.7109 130.615 -102.588 91.4551 -102.588 L 86.0352 -102.588 C 46.8262 -102.588 16.0645 -78.7109 16.0645 -40.6738 L 16.0645 0.0976562 C 16.0645 3.17383 18.457 5.17578 21.6309 5.17578 Z M 49.2676 27.3926 L 61.5234 27.3926 C 68.75 27.3926 73.6328 23.1445 73.6328 16.0645 L 73.6328 -17.3828 C 73.6328 -24.4141 68.75 -28.7109 61.5234 -28.7109 L 49.2676 -28.7109 C 45.3125 -28.7109 42.6758 -26.2207 42.6758 -22.2656 L 42.6758 20.9473 C 42.6758 24.9023 45.3125 27.3926 49.2676 27.3926 Z M 115.869 27.3926 L 128.174 27.3926 C 132.178 27.3926 134.814 25 134.814 20.9473 L 134.814 -22.2656 C 134.814 -26.2695 132.178 -28.7109 128.174 -28.7109 L 115.869 -28.7109 C 108.691 -28.7109 103.809 -24.4141 103.809 -17.3828 L 103.809 16.0645 C 103.809 23.1445 108.691 27.3926 115.869 27.3926 Z"/>
  </g>
  <g id="Heavy-L" transform="matrix(1 0 0 1 2549.92 1556)">
   <path d="M 21.2402 3.75977 L 31.3477 3.75977 C 32.373 3.75977 33.0566 3.125 33.0566 2.09961 L 33.0566 -36.4258 C 33.0566 -65.9668 55.8105 -84.9121 86.7676 -84.9121 C 117.725 -84.9121 140.479 -65.9668 140.479 -36.4258 L 140.479 2.09961 C 140.479 3.125 141.113 3.75977 142.139 3.75977 L 152.246 3.75977 C 155.225 3.75977 157.471 1.9043 157.471 -0.976562 L 157.471 -40.4297 C 157.471 -77.4902 127.734 -101.172 89.2578 -101.172 L 84.2773 -101.172 C 45.8008 -101.172 16.0645 -77.4902 16.0645 -40.4297 L 16.0645 -0.976562 C 16.0645 1.9043 18.3105 3.75977 21.2402 3.75977 Z M 46.5332 26.6602 L 57.2266 26.6602 C 64.5508 26.6602 69.2871 22.4121 69.2871 15.2832 L 69.2871 -16.6016 C 69.2871 -23.6816 64.5508 -27.9297 57.2266 -27.9297 L 46.5332 -27.9297 C 42.5293 -27.9297 39.9414 -25.4883 39.9414 -21.4844 L 39.9414 20.2148 C 39.9414 24.2188 42.5293 26.6602 46.5332 26.6602 Z M 116.309 26.6602 L 126.953 26.6602 C 131.055 26.6602 133.643 24.2676 133.643 20.2148 L 133.643 -21.4844 C 133.643 -25.5371 131.055 -27.9297 126.953 -27.9297 L 116.309 -27.9297 C 108.984 -27.9297 104.248 -23.6816 104.248 -16.6016 L 104.248 15.2832 C 104.248 22.4121 108.984 26.6602 116.309 26.6602 Z"/>
  </g>
  <g id="Bold-L" transform="matrix(1 0 0 1 2255.41 1556)">
   <path d="M 20.8496 2.24609 L 28.4668 2.24609 C 29.4434 2.24609 30.0781 1.61133 30.0781 0.634766 L 30.0781 -36.9141 C 30.0781 -66.7969 52.9297 -86.0352 84.5703 -86.0352 C 116.211 -86.0352 139.062 -66.7969 139.062 -36.9141 L 139.062 0.634766 C 139.062 1.61133 139.697 2.24609 140.674 2.24609 L 148.242 2.24609 C 151.025 2.24609 153.076 0.488281 153.076 -2.14844 L 153.076 -40.1855 C 153.076 -76.123 124.463 -99.5117 86.7676 -99.5117 L 82.3242 -99.5117 C 44.6289 -99.5117 16.0645 -76.123 16.0645 -40.1855 L 16.0645 -2.14844 C 16.0645 0.488281 18.1152 2.24609 20.8496 2.24609 Z M 43.5059 25.7812 L 52.3926 25.7812 C 59.8633 25.7812 64.4531 21.582 64.4531 14.4531 L 64.4531 -15.7227 C 64.4531 -22.9004 59.8633 -27.0996 52.3926 -27.0996 L 43.5059 -27.0996 C 39.4043 -27.0996 36.9141 -24.707 36.9141 -20.6543 L 36.9141 19.3359 C 36.9141 23.4375 39.4043 25.7812 43.5059 25.7812 Z M 116.748 25.7812 L 125.635 25.7812 C 129.785 25.7812 132.324 23.4375 132.324 19.3359 L 132.324 -20.6543 C 132.324 -24.7559 129.785 -27.0996 125.635 -27.0996 L 116.748 -27.0996 C 109.277 -27.0996 104.688 -22.9004 104.688 -15.7227 L 104.688 14.4531 C 104.688 21.582 109.277 25.7812 116.748 25.7812 Z"/>
  </g>
  <g id="Semibold-L" transform="matrix(1 0 0 1 1960.23 1556)">
   <path d="M 20.6055 1.17188 L 26.4648 1.17188 C 27.3926 1.17188 27.9785 0.585938 27.9785 -0.390625 L 27.9785 -37.2559 C 27.9785 -67.3828 50.8789 -86.7676 83.0566 -86.7676 C 115.186 -86.7676 138.086 -67.3828 138.086 -37.2559 L 138.086 -0.390625 C 138.086 0.585938 138.721 1.17188 139.648 1.17188 L 145.508 1.17188 C 148.096 1.17188 150 -0.488281 150 -2.97852 L 150 -40.0391 C 150 -75.1465 122.266 -98.3887 85.0586 -98.3887 L 81.0059 -98.3887 C 43.8477 -98.3887 16.0645 -75.1465 16.0645 -40.0391 L 16.0645 -2.97852 C 16.0645 -0.488281 17.9688 1.17188 20.6055 1.17188 Z M 41.4062 25.1953 L 49.0723 25.1953 C 56.5918 25.1953 61.1328 21.0449 61.1328 13.8672 L 61.1328 -15.1367 C 61.1328 -22.3633 56.5918 -26.5137 49.0723 -26.5137 L 41.4062 -26.5137 C 37.207 -26.5137 34.8145 -24.1699 34.8145 -20.0684 L 34.8145 18.75 C 34.8145 22.8516 37.207 25.1953 41.4062 25.1953 Z M 117.09 25.1953 L 124.756 25.1953 C 128.906 25.1953 131.396 22.9004 131.396 18.75 L 131.396 -20.0684 C 131.396 -24.1699 128.906 -26.5137 124.756 -26.5137 L 117.09 -26.5137 C 109.521 -26.5137 105.029 -22.3633 105.029 -15.1367 L 105.029 13.8672 C 105.029 21.0449 109.521 25.1953 117.09 25.1953 Z"/>
  </g>
  <g id="Medium-L" transform="matrix(1 0 0 1 1664.67 1556)">
   <path d="M 20.4102 0.341797 L 24.9512 0.341797 C 25.8301 0.341797 26.416 -0.195312 26.416 -1.12305 L 26.416 -37.5 C 26.416 -67.8223 49.3652 -87.3535 81.8848 -87.3535 C 114.404 -87.3535 137.354 -67.8223 137.354 -37.5 L 137.354 -1.12305 C 137.354 -0.195312 137.939 0.341797 138.867 0.341797 L 143.408 0.341797 C 145.898 0.341797 147.705 -1.26953 147.705 -3.61328 L 147.705 -39.8926 C 147.705 -74.4141 120.557 -97.5586 83.7891 -97.5586 L 79.9805 -97.5586 C 43.2129 -97.5586 16.0645 -74.4141 16.0645 -39.8926 L 16.0645 -3.61328 C 16.0645 -1.26953 17.9199 0.341797 20.4102 0.341797 Z M 39.7949 24.7559 L 46.5332 24.7559 C 54.1504 24.7559 58.5938 20.6055 58.5938 13.4277 L 58.5938 -14.6973 C 58.5938 -21.9238 54.1504 -26.0742 46.5332 -26.0742 L 39.7949 -26.0742 C 35.5957 -26.0742 33.2031 -23.7793 33.2031 -19.6289 L 33.2031 18.3105 C 33.2031 22.4609 35.5957 24.7559 39.7949 24.7559 Z M 117.334 24.7559 L 124.023 24.7559 C 128.271 24.7559 130.713 22.4609 130.713 18.3105 L 130.713 -19.6289 C 130.713 -23.7793 128.271 -26.0742 124.023 -26.0742 L 117.334 -26.0742 C 109.717 -26.0742 105.273 -21.9238 105.273 -14.6973 L 105.273 13.4277 C 105.273 20.6055 109.717 24.7559 117.334 24.7559 Z"/>
  </g>
  <g id="Regular-L" transform="matrix(1 0 0 1 1369.45 1556)">
   <path d="M 20.1172 -0.683594 L 22.9492 -0.683594 C 23.8281 -0.683594 24.3652 -1.2207 24.3652 -2.09961 L 24.3652 -37.8418 C 24.3652 -68.4082 47.4121 -88.0859 80.3711 -88.0859 C 113.379 -88.0859 136.426 -68.4082 136.426 -37.8418 L 136.426 -2.09961 C 136.426 -1.2207 136.963 -0.683594 137.842 -0.683594 L 140.674 -0.683594 C 143.018 -0.683594 144.727 -2.24609 144.727 -4.44336 L 144.727 -39.7461 C 144.727 -73.4863 118.359 -96.4355 82.1289 -96.4355 L 78.6621 -96.4355 C 42.4316 -96.4355 16.0645 -73.4863 16.0645 -39.7461 L 16.0645 -4.44336 C 16.0645 -2.24609 17.7734 -0.683594 20.1172 -0.683594 Z M 37.7441 24.1699 L 43.2129 24.1699 C 50.9277 24.1699 55.2734 20.0684 55.2734 12.8418 L 55.2734 -14.1113 C 55.2734 -21.3867 50.9277 -25.4883 43.2129 -25.4883 L 37.7441 -25.4883 C 33.4473 -25.4883 31.1035 -23.2422 31.1035 -19.043 L 31.1035 17.7246 C 31.1035 21.9238 33.4473 24.1699 37.7441 24.1699 Z M 117.627 24.1699 L 123.145 24.1699 C 127.393 24.1699 129.834 21.9238 129.834 17.7246 L 129.834 -19.043 C 129.834 -23.2422 127.393 -25.4883 123.145 -25.4883 L 117.627 -25.4883 C 109.912 -25.4883 105.566 -21.3867 105.566 -14.1113 L 105.566 12.8418 C 105.566 20.0684 109.912 24.1699 117.627 24.1699 Z"/>
  </g>
  <g id="Light-L" transform="matrix(1 0 0 1 1073.86 1556)">
   <path d="M 19.2383 -0.683594 L 21.2402 -0.683594 C 21.9727 -0.683594 22.4609 -1.17188 22.4609 -1.9043 L 22.4609 -37.8418 C 22.4609 -69.4336 46.1914 -89.502 79.2969 -89.502 C 112.402 -89.502 136.084 -69.4336 136.084 -37.8418 L 136.084 -1.9043 C 136.084 -1.17188 136.572 -0.683594 137.305 -0.683594 L 139.307 -0.683594 C 141.162 -0.683594 142.48 -1.9043 142.48 -3.61328 L 142.48 -39.1602 C 142.48 -73.3398 116.162 -95.8496 80.4688 -95.8496 L 78.125 -95.8496 C 42.3828 -95.8496 16.0645 -73.3398 16.0645 -39.1602 L 16.0645 -3.61328 C 16.0645 -1.9043 17.3828 -0.683594 19.2383 -0.683594 Z M 36.0352 23.9746 L 41.0156 23.9746 C 48.7305 23.9746 53.0762 19.873 53.0762 12.6465 L 53.0762 -13.9648 C 53.0762 -21.1914 48.7305 -25.293 41.0156 -25.293 L 36.0352 -25.293 C 31.7871 -25.293 29.4434 -23.0469 29.4434 -18.8477 L 29.4434 17.5781 C 29.4434 21.7285 31.7871 23.9746 36.0352 23.9746 Z M 117.627 23.9746 L 122.607 23.9746 C 126.855 23.9746 129.248 21.7285 129.248 17.5781 L 129.248 -18.8477 C 129.248 -23.0469 126.855 -25.293 122.607 -25.293 L 117.627 -25.293 C 109.912 -25.293 105.566 -21.1914 105.566 -13.9648 L 105.566 12.6465 C 105.566 19.873 109.912 23.9746 117.627 23.9746 Z"/>
  </g>
  <g id="Thin-L" transform="matrix(1 0 0 1 778.615 1556)">
   <path d="M 18.0664 -0.683594 L 18.9941 -0.683594 C 19.5312 -0.683594 19.9707 -1.12305 19.9707 -1.66016 L 19.9707 -37.8906 C 19.9707 -70.8496 44.5801 -91.4062 77.832 -91.4062 C 111.084 -91.4062 135.693 -70.8496 135.693 -37.8906 L 135.693 -1.66016 C 135.693 -1.12305 136.084 -0.683594 136.621 -0.683594 L 137.549 -0.683594 C 138.721 -0.683594 139.551 -1.46484 139.551 -2.58789 L 139.551 -38.4277 C 139.551 -73.1934 113.33 -95.1172 78.2715 -95.1172 L 77.3926 -95.1172 C 42.2852 -95.1172 16.0645 -73.1934 16.0645 -38.4277 L 16.0645 -2.58789 C 16.0645 -1.46484 16.8945 -0.683594 18.0664 -0.683594 Z M 33.8379 23.7305 L 38.0859 23.7305 C 45.8008 23.7305 50.1465 19.6289 50.1465 12.4023 L 50.1465 -13.7207 C 50.1465 -20.9473 45.8008 -25.0488 38.0859 -25.0488 L 33.8379 -25.0488 C 29.5898 -25.0488 27.2461 -22.8027 27.2461 -18.6035 L 27.2461 17.2852 C 27.2461 21.4844 29.5898 23.7305 33.8379 23.7305 Z M 117.627 23.7305 L 121.826 23.7305 C 126.123 23.7305 128.516 21.4844 128.516 17.2852 L 128.516 -18.6035 C 128.516 -22.8027 126.123 -25.0488 121.826 -25.0488 L 117.627 -25.0488 C 109.912 -25.0488 105.566 -20.9473 105.566 -13.7207 L 105.566 12.4023 C 105.566 19.6289 109.912 23.7305 117.627 23.7305 Z"/>
  </g>
  <g id="Ultralight-L" transform="matrix(1 0 0 1 482.66 1556)">
   <path d="M 17.4805 -0.683594 L 17.8223 -0.683594 C 18.2617 -0.683594 18.6523 -1.07422 18.6523 -1.51367 L 18.6523 -37.9395 C 18.6523 -71.582 43.75 -92.334 77.0508 -92.334 C 110.4 -92.334 135.449 -71.582 135.449 -37.9395 L 135.449 -1.51367 C 135.449 -1.07422 135.84 -0.683594 136.279 -0.683594 L 136.67 -0.683594 C 137.451 -0.683594 138.037 -1.2207 138.037 -2.05078 L 138.037 -38.0859 C 138.037 -73.0957 111.865 -94.7754 77.0996 -94.7754 L 77.002 -94.7754 C 42.2852 -94.7754 16.0645 -73.0957 16.0645 -38.0859 L 16.0645 -2.05078 C 16.0645 -1.2207 16.6504 -0.683594 17.4805 -0.683594 Z M 32.7148 23.6328 L 36.5723 23.6328 C 44.2871 23.6328 48.6328 19.5312 48.6328 12.2559 L 48.6328 -13.5742 C 48.6328 -20.8008 44.2871 -24.9023 36.5723 -24.9023 L 32.7148 -24.9023 C 28.4668 -24.9023 26.123 -22.6562 26.123 -18.5059 L 26.123 17.1875 C 26.123 21.3867 28.4668 23.6328 32.7148 23.6328 Z M 117.627 23.6328 L 121.484 23.6328 C 125.732 23.6328 128.125 21.3867 128.125 17.1875 L 128.125 -18.5059 C 128.125 -22.6562 125.732 -24.9023 121.484 -24.9023 L 117.627 -24.9023 C 109.912 -24.9023 105.566 -20.8008 105.566 -13.5742 L 105.566 12.2559 C 105.566 19.5312 109.912 23.6328 117.627 23.6328 Z"/>
  </g>
  <g id="Black-M" transform="matrix(1 0 0 1 2862.57 1126)">
   <path d="M 16.748 -2.09961 L 28.9551 -2.09961 C 29.7363 -2.09961 30.3223 -2.63672 30.3223 -3.4668 L 30.3223 -35.2539 C 30.3223 -58.0566 48.1445 -72.4121 70.8496 -72.4121 C 93.5059 -72.4121 111.377 -58.0566 111.377 -35.2539 L 111.377 -3.4668 C 111.377 -2.63672 111.914 -2.09961 112.744 -2.09961 L 124.902 -2.09961 C 127.344 -2.09961 129.199 -3.56445 129.199 -6.00586 L 129.199 -39.4531 C 129.199 -70.5566 104.004 -89.1113 72.9492 -89.1113 L 68.7012 -89.1113 C 37.6953 -89.1113 12.4512 -70.5566 12.4512 -39.4531 L 12.4512 -6.00586 C 12.4512 -3.56445 14.3066 -2.09961 16.748 -2.09961 Z M 40.9668 14.2578 L 52.3438 14.2578 C 57.7637 14.2578 61.7188 10.8887 61.7188 5.46875 L 61.7188 -22.3145 C 61.7188 -27.7344 57.7637 -31.1035 52.3438 -31.1035 L 40.9668 -31.1035 C 37.9883 -31.1035 35.8887 -29.1016 35.8887 -26.123 L 35.8887 9.22852 C 35.8887 12.2559 37.9883 14.2578 40.9668 14.2578 Z M 89.2578 14.2578 L 100.635 14.2578 C 103.662 14.2578 105.811 12.3047 105.811 9.22852 L 105.811 -26.123 C 105.811 -29.1504 103.662 -31.1035 100.635 -31.1035 L 89.2578 -31.1035 C 83.8379 -31.1035 79.8828 -27.7344 79.8828 -22.3145 L 79.8828 5.46875 C 79.8828 10.8887 83.8379 14.2578 89.2578 14.2578 Z"/>
  </g>
  <g id="Heavy-M" transform="matrix(1 0 0 1 2567.72 1126)">
   <path d="M 16.6016 -3.56445 L 26.5137 -3.56445 C 27.3438 -3.56445 27.8809 -4.10156 27.8809 -4.93164 L 27.8809 -35.7422 C 27.8809 -58.5938 45.6055 -73.1445 68.9453 -73.1445 C 92.334 -73.1445 110.059 -58.5938 110.059 -35.7422 L 110.059 -4.93164 C 110.059 -4.10156 110.596 -3.56445 111.426 -3.56445 L 121.338 -3.56445 C 123.682 -3.56445 125.488 -5.0293 125.488 -7.37305 L 125.488 -39.3555 C 125.488 -69.2383 101.367 -87.6465 70.9961 -87.6465 L 66.9434 -87.6465 C 36.5723 -87.6465 12.4512 -69.2383 12.4512 -39.3555 L 12.4512 -7.37305 C 12.4512 -5.0293 14.2578 -3.56445 16.6016 -3.56445 Z M 38.4277 13.4766 L 48.1934 13.4766 C 53.7598 13.4766 57.5684 10.1074 57.5684 4.6875 L 57.5684 -21.5332 C 57.5684 -27.002 53.7598 -30.3223 48.1934 -30.3223 L 38.4277 -30.3223 C 35.3516 -30.3223 33.3008 -28.3691 33.3008 -25.3418 L 33.3008 8.44727 C 33.3008 11.5234 35.3516 13.4766 38.4277 13.4766 Z M 89.6973 13.4766 L 99.4629 13.4766 C 102.588 13.4766 104.639 11.5723 104.639 8.44727 L 104.639 -25.3418 C 104.639 -28.418 102.588 -30.3223 99.4629 -30.3223 L 89.6973 -30.3223 C 84.1797 -30.3223 80.3711 -27.002 80.3711 -21.5332 L 80.3711 4.6875 C 80.3711 10.1074 84.1797 13.4766 89.6973 13.4766 Z"/>
  </g>
  <g id="Bold-M" transform="matrix(1 0 0 1 2273.11 1126)">
   <path d="M 16.4062 -5.27344 L 23.8281 -5.27344 C 24.6094 -5.27344 25.1465 -5.76172 25.1465 -6.54297 L 25.1465 -36.2305 C 25.1465 -59.1797 42.7734 -73.877 66.8945 -73.877 C 90.9668 -73.877 108.643 -59.1797 108.643 -36.2305 L 108.643 -6.54297 C 108.643 -5.76172 109.131 -5.27344 109.912 -5.27344 L 117.334 -5.27344 C 119.629 -5.27344 121.289 -6.68945 121.289 -8.88672 L 121.289 -39.2578 C 121.289 -67.7734 98.4863 -86.0352 68.75 -86.0352 L 64.9902 -86.0352 C 35.3027 -86.0352 12.4512 -67.7734 12.4512 -39.2578 L 12.4512 -8.88672 C 12.4512 -6.68945 14.1602 -5.27344 16.4062 -5.27344 Z M 35.5957 12.5977 L 43.5547 12.5977 C 49.2676 12.5977 52.8809 9.27734 52.8809 3.80859 L 52.8809 -20.6543 C 52.8809 -26.1719 49.2676 -29.4434 43.5547 -29.4434 L 35.5957 -29.4434 C 32.4219 -29.4434 30.4688 -27.5391 30.4688 -24.4629 L 30.4688 7.56836 C 30.4688 10.6934 32.4219 12.5977 35.5957 12.5977 Z M 90.1855 12.5977 L 98.1934 12.5977 C 101.367 12.5977 103.369 10.7422 103.369 7.56836 L 103.369 -24.4629 C 103.369 -27.5879 101.367 -29.4434 98.1934 -29.4434 L 90.1855 -29.4434 C 84.5215 -29.4434 80.8594 -26.1719 80.8594 -20.6543 L 80.8594 3.80859 C 80.8594 9.27734 84.5215 12.5977 90.1855 12.5977 Z"/>
  </g>
  <g id="Semibold-M" transform="matrix(1 0 0 1 1977.81 1126)">
   <path d="M 16.3086 -6.44531 L 21.9727 -6.44531 C 22.7539 -6.44531 23.2422 -6.93359 23.2422 -7.71484 L 23.2422 -36.6211 C 23.2422 -59.6191 40.8203 -74.4629 65.4297 -74.4629 C 90.0391 -74.4629 107.617 -59.6191 107.617 -36.6211 L 107.617 -7.71484 C 107.617 -6.93359 108.105 -6.44531 108.887 -6.44531 L 114.6 -6.44531 C 116.797 -6.44531 118.457 -7.86133 118.457 -9.96094 L 118.457 -39.1602 C 118.457 -66.748 96.4355 -84.9121 67.2363 -84.9121 L 63.623 -84.9121 C 34.4238 -84.9121 12.4512 -66.748 12.4512 -39.1602 L 12.4512 -9.96094 C 12.4512 -7.86133 14.1113 -6.44531 16.3086 -6.44531 Z M 33.5938 11.9629 L 40.332 11.9629 C 46.1426 11.9629 49.707 8.74023 49.707 3.17383 L 49.707 -20.0195 C 49.707 -25.5859 46.1426 -28.8086 40.332 -28.8086 L 33.5938 -28.8086 C 30.4199 -28.8086 28.5156 -27.002 28.5156 -23.8281 L 28.5156 6.98242 C 28.5156 10.1562 30.4199 11.9629 33.5938 11.9629 Z M 90.5762 11.9629 L 97.3145 11.9629 C 100.537 11.9629 102.49 10.1562 102.49 6.98242 L 102.49 -23.8281 C 102.49 -27.002 100.537 -28.8086 97.3145 -28.8086 L 90.5762 -28.8086 C 84.7656 -28.8086 81.2012 -25.5859 81.2012 -20.0195 L 81.2012 3.17383 C 81.2012 8.74023 84.7656 11.9629 90.5762 11.9629 Z"/>
  </g>
  <g id="Medium-M" transform="matrix(1 0 0 1 1682.2 1126)">
   <path d="M 16.2109 -7.32422 L 20.6055 -7.32422 C 21.3379 -7.32422 21.8262 -7.8125 21.8262 -8.54492 L 21.8262 -36.8652 C 21.8262 -59.9121 39.3555 -74.8535 64.3555 -74.8535 C 89.3555 -74.8535 106.885 -59.9121 106.885 -36.8652 L 106.885 -8.54492 C 106.885 -7.8125 107.373 -7.32422 108.105 -7.32422 L 112.5 -7.32422 C 114.648 -7.32422 116.26 -8.69141 116.26 -10.7422 L 116.26 -39.1113 C 116.26 -65.9668 94.9219 -84.082 66.1133 -84.082 L 62.5977 -84.082 C 33.7891 -84.082 12.4512 -65.9668 12.4512 -39.1113 L 12.4512 -10.7422 C 12.4512 -8.69141 14.0625 -7.32422 16.2109 -7.32422 Z M 32.1289 11.5234 L 37.9395 11.5234 C 43.7988 11.5234 47.2656 8.30078 47.2656 2.73438 L 47.2656 -19.5801 C 47.2656 -25.1465 43.7988 -28.3691 37.9395 -28.3691 L 32.1289 -28.3691 C 28.8574 -28.3691 27.002 -26.5625 27.002 -23.3887 L 27.002 6.54297 C 27.002 9.7168 28.8574 11.5234 32.1289 11.5234 Z M 90.8203 11.5234 L 96.6309 11.5234 C 99.9023 11.5234 101.807 9.7168 101.807 6.54297 L 101.807 -23.3887 C 101.807 -26.6113 99.9023 -28.3691 96.6309 -28.3691 L 90.8203 -28.3691 C 84.9609 -28.3691 81.4941 -25.1465 81.4941 -19.5801 L 81.4941 2.73438 C 81.4941 8.30078 84.9609 11.5234 90.8203 11.5234 Z"/>
  </g>
  <g id="Regular-M" transform="matrix(1 0 0 1 1386.91 1126)">
   <path d="M 16.1133 -8.44727 L 18.75 -8.44727 C 19.5312 -8.44727 19.9707 -8.93555 19.9707 -9.66797 L 19.9707 -37.207 C 19.9707 -60.3516 37.4023 -75.3906 62.9395 -75.3906 C 88.4277 -75.3906 105.908 -60.3516 105.908 -37.207 L 105.908 -9.66797 C 105.908 -8.93555 106.348 -8.44727 107.129 -8.44727 L 109.766 -8.44727 C 111.865 -8.44727 113.428 -9.81445 113.428 -11.8164 L 113.428 -39.0137 C 113.428 -64.9414 92.9688 -82.959 64.5996 -82.959 L 61.2793 -82.959 C 32.9102 -82.959 12.4512 -64.9414 12.4512 -39.0137 L 12.4512 -11.8164 C 12.4512 -9.81445 13.9648 -8.44727 16.1133 -8.44727 Z M 30.1758 10.8887 L 34.7656 10.8887 C 40.7227 10.8887 44.0918 7.71484 44.0918 2.09961 L 44.0918 -18.9941 C 44.0918 -24.6094 40.7227 -27.7832 34.7656 -27.7832 L 30.1758 -27.7832 C 26.8555 -27.7832 25.0488 -26.0254 25.0488 -22.8027 L 25.0488 5.9082 C 25.0488 9.17969 26.8555 10.8887 30.1758 10.8887 Z M 91.1621 10.8887 L 95.752 10.8887 C 99.0723 10.8887 100.928 9.17969 100.928 5.9082 L 100.928 -22.8027 C 100.928 -26.0254 99.0723 -27.7832 95.752 -27.7832 L 91.1621 -27.7832 C 85.2051 -27.7832 81.8359 -24.6094 81.8359 -18.9941 L 81.8359 2.09961 C 81.8359 7.71484 85.2051 10.8887 91.1621 10.8887 Z"/>
  </g>
  <g id="Light-M" transform="matrix(1 0 0 1 1091.19 1126)">
   <path d="M 15.2832 -8.44727 L 17.2363 -8.44727 C 17.8711 -8.44727 18.2617 -8.88672 18.2617 -9.52148 L 18.2617 -37.2559 C 18.2617 -61.2793 36.3281 -76.6602 61.9141 -76.6602 C 87.5488 -76.6602 105.615 -61.2793 105.615 -37.2559 L 105.615 -9.52148 C 105.615 -8.88672 106.006 -8.44727 106.641 -8.44727 L 108.594 -8.44727 C 110.205 -8.44727 111.426 -9.52148 111.426 -11.084 L 111.426 -38.5254 C 111.426 -64.8438 91.0156 -82.4707 63.0859 -82.4707 L 60.791 -82.4707 C 32.8613 -82.4707 12.4512 -64.8438 12.4512 -38.5254 L 12.4512 -11.084 C 12.4512 -9.52148 13.6719 -8.44727 15.2832 -8.44727 Z M 28.7109 10.7422 L 32.7637 10.7422 C 38.7695 10.7422 42.1387 7.56836 42.1387 1.95312 L 42.1387 -18.7988 C 42.1387 -24.4141 38.7695 -27.5879 32.7637 -27.5879 L 28.7109 -27.5879 C 25.3906 -27.5879 23.584 -25.8789 23.584 -22.6074 L 23.584 5.76172 C 23.584 8.98438 25.3906 10.7422 28.7109 10.7422 Z M 91.1621 10.7422 L 95.2637 10.7422 C 98.5352 10.7422 100.439 8.98438 100.439 5.76172 L 100.439 -22.6074 C 100.439 -25.8789 98.5352 -27.5879 95.2637 -27.5879 L 91.1621 -27.5879 C 85.2051 -27.5879 81.8359 -24.4141 81.8359 -18.7988 L 81.8359 1.95312 C 81.8359 7.56836 85.2051 10.7422 91.1621 10.7422 Z"/>
  </g>
  <g id="Thin-M" transform="matrix(1 0 0 1 795.802 1126)">
   <path d="M 14.2578 -8.44727 L 15.1855 -8.44727 C 15.6738 -8.44727 16.0156 -8.78906 16.0156 -9.27734 L 16.0156 -37.3047 C 16.0156 -62.5488 34.8633 -78.3203 60.6445 -78.3203 C 86.377 -78.3203 105.225 -62.5488 105.225 -37.3047 L 105.225 -9.27734 C 105.225 -8.78906 105.566 -8.44727 106.055 -8.44727 L 106.982 -8.44727 C 108.008 -8.44727 108.789 -9.13086 108.789 -10.1562 L 108.789 -37.8906 C 108.789 -64.6973 88.4277 -81.8359 61.1328 -81.8359 L 60.1074 -81.8359 C 32.8125 -81.8359 12.4512 -64.6973 12.4512 -37.8906 L 12.4512 -10.1562 C 12.4512 -9.13086 13.2324 -8.44727 14.2578 -8.44727 Z M 26.709 10.5469 L 30.127 10.5469 C 36.1328 10.5469 39.502 7.32422 39.502 1.75781 L 39.502 -18.6035 C 39.502 -24.2188 36.1328 -27.3926 30.127 -27.3926 L 26.709 -27.3926 C 23.4375 -27.3926 21.582 -25.6348 21.582 -22.4121 L 21.582 5.51758 C 21.582 8.78906 23.4375 10.5469 26.709 10.5469 Z M 91.1621 10.5469 L 94.5801 10.5469 C 97.9004 10.5469 99.7559 8.78906 99.7559 5.51758 L 99.7559 -22.4121 C 99.7559 -25.6348 97.9004 -27.3926 94.5801 -27.3926 L 91.1621 -27.3926 C 85.2051 -27.3926 81.8359 -24.2188 81.8359 -18.6035 L 81.8359 1.75781 C 81.8359 7.32422 85.2051 10.5469 91.1621 10.5469 Z"/>
  </g>
  <g id="Ultralight-M" transform="matrix(1 0 0 1 499.75 1126)">
   <path d="M 13.7207 -8.44727 L 14.1602 -8.44727 C 14.5508 -8.44727 14.8438 -8.78906 14.8438 -9.13086 L 14.8438 -37.3047 C 14.8438 -63.1836 34.1309 -79.1992 59.9609 -79.1992 C 85.7422 -79.1992 105.029 -63.1836 105.029 -37.3047 L 105.029 -9.13086 C 105.029 -8.78906 105.371 -8.44727 105.713 -8.44727 L 106.201 -8.44727 C 106.885 -8.44727 107.471 -8.93555 107.471 -9.66797 L 107.471 -37.5488 C 107.471 -64.5996 87.1094 -81.4941 60.1074 -81.4941 L 59.8145 -81.4941 C 32.7637 -81.4941 12.4512 -64.5996 12.4512 -37.5488 L 12.4512 -9.66797 C 12.4512 -8.93555 12.9883 -8.44727 13.7207 -8.44727 Z M 25.6836 10.4004 L 28.8086 10.4004 C 34.7656 10.4004 38.1348 7.22656 38.1348 1.61133 L 38.1348 -18.5059 C 38.1348 -24.0723 34.7656 -27.2949 28.8086 -27.2949 L 25.6836 -27.2949 C 22.4121 -27.2949 20.6055 -25.5371 20.6055 -22.2656 L 20.6055 5.41992 C 20.6055 8.69141 22.4121 10.4004 25.6836 10.4004 Z M 91.1621 10.4004 L 94.2383 10.4004 C 97.5586 10.4004 99.4141 8.69141 99.4141 5.41992 L 99.4141 -22.2656 C 99.4141 -25.5371 97.5586 -27.2949 94.2383 -27.2949 L 91.1621 -27.2949 C 85.2051 -27.2949 81.8359 -24.0723 81.8359 -18.5059 L 81.8359 1.61133 C 81.8359 7.22656 85.2051 10.4004 91.1621 10.4004 Z"/>
  </g>
  <g id="Black-S" transform="matrix(1 0 0 1 2878.03 696)">
   <path d="M 13.1348 -9.375 L 22.5098 -9.375 C 23.1445 -9.375 23.584 -9.81445 23.584 -10.4492 L 23.584 -35.3027 C 23.584 -53.125 37.5488 -64.4043 55.3711 -64.4043 C 73.1934 -64.4043 87.1582 -53.125 87.1582 -35.3027 L 87.1582 -10.4492 C 87.1582 -9.81445 87.5977 -9.375 88.2324 -9.375 L 97.6074 -9.375 C 99.5117 -9.375 100.977 -10.5469 100.977 -12.4512 L 100.977 -38.5254 C 100.977 -62.793 81.2988 -77.3438 57.0312 -77.3438 L 53.7109 -77.3438 C 29.4434 -77.3438 9.76562 -62.793 9.76562 -38.5254 L 9.76562 -12.4512 C 9.76562 -10.5469 11.2305 -9.375 13.1348 -9.375 Z M 31.9336 3.4668 L 40.7227 3.4668 C 44.9707 3.4668 48.0469 0.830078 48.0469 -3.41797 L 48.0469 -25.0488 C 48.0469 -29.2969 44.9707 -31.9336 40.7227 -31.9336 L 31.9336 -31.9336 C 29.5898 -31.9336 27.9297 -30.3711 27.9297 -28.0273 L 27.9297 -0.439453 C 27.9297 1.9043 29.5898 3.4668 31.9336 3.4668 Z M 69.9707 3.4668 L 78.7598 3.4668 C 81.1523 3.4668 82.8125 1.95312 82.8125 -0.439453 L 82.8125 -28.0273 C 82.8125 -30.4199 81.1523 -31.9336 78.7598 -31.9336 L 69.9707 -31.9336 C 65.7227 -31.9336 62.6465 -29.2969 62.6465 -25.0488 L 62.6465 -3.41797 C 62.6465 0.830078 65.7227 3.4668 69.9707 3.4668 Z"/>
  </g>
  <g id="Heavy-S" transform="matrix(1 0 0 1 2582.64 696)">
   <path d="M 13.0859 -10.5469 L 20.8496 -10.5469 C 21.4844 -10.5469 21.9238 -10.9375 21.9238 -11.5723 L 21.9238 -35.6445 C 21.9238 -53.418 35.7422 -64.7949 54.0527 -64.7949 C 72.3633 -64.7949 86.1816 -53.418 86.1816 -35.6445 L 86.1816 -11.5723 C 86.1816 -10.9375 86.6211 -10.5469 87.2559 -10.5469 L 95.0195 -10.5469 C 96.9238 -10.5469 98.3398 -11.7188 98.3398 -13.5742 L 98.3398 -38.5254 C 98.3398 -61.8164 79.541 -76.2695 55.6641 -76.2695 L 52.4414 -76.2695 C 28.5645 -76.2695 9.76562 -61.8164 9.76562 -38.5254 L 9.76562 -13.5742 C 9.76562 -11.7188 11.2305 -10.5469 13.0859 -10.5469 Z M 30.127 2.88086 L 37.793 2.88086 C 42.1387 2.88086 45.1172 0.292969 45.1172 -4.00391 L 45.1172 -24.4629 C 45.1172 -28.7598 42.1387 -31.3477 37.793 -31.3477 L 30.127 -31.3477 C 27.7344 -31.3477 26.123 -29.834 26.123 -27.4414 L 26.123 -1.02539 C 26.123 1.36719 27.7344 2.88086 30.127 2.88086 Z M 70.3125 2.88086 L 77.9297 2.88086 C 80.3711 2.88086 81.9824 1.41602 81.9824 -1.02539 L 81.9824 -27.4414 C 81.9824 -29.8828 80.3711 -31.3477 77.9297 -31.3477 L 70.3125 -31.3477 C 65.9668 -31.3477 62.9883 -28.7598 62.9883 -24.4629 L 62.9883 -4.00391 C 62.9883 0.292969 65.9668 2.88086 70.3125 2.88086 Z"/>
  </g>
  <g id="Bold-S" transform="matrix(1 0 0 1 2287.39 696)">
   <path d="M 13.0859 -11.8164 L 18.9941 -11.8164 C 19.6289 -11.8164 20.0195 -12.207 20.0195 -12.8906 L 20.0195 -36.0352 C 20.0195 -53.8086 33.6914 -65.2344 52.5879 -65.2344 C 71.4844 -65.2344 85.1562 -53.8086 85.1562 -36.0352 L 85.1562 -12.8906 C 85.1562 -12.207 85.5469 -11.8164 86.1816 -11.8164 L 92.0898 -11.8164 C 93.9941 -11.8164 95.4102 -13.0371 95.4102 -14.8438 L 95.4102 -38.4766 C 95.4102 -60.6934 77.5391 -75.0977 54.1992 -75.0977 L 50.9766 -75.0977 C 27.6367 -75.0977 9.76562 -60.6934 9.76562 -38.4766 L 9.76562 -14.8438 C 9.76562 -13.0371 11.1816 -11.8164 13.0859 -11.8164 Z M 28.1738 2.24609 L 34.4727 2.24609 C 38.916 2.24609 41.7969 -0.341797 41.7969 -4.63867 L 41.7969 -23.8281 C 41.7969 -28.125 38.916 -30.7129 34.4727 -30.7129 L 28.1738 -30.7129 C 25.6836 -30.7129 24.1699 -29.248 24.1699 -26.8066 L 24.1699 -1.66016 C 24.1699 0.78125 25.6836 2.24609 28.1738 2.24609 Z M 70.7031 2.24609 L 77.002 2.24609 C 79.4922 2.24609 81.0547 0.78125 81.0547 -1.66016 L 81.0547 -26.8066 C 81.0547 -29.248 79.4922 -30.7129 77.002 -30.7129 L 70.7031 -30.7129 C 66.2598 -30.7129 63.3789 -28.125 63.3789 -23.8281 L 63.3789 -4.63867 C 63.3789 -0.341797 66.2598 2.24609 70.7031 2.24609 Z"/>
  </g>
  <g id="Semibold-S" transform="matrix(1 0 0 1 1991.7 696)">
   <path d="M 13.0371 -12.6953 L 17.6758 -12.6953 C 18.3594 -12.6953 18.75 -13.0859 18.75 -13.7695 L 18.75 -36.3281 C 18.75 -54.0039 32.3242 -65.5273 51.5625 -65.5273 C 70.8496 -65.5273 84.375 -54.0039 84.375 -36.3281 L 84.375 -13.7695 C 84.375 -13.0859 84.8145 -12.6953 85.4492 -12.6953 L 90.0879 -12.6953 C 91.9922 -12.6953 93.3594 -13.916 93.3594 -15.7227 L 93.3594 -38.4766 C 93.3594 -59.9121 76.1719 -74.3164 53.125 -74.3164 L 50 -74.3164 C 26.9531 -74.3164 9.76562 -59.9121 9.76562 -38.4766 L 9.76562 -15.7227 C 9.76562 -13.916 11.1816 -12.6953 13.0371 -12.6953 Z M 26.7578 1.80664 L 32.1777 1.80664 C 36.7188 1.80664 39.502 -0.732422 39.502 -5.07812 L 39.502 -23.3887 C 39.502 -27.7344 36.7188 -30.2734 32.1777 -30.2734 L 26.7578 -30.2734 C 24.2676 -30.2734 22.7539 -28.8086 22.7539 -26.3672 L 22.7539 -2.09961 C 22.7539 0.341797 24.2676 1.80664 26.7578 1.80664 Z M 70.9473 1.80664 L 76.3672 1.80664 C 78.9062 1.80664 80.4199 0.390625 80.4199 -2.09961 L 80.4199 -26.3672 C 80.4199 -28.8574 78.9062 -30.2734 76.3672 -30.2734 L 70.9473 -30.2734 C 66.4062 -30.2734 63.623 -27.7344 63.623 -23.3887 L 63.623 -5.07812 C 63.623 -0.732422 66.4062 1.80664 70.9473 1.80664 Z"/>
  </g>
  <g id="Medium-S" transform="matrix(1 0 0 1 1695.75 696)">
   <path d="M 13.0371 -13.3789 L 16.6992 -13.3789 C 17.3828 -13.3789 17.7734 -13.7695 17.7734 -14.4531 L 17.7734 -36.5234 C 17.7734 -54.1992 31.25 -65.7715 50.7812 -65.7715 C 70.3613 -65.7715 83.8379 -54.1992 83.8379 -36.5234 L 83.8379 -14.4531 C 83.8379 -13.7695 84.2285 -13.3789 84.9121 -13.3789 L 88.5742 -13.3789 C 90.4297 -13.3789 91.8457 -14.5996 91.8457 -16.3574 L 91.8457 -38.4766 C 91.8457 -59.3262 75.1465 -73.6816 52.3438 -73.6816 L 49.2676 -73.6816 C 26.4648 -73.6816 9.76562 -59.3262 9.76562 -38.4766 L 9.76562 -16.3574 C 9.76562 -14.5996 11.1328 -13.3789 13.0371 -13.3789 Z M 25.7324 1.46484 L 30.4688 1.46484 C 35.0586 1.46484 37.793 -1.07422 37.793 -5.41992 L 37.793 -23.0469 C 37.793 -27.3926 35.0586 -29.9316 30.4688 -29.9316 L 25.7324 -29.9316 C 23.1934 -29.9316 21.7285 -28.5156 21.7285 -26.0254 L 21.7285 -2.44141 C 21.7285 0.0488281 23.1934 1.46484 25.7324 1.46484 Z M 71.1914 1.46484 L 75.8789 1.46484 C 78.4668 1.46484 79.9316 0.0488281 79.9316 -2.44141 L 79.9316 -26.0254 C 79.9316 -28.5156 78.4668 -29.9316 75.8789 -29.9316 L 71.1914 -29.9316 C 66.5527 -29.9316 63.8672 -27.3926 63.8672 -23.0469 L 63.8672 -5.41992 C 63.8672 -1.07422 66.5527 1.46484 71.1914 1.46484 Z"/>
  </g>
  <g id="Regular-S" transform="matrix(1 0 0 1 1400.04 696)">
   <path d="M 12.9883 -14.2578 L 15.4297 -14.2578 C 16.1133 -14.2578 16.5039 -14.6484 16.5039 -15.2832 L 16.5039 -36.7676 C 16.5039 -54.4434 29.8828 -66.0645 49.8047 -66.0645 C 69.7266 -66.0645 83.1055 -54.4434 83.1055 -36.7676 L 83.1055 -15.2832 C 83.1055 -14.6484 83.4961 -14.2578 84.1797 -14.2578 L 86.5723 -14.2578 C 88.4766 -14.2578 89.8438 -15.4785 89.8438 -17.2363 L 89.8438 -38.4277 C 89.8438 -58.5938 73.7793 -72.8516 51.3184 -72.8516 L 48.2422 -72.8516 C 25.8301 -72.8516 9.76562 -58.5938 9.76562 -38.4277 L 9.76562 -17.2363 C 9.76562 -15.4785 11.1328 -14.2578 12.9883 -14.2578 Z M 24.3652 0.976562 L 28.2227 0.976562 C 32.9102 0.976562 35.5469 -1.51367 35.5469 -5.9082 L 35.5469 -22.5586 C 35.5469 -26.9531 32.9102 -29.4434 28.2227 -29.4434 L 24.3652 -29.4434 C 21.7773 -29.4434 20.3613 -28.0762 20.3613 -25.5371 L 20.3613 -2.92969 C 20.3613 -0.390625 21.7773 0.976562 24.3652 0.976562 Z M 71.4355 0.976562 L 75.2441 0.976562 C 77.832 0.976562 79.2969 -0.390625 79.2969 -2.92969 L 79.2969 -25.5371 C 79.2969 -28.0762 77.832 -29.4434 75.2441 -29.4434 L 71.4355 -29.4434 C 66.748 -29.4434 64.1113 -26.9531 64.1113 -22.5586 L 64.1113 -5.9082 C 64.1113 -1.51367 66.748 0.976562 71.4355 0.976562 Z"/>
  </g>
  <g id="Light-S" transform="matrix(1 0 0 1 1104.21 696)">
   <path d="M 12.3047 -14.2578 L 14.1113 -14.2578 C 14.6484 -14.2578 14.9902 -14.5996 14.9902 -15.1367 L 14.9902 -36.8164 C 14.9902 -55.2734 28.9062 -67.1875 48.9258 -67.1875 C 68.9453 -67.1875 82.8613 -55.2734 82.8613 -36.8164 L 82.8613 -15.1367 C 82.8613 -14.5996 83.2031 -14.2578 83.7402 -14.2578 L 85.5469 -14.2578 C 87.0117 -14.2578 88.0859 -15.2344 88.0859 -16.6016 L 88.0859 -37.9883 C 88.0859 -58.4961 72.0703 -72.4121 50 -72.4121 L 47.8027 -72.4121 C 25.7812 -72.4121 9.76562 -58.4961 9.76562 -37.9883 L 9.76562 -16.6016 C 9.76562 -15.2344 10.8398 -14.2578 12.3047 -14.2578 Z M 23.0469 0.830078 L 26.4648 0.830078 C 31.1523 0.830078 33.7891 -1.66016 33.7891 -6.05469 L 33.7891 -22.4121 C 33.7891 -26.8066 31.1523 -29.2969 26.4648 -29.2969 L 23.0469 -29.2969 C 20.459 -29.2969 19.043 -27.9297 19.043 -25.3906 L 19.043 -3.07617 C 19.043 -0.537109 20.459 0.830078 23.0469 0.830078 Z M 71.4355 0.830078 L 74.8047 0.830078 C 77.3926 0.830078 78.8574 -0.537109 78.8574 -3.07617 L 78.8574 -25.3906 C 78.8574 -27.9297 77.3926 -29.2969 74.8047 -29.2969 L 71.4355 -29.2969 C 66.748 -29.2969 64.1113 -26.8066 64.1113 -22.4121 L 64.1113 -6.05469 C 64.1113 -1.66016 66.748 0.830078 71.4355 0.830078 Z"/>
  </g>
  <g id="Thin-S" transform="matrix(1 0 0 1 808.668 696)">
   <path d="M 11.377 -14.2578 L 12.3047 -14.2578 C 12.6953 -14.2578 12.9883 -14.5508 12.9883 -14.9414 L 12.9883 -36.8164 C 12.9883 -56.3965 27.6367 -68.7012 47.7539 -68.7012 C 67.9199 -68.7012 82.5195 -56.3965 82.5195 -36.8164 L 82.5195 -14.9414 C 82.5195 -14.5508 82.8125 -14.2578 83.2031 -14.2578 L 84.1309 -14.2578 C 85.0586 -14.2578 85.7422 -14.8926 85.7422 -15.7715 L 85.7422 -37.4512 C 85.7422 -58.3496 69.7754 -71.875 48.291 -71.875 L 47.2656 -71.875 C 25.7324 -71.875 9.76562 -58.3496 9.76562 -37.4512 L 9.76562 -15.7715 C 9.76562 -14.8926 10.4492 -14.2578 11.377 -14.2578 Z M 21.3379 0.683594 L 24.1211 0.683594 C 28.8086 0.683594 31.4453 -1.80664 31.4453 -6.20117 L 31.4453 -22.2656 C 31.4453 -26.6602 28.8086 -29.1504 24.1211 -29.1504 L 21.3379 -29.1504 C 18.75 -29.1504 17.334 -27.7832 17.334 -25.2441 L 17.334 -3.22266 C 17.334 -0.683594 18.75 0.683594 21.3379 0.683594 Z M 71.4355 0.683594 L 74.2676 0.683594 C 76.8555 0.683594 78.3203 -0.683594 78.3203 -3.22266 L 78.3203 -25.2441 C 78.3203 -27.7832 76.8555 -29.1504 74.2676 -29.1504 L 71.4355 -29.1504 C 66.748 -29.1504 64.1113 -26.6602 64.1113 -22.2656 L 64.1113 -6.20117 C 64.1113 -1.80664 66.748 0.683594 71.4355 0.683594 Z"/>
  </g>
  <g id="Ultralight-S" transform="matrix(1 0 0 1 512.543 696)">
   <path d="M 10.8887 -14.2578 L 11.377 -14.2578 C 11.7188 -14.2578 11.9629 -14.502 11.9629 -14.8438 L 11.9629 -36.8652 C 11.9629 -56.9336 26.9531 -69.4336 47.168 -69.4336 C 67.3828 -69.4336 82.373 -56.9336 82.373 -36.8652 L 82.373 -14.8438 C 82.373 -14.502 82.6172 -14.2578 82.9102 -14.2578 L 83.3984 -14.2578 C 84.082 -14.2578 84.5703 -14.6973 84.5703 -15.332 L 84.5703 -37.1094 C 84.5703 -58.252 68.6035 -71.5332 47.3633 -71.5332 L 46.9238 -71.5332 C 25.6836 -71.5332 9.76562 -58.252 9.76562 -37.1094 L 9.76562 -15.332 C 9.76562 -14.6973 10.2539 -14.2578 10.8887 -14.2578 Z M 20.4102 0.537109 L 22.9492 0.537109 C 27.6367 0.537109 30.2734 -1.95312 30.2734 -6.34766 L 30.2734 -22.1191 C 30.2734 -26.5137 27.6367 -29.0039 22.9492 -29.0039 L 20.4102 -29.0039 C 17.8223 -29.0039 16.4062 -27.6367 16.4062 -25.0977 L 16.4062 -3.36914 C 16.4062 -0.830078 17.8223 0.537109 20.4102 0.537109 Z M 71.4355 0.537109 L 73.9258 0.537109 C 76.5137 0.537109 77.9785 -0.830078 77.9785 -3.36914 L 77.9785 -25.0977 C 77.9785 -27.6367 76.5137 -29.0039 73.9258 -29.0039 L 71.4355 -29.0039 C 66.748 -29.0039 64.1113 -26.5137 64.1113 -22.1191 L 64.1113 -6.34766 C 64.1113 -1.95312 66.748 0.537109 71.4355 0.537109 Z"/>
  </g>
 </g>
</svg>
